<svg id="Layer_1" data-name="Layer 1" xmlns="http://www.w3.org/2000/svg" viewBox="0 0 81.06 62.69"><defs><style>.cls-1{fill:#fff;}</style></defs><title>ChatBox_Button</title><path class="cls-1" d="M59.6152,109.7427v5.11a5.6645,5.6645,0,0,0,4.95,5.63v-14.45a11.2883,11.2883,0,0,1,.16-1.94A5.6848,5.6848,0,0,0,59.6152,109.7427Z" transform="translate(-59.6152 -68.3927)"/><path class="cls-1" d="M112.1052,104.0927a11.2883,11.2883,0,0,1,.16,1.94v14.45a5.6673,5.6673,0,0,0,4.98-5.63v-5.11A5.6733,5.6733,0,0,0,112.1052,104.0927Z" transform="translate(-59.6152 -68.3927)"/><path class="cls-1" d="M119.8452,68.3927c-11.51,0-20.84,6.69-20.84,14.95,0,6.84,6.39,12.59,15.1,14.38a10.8725,10.8725,0,0,1-2.94,3.32,9.8869,9.8869,0,0,1-.83.59c-.23.16-.47.3-.69.43-.06.03-.11.06-.16.09a14.5757,14.5757,0,0,1-1.98.91c-.43.16-.69.23-.69.23a15.5633,15.5633,0,0,0,2.74-.23c.08-.01.16-.03.24-.04a9.3707,9.3707,0,0,0,.98-.23,7.02,7.02,0,0,0,.95-.3,8.8345,8.8345,0,0,0,.9-.35,11.9183,11.9183,0,0,0,4.82-3.94c.79.06,1.59.1,2.4.1,11.51,0,20.83-6.7,20.83-14.96S131.3552,68.3927,119.8452,68.3927Zm9.29,13.45a1.5241,1.5241,0,0,1-.75,1.31l-1.84,1.07v2.12a1.5122,1.5122,0,0,1-.76,1.31l-1.83,1.06v2.12a1.5122,1.5122,0,0,1-.76,1.31l-2.59,1.5a1.5687,1.5687,0,0,1-.76.2,1.5981,1.5981,0,0,1-.76-.2,1.5241,1.5241,0,0,1-.75-1.31v-.38l-.32.19a1.5981,1.5981,0,0,1-.76.2,1.5687,1.5687,0,0,1-.76-.2,1.5122,1.5122,0,0,1-.76-1.31v-.37l-.32.18a1.4661,1.4661,0,0,1-.76.2,1.5981,1.5981,0,0,1-.76-.2,1.5241,1.5241,0,0,1-.75-1.31v-.37l-.32.19a1.544,1.544,0,0,1-1.52,0,1.5163,1.5163,0,0,1-.76-1.32v-8.98a1.5122,1.5122,0,0,1,.76-1.31l7.78-4.49a1.5033,1.5033,0,0,1,.76-.21,1.4766,1.4766,0,0,1,.76.21,1.5122,1.5122,0,0,1,.76,1.31v.37l.32-.18a1.4622,1.4622,0,0,1,1.51,0,1.5122,1.5122,0,0,1,.76,1.31v.37l.32-.19a1.544,1.544,0,0,1,1.52,0,1.5122,1.5122,0,0,1,.76,1.31v.37l.31-.18a1.525,1.525,0,0,1,1.51,0,1.5122,1.5122,0,0,1,.76,1.31Z" transform="translate(-59.6152 -68.3927)"/><path class="cls-1" d="M87.4852,91.9227v2.18h1.87v-2.18a3.275,3.275,0,1,0-1.87,0Z" transform="translate(-59.6152 -68.3927)"/><path class="cls-1" d="M106.8152,104.8027a1.5075,1.5075,0,0,1-1.3-.74,1.5483,1.5483,0,0,1-.2-.57,1.2371,1.2371,0,0,1,.01-.43,1.5162,1.5162,0,0,1,.61-1,1.3549,1.3549,0,0,1,.48-.24,12.2827,12.2827,0,0,0,2.36-1.02,9.9265,9.9265,0,0,0-8.44-4.7h-23.83a9.9026,9.9026,0,0,0-9.1,5.96,8.5814,8.5814,0,0,0-.38,1c-.1.33-.19.66-.26,1a10.6961,10.6961,0,0,0-.19,1.97v15.12c0,.13,0,.26.01.38.01.34.04.67.08,1a9.9338,9.9338,0,0,0,9.84,8.55h23.83a9.9414,9.9414,0,0,0,9.84-8.55c.04-.33.07-.66.08-1,.01-.12.01-.25.01-.38v-15.12a9.9236,9.9236,0,0,0-.12-1.55A16.3661,16.3661,0,0,1,106.8152,104.8027Zm-27.54,11.11a5.285,5.285,0,1,1,5.29-5.28A5.2878,5.2878,0,0,1,79.2752,115.9127Zm12.88,3.84a7.2076,7.2076,0,0,1-1.04.78,6.128,6.128,0,0,1-6.71,0,6.778,6.778,0,0,1-1.03-.78,1.0007,1.0007,0,0,1,1.39-1.44,4.2862,4.2862,0,0,0,5.99,0,1.0042,1.0042,0,1,1,1.4,1.44Zm5.45-3.84a5.285,5.285,0,1,1,5.28-5.28A5.2878,5.2878,0,0,1,97.6052,115.9127Z" transform="translate(-59.6152 -68.3927)"/><path class="cls-1" d="M79.2752,107.3527a3.275,3.275,0,1,0,3.28,3.28A3.267,3.267,0,0,0,79.2752,107.3527Z" transform="translate(-59.6152 -68.3927)"/><path class="cls-1" d="M97.6052,107.3527a3.275,3.275,0,1,0,3.27,3.28A3.2755,3.2755,0,0,0,97.6052,107.3527Z" transform="translate(-59.6152 -68.3927)"/><path class="cls-1" d="M122.4452,77.1027v-1.24l-7.79,4.49v8.98l1.08-.62v-6.87a1.5122,1.5122,0,0,1,.76-1.31Z" transform="translate(-59.6152 -68.3927)"/><path class="cls-1" d="M119.8452,75.6127v-1.25l-7.78,4.49v8.98l1.08-.63v-6.85a1.5122,1.5122,0,0,1,.76-1.31l5.19-3Z" transform="translate(-59.6152 -68.3927)"/><polygon class="cls-1" points="64.34 18.57 65.42 17.95 65.42 16.71 64.34 17.33 64.34 18.57"/><path class="cls-1" d="M125.0352,78.6027v-1.25l-7.78,4.49v8.99l1.08-.63v-6.86a1.5029,1.5029,0,0,1,.75-1.31Z" transform="translate(-59.6152 -68.3927)"/><polygon class="cls-1" points="60.23 14.95 60.23 23.94 62.83 22.44 62.82 16.45 62.83 16.45 68.01 13.45 68.01 10.46 60.23 14.95"/></svg>