<svg id="Layer_1" data-name="Layer 1" xmlns="http://www.w3.org/2000/svg" viewBox="0 0 173.205 200"><defs><style>.cls-1{fill:#d1eaf2;}.cls-2{fill:#9bd1e2;}.cls-3{fill:#80c4da;}.cls-4{fill:#65b7d2;}.cls-5{fill:#4aabca;}.cls-6{fill:#2f9ec2;}</style></defs><title>Reactome_Isotype_Positive</title><polygon class="cls-1" points="86.603 33.333 86.603 0 0 50 0 150 28.868 133.333 28.868 66.667 86.603 33.333"/><polygon class="cls-2" points="28.868 133.333 28.868 166.667 57.735 150 57.735 116.667 28.868 133.333"/><polygon class="cls-2" points="115.47 50 115.47 16.667 86.603 33.333 86.603 66.667 115.47 50"/><polygon class="cls-3" points="57.735 83.333 86.603 66.667 86.603 33.333 28.868 66.667 28.868 133.333 57.735 116.667 57.735 83.333"/><polygon class="cls-4" points="115.47 116.667 115.47 116.667 115.47 150 144.338 133.333 144.338 100 115.47 116.667 115.47 116.667"/><polygon class="cls-4" points="144.338 66.667 144.338 33.333 115.47 50 115.47 83.333 144.338 66.667"/><polygon class="cls-4" points="57.735 150 57.735 183.333 86.603 166.667 86.603 133.333 57.735 150"/><polygon class="cls-5" points="86.603 100 115.47 83.333 115.47 50 86.603 66.667 86.603 100 57.735 116.667 57.735 150 86.603 133.333 86.603 100"/><polygon class="cls-6" points="57.735 83.333 57.735 116.667 86.603 100 86.603 66.667 57.735 83.333"/><polygon class="cls-6" points="144.338 66.667 115.47 83.333 86.603 100 86.603 133.333 86.603 166.667 86.603 200 115.47 183.333 115.47 150 115.47 116.667 115.47 116.667 115.47 116.667 144.338 100 173.205 83.333 173.205 50 144.338 66.667"/></svg>