<svg id="Layer_1" data-name="Layer 1" xmlns="http://www.w3.org/2000/svg" viewBox="0 0 200 46.401"><defs><style>.cls-1{fill:#fff;}.cls-2{fill:#65b7d2;}.cls-3{fill:#9bd1e2;}.cls-4{fill:#b6deea;}.cls-5{fill:#d1eaf2;}.cls-6{fill:#e8f4f9;}</style></defs><title>Reactome_Imagotype_Negative</title><path class="cls-1" d="M56.8,94.765a1,1,0,0,1-.338.757.975.975,0,0,1-.564.145,5.764,5.764,0,0,1-.757-.064,6.01,6.01,0,0,0-3.656.612,4.986,4.986,0,0,0-1.965,1.869,5.133,5.133,0,0,0-.708,2.674v9.794a.97.97,0,0,1-.258.692.926.926,0,0,1-.709.274.936.936,0,0,1-.967-.966V94.862a.927.927,0,0,1,.274-.709.972.972,0,0,1,.693-.258.892.892,0,0,1,.967.967v2a6.842,6.842,0,0,1,2.384-2.32,6.2,6.2,0,0,1,3.157-.838Q56.8,93.7,56.8,94.765Z" transform="translate(0 -76.8)"/><path class="cls-1" d="M70.576,94.846a7.67,7.67,0,0,1,2.883,3.076A9.5,9.5,0,0,1,74.49,102.4a.862.862,0,0,1-.258.66.949.949,0,0,1-.677.242h-13.5a7.186,7.186,0,0,0,1,3.4,6.376,6.376,0,0,0,2.416,2.335,6.863,6.863,0,0,0,3.383.838,7.787,7.787,0,0,0,2.529-.435A5.4,5.4,0,0,0,71.4,108.3a1.07,1.07,0,0,1,.677-.258.848.848,0,0,1,.644,1.482,8.172,8.172,0,0,1-2.69,1.547,9.163,9.163,0,0,1-3.173.612,8.884,8.884,0,0,1-4.527-1.144,8.139,8.139,0,0,1-3.108-3.189,9.407,9.407,0,0,1-1.128-4.623,10.071,10.071,0,0,1,1.047-4.655,7.8,7.8,0,0,1,2.931-3.189,8.128,8.128,0,0,1,4.3-1.144A8.014,8.014,0,0,1,70.576,94.846Zm-8.441,2.368a7.087,7.087,0,0,0-2.046,4.413H72.622a6.72,6.72,0,0,0-1.933-4.413,5.912,5.912,0,0,0-4.317-1.675A5.845,5.845,0,0,0,62.136,97.214Z" transform="translate(0 -76.8)"/><path class="cls-1" d="M90.662,94.878A8.53,8.53,0,0,1,93.9,98.115a9.132,9.132,0,0,1,1.176,4.607v7.828a.97.97,0,0,1-.258.692.926.926,0,0,1-.709.274.937.937,0,0,1-.967-.966v-2.513a7.492,7.492,0,0,1-2.915,2.69,8.694,8.694,0,0,1-4.14.983,9.126,9.126,0,0,1-4.607-1.176,8.515,8.515,0,0,1-3.238-3.238,9.547,9.547,0,0,1,0-9.181,8.524,8.524,0,0,1,3.238-3.238,9.547,9.547,0,0,1,9.181,0ZM89.7,108.972a6.7,6.7,0,0,0,2.529-2.577,7.805,7.805,0,0,0,0-7.345A6.826,6.826,0,0,0,89.7,96.456a7.076,7.076,0,0,0-9.762,2.593,7.687,7.687,0,0,0,0,7.345,6.815,6.815,0,0,0,2.545,2.577,7.436,7.436,0,0,0,7.216,0Z" transform="translate(0 -76.8)"/><path class="cls-1" d="M103.226,110.534a8.417,8.417,0,0,1-3.141-3.238,9.263,9.263,0,0,1-1.144-4.574A9.805,9.805,0,0,1,100,98.132a8.1,8.1,0,0,1,2.964-3.222,7.92,7.92,0,0,1,4.252-1.176,8.731,8.731,0,0,1,3.769.805,8.293,8.293,0,0,1,2.964,2.384,1.027,1.027,0,0,1,.226.548.788.788,0,0,1-.451.708.77.77,0,0,1-.515.193.888.888,0,0,1-.741-.387,6.565,6.565,0,0,0-5.251-2.449,5.961,5.961,0,0,0-5.557,3.479,8.448,8.448,0,0,0-.789,3.7,7.724,7.724,0,0,0,.87,3.672,6.5,6.5,0,0,0,2.416,2.577,6.715,6.715,0,0,0,3.544.934,6.427,6.427,0,0,0,4.542-1.578.928.928,0,0,1,.677-.29.787.787,0,0,1,.58.226.919.919,0,0,1,.322.709.735.735,0,0,1-.258.58,8,8,0,0,1-2.642,1.595,9.168,9.168,0,0,1-3.222.564A8.652,8.652,0,0,1,103.226,110.534Z" transform="translate(0 -76.8)"/><path class="cls-1" d="M127.694,109.826a.982.982,0,0,1,.274.725.939.939,0,0,1-.274.692.98.98,0,0,1-.725.274h-.741a6.163,6.163,0,0,1-3.157-.805,5.68,5.68,0,0,1-2.159-2.207,6.458,6.458,0,0,1-.773-3.173V96.279h-2.513a.87.87,0,1,1,0-1.74h2.513V89.288a.981.981,0,0,1,.274-.725.941.941,0,0,1,.693-.274.941.941,0,0,1,1,1v5.251h4.252a.87.87,0,1,1,0,1.74H122.1v9.053a4.15,4.15,0,0,0,1.16,3.044,4.025,4.025,0,0,0,3,1.176h.709A.982.982,0,0,1,127.694,109.826Z" transform="translate(0 -76.8)"/><path class="cls-1" d="M135.441,110.534A8.515,8.515,0,0,1,132.2,107.3a9.547,9.547,0,0,1,0-9.181,8.524,8.524,0,0,1,3.238-3.238,9.547,9.547,0,0,1,9.181,0,8.53,8.53,0,0,1,3.238,3.238,9.547,9.547,0,0,1,0,9.181,8.521,8.521,0,0,1-3.238,3.238,9.547,9.547,0,0,1-9.181,0Zm8.215-1.562a6.7,6.7,0,0,0,2.529-2.577,7.805,7.805,0,0,0,0-7.345,6.826,6.826,0,0,0-2.529-2.593,7.076,7.076,0,0,0-9.762,2.593,7.687,7.687,0,0,0,0,7.345,6.815,6.815,0,0,0,2.545,2.577,7.436,7.436,0,0,0,7.216,0Z" transform="translate(0 -76.8)"/><path class="cls-1" d="M175.9,94.636a6.465,6.465,0,0,1,2.352,2.69,8.85,8.85,0,0,1,.837,3.914v9.31a.969.969,0,0,1-.258.692.925.925,0,0,1-.708.274.936.936,0,0,1-.967-.966v-9.31a6.114,6.114,0,0,0-1.321-4.059,4.215,4.215,0,0,0-3.383-1.578,4.751,4.751,0,0,0-3.64,1.482,5.306,5.306,0,0,0-1.321,3.93v9.536a.969.969,0,0,1-.258.692.925.925,0,0,1-.708.274.936.936,0,0,1-.967-.966v-9.31a6.114,6.114,0,0,0-1.321-4.059,4.215,4.215,0,0,0-3.383-1.578,4.857,4.857,0,0,0-5.058,5.09v9.858a.97.97,0,0,1-.258.692.926.926,0,0,1-.709.274.936.936,0,0,1-.967-.966V94.862a.927.927,0,0,1,.274-.709.972.972,0,0,1,.693-.258.892.892,0,0,1,.967.967v1.256a6.249,6.249,0,0,1,2.223-1.8,6.382,6.382,0,0,1,2.835-.644,6.232,6.232,0,0,1,3.35.918,6.6,6.6,0,0,1,2.352,2.529,6.44,6.44,0,0,1,2.416-2.529,6.686,6.686,0,0,1,3.479-.918A6.269,6.269,0,0,1,175.9,94.636Z" transform="translate(0 -76.8)"/><path class="cls-1" d="M196.086,94.846a7.67,7.67,0,0,1,2.883,3.076A9.5,9.5,0,0,1,200,102.4a.862.862,0,0,1-.258.66.949.949,0,0,1-.677.242h-13.5a7.186,7.186,0,0,0,1,3.4,6.376,6.376,0,0,0,2.416,2.335,6.863,6.863,0,0,0,3.383.838,7.787,7.787,0,0,0,2.529-.435,5.4,5.4,0,0,0,2.013-1.144,1.07,1.07,0,0,1,.677-.258.848.848,0,0,1,.644,1.482,8.172,8.172,0,0,1-2.69,1.547,9.163,9.163,0,0,1-3.173.612,8.884,8.884,0,0,1-4.527-1.144,8.139,8.139,0,0,1-3.108-3.189,9.407,9.407,0,0,1-1.128-4.623,10.071,10.071,0,0,1,1.047-4.655,7.8,7.8,0,0,1,2.931-3.189,8.128,8.128,0,0,1,4.3-1.144A8.014,8.014,0,0,1,196.086,94.846Zm-8.441,2.368a7.087,7.087,0,0,0-2.046,4.413h12.532a6.72,6.72,0,0,0-1.933-4.413,5.912,5.912,0,0,0-4.317-1.675A5.845,5.845,0,0,0,187.645,97.214Z" transform="translate(0 -76.8)"/><polygon class="cls-2" points="20.092 7.733 20.092 0 0 11.6 0 34.801 6.697 30.934 6.697 15.467 20.092 7.733"/><polygon class="cls-3" points="6.697 30.934 6.697 38.667 13.395 34.801 13.395 27.067 6.697 30.934"/><polygon class="cls-3" points="26.79 11.6 26.79 3.867 20.092 7.733 20.092 15.467 26.79 11.6"/><polygon class="cls-4" points="13.395 19.334 20.092 15.467 20.092 7.733 6.697 15.467 6.697 30.934 13.395 27.067 13.395 19.334"/><polygon class="cls-5" points="26.79 27.067 26.79 27.067 26.79 34.801 33.487 30.934 33.487 23.2 26.79 27.067 26.79 27.067"/><polygon class="cls-5" points="33.487 15.467 33.487 7.733 26.79 11.6 26.79 19.334 33.487 15.467"/><polygon class="cls-5" points="13.395 34.801 13.395 42.534 20.092 38.667 20.092 30.934 13.395 34.801"/><polygon class="cls-6" points="20.092 23.2 26.79 19.334 26.79 11.6 20.092 15.467 20.092 23.2 13.395 27.067 13.395 34.801 20.092 30.934 20.092 23.2"/><polygon class="cls-1" points="13.395 19.334 13.395 27.067 20.092 23.2 20.092 15.467 13.395 19.334"/><polygon class="cls-1" points="33.487 15.467 26.79 19.334 20.092 23.2 20.092 30.934 20.092 38.667 20.092 46.401 26.79 42.534 26.79 34.801 26.79 27.067 26.79 27.067 26.79 27.067 33.487 23.2 40.184 19.334 40.184 11.6 33.487 15.467"/></svg>