
<svg contentScriptType="text/ecmascript" width="806.000"
     xmlns:xlink="http://www.w3.org/1999/xlink" zoomAndPan="magnify"
     contentStyleType="text/css" height="563.153" viewBox="0 0 806.000 563.153"
     id="Layer_1" data-name="Layer 1" preserveAspectRatio="xMidYMid meet"
     xmlns="http://www.w3.org/2000/svg" version="1.0">
    <defs>
        <style xml:space="preserve">.cls-1{fill:url(#radial-gradient);}.cls-2,.cls-4,.cls-5,.cls-6{fill:none;stroke-width:8px;}.cls-2,.cls-20,.cls-33,.cls-34,.cls-4,.cls-5,.cls-6{stroke-miterlimit:10;}.cls-2{stroke:url(#linear-gradient);}.cls-3{fill:#0052af;}.cls-4{stroke:url(#linear-gradient-2);}.cls-5{stroke:url(#linear-gradient-3);}.cls-6{stroke:url(#linear-gradient-4);}.cls-7{opacity:0.5;}.cls-8{fill:#2f9ec2;}.cls-9{fill:#d1eaf2;}.cls-10{fill:#9bd1e2;}.cls-11{fill:#80c4da;}.cls-12{fill:#65b7d2;}.cls-13{fill:#4aabca;}.cls-14,.cls-17,.cls-21,.cls-24,.cls-29{fill:#fff;}.cls-14,.cls-27{opacity:0;}.cls-15{fill:url(#linear-gradient-5);}.cls-16{fill:#00a800;}.cls-17,.cls-21,.cls-24{font-size:12px;}.cls-17,.cls-21,.cls-24,.cls-29{font-family: Arial;font-weight:700;}.cls-18{fill:url(#linear-gradient-6);}.cls-19{fill:#d32976;}.cls-20{stroke:#bf728e;fill:url(#linear-gradient-7);}.cls-20,.cls-33,.cls-34{stroke-width:2px;}.cls-21,.cls-24,.cls-29{isolation:isolate;}.cls-22,.cls-24{letter-spacing:-0.018em;}.cls-23{fill:url(#linear-gradient-8);}.cls-25{fill:#a8602a;}.cls-26{fill:#0f82bc;}.cls-28{fill:#c6c6c6;}.cls-29{font-size:9px;}.cls-30{fill:url(#linear-gradient-9);}.cls-31{fill:#536bd5;}.cls-32{fill:url(#linear-gradient-10);}.cls-33,.cls-34{stroke:#7b2520;}.cls-33{fill:url(#linear-gradient-11);}.cls-34{fill:url(#linear-gradient-12);}</style><radialGradient gradientTransform="translate(-293.428 26.678) scale(1 0.629)"
                        xmlns:xlink="http://www.w3.org/1999/xlink"
                        gradientUnits="userSpaceOnUse" xlink:type="simple"
                        r="371.298" xlink:actuate="onLoad" cx="681.428"
                        cy="381.207" id="radial-gradient" xlink:show="other">
            <stop stop-color="#ffe9a3" offset="0"/>
            <stop stop-color="#ffeeb8" offset="0.172"/>
            <stop stop-color="#fff7de" offset="0.533"/>
            <stop stop-color="#fffdf6" offset="0.821"/>
            <stop stop-color="#fff" offset="1"/>
        </radialGradient>
        <linearGradient gradientTransform="translate(596.81 1574.254) rotate(-117.541)"
                        x1="931.398" xmlns:xlink="http://www.w3.org/1999/xlink"
                        gradientUnits="userSpaceOnUse" x2="997.061" y1="748.789"
                        y2="748.789" xlink:type="simple" xlink:actuate="onLoad"
                        id="linear-gradient" xlink:show="other">
            <stop stop-color="#0052af" offset="0.085"/>
            <stop stop-color="#9cdaff" offset="1"/>
        </linearGradient>
        <linearGradient gradientTransform="translate(589.611 -237.852) rotate(62.459)"
                        x1="491.868" xmlns:xlink="http://www.w3.org/1999/xlink"
                        xlink:href="#linear-gradient" x2="557.531" y1="324.312"
                        y2="324.312" xlink:type="simple" xlink:actuate="onLoad"
                        id="linear-gradient-2" xlink:show="other"/>
        <linearGradient gradientTransform="translate(1050.11 -299.669) rotate(90)"
                        x1="590.472" xmlns:xlink="http://www.w3.org/1999/xlink"
                        gradientUnits="userSpaceOnUse" x2="759.338" y1="279.407"
                        y2="279.407" xlink:type="simple" xlink:actuate="onLoad"
                        id="linear-gradient-3" xlink:show="other">
            <stop stop-color="#9cdaff" offset="0"/>
            <stop stop-color="#0052af" offset="0.95"/>
        </linearGradient>
        <linearGradient gradientTransform="translate(386.339 1642.567) rotate(-90)"
                        x1="1182.67" xmlns:xlink="http://www.w3.org/1999/xlink"
                        xlink:href="#linear-gradient-3" x2="1351.536"
                        y1="202.147" y2="202.147" xlink:type="simple"
                        xlink:actuate="onLoad" id="linear-gradient-4"
                        xlink:show="other"/>
        <linearGradient gradientTransform="translate(-181.04 -11.308)"
                        x1="741.196" xmlns:xlink="http://www.w3.org/1999/xlink"
                        gradientUnits="userSpaceOnUse" x2="741.196" y1="252.343"
                        y2="232.343" xlink:type="simple" xlink:actuate="onLoad"
                        id="linear-gradient-5" xlink:show="other">
            <stop stop-color="#536bd5" offset="0"/>
            <stop stop-color="#00a800" offset="0.999"/>
        </linearGradient>
        <linearGradient gradientTransform="translate(-260.081 -182.239)"
                        x1="625.247" xmlns:xlink="http://www.w3.org/1999/xlink"
                        gradientUnits="userSpaceOnUse" x2="625.247" y1="381.329"
                        y2="361.329" xlink:type="simple" xlink:actuate="onLoad"
                        id="linear-gradient-6" xlink:show="other">
            <stop stop-color="#536bd5" offset="0"/>
            <stop stop-color="#d32976" offset="1"/>
        </linearGradient>
        <linearGradient gradientTransform="translate(-203.717 -182.425)"
                        x1="610.883" xmlns:xlink="http://www.w3.org/1999/xlink"
                        gradientUnits="userSpaceOnUse" x2="610.883" y1="385.516"
                        y2="357.516" xlink:type="simple" xlink:actuate="onLoad"
                        id="linear-gradient-7" xlink:show="other">
            <stop stop-color="#bf728e" offset="0"/>
            <stop stop-color="#7b2520" offset="1"/>
        </linearGradient>
        <linearGradient gradientTransform="matrix(1, 0, 0, -1, -170.98, 842.481)"
                        x1="730.873" xmlns:xlink="http://www.w3.org/1999/xlink"
                        gradientUnits="userSpaceOnUse" x2="730.8" y1="534.08"
                        y2="520.97" xlink:type="simple" xlink:actuate="onLoad"
                        id="linear-gradient-8" xlink:show="other">
            <stop stop-color="#8b0068" offset="0"/>
            <stop stop-color="#8f0466" offset="0.02"/>
            <stop stop-color="#aa2357" offset="0.187"/>
            <stop stop-color="#bf3b4c" offset="0.363"/>
            <stop stop-color="#ce4c43" offset="0.548"/>
            <stop stop-color="#d7563f" offset="0.751"/>
            <stop stop-color="#da593d" offset="1"/>
        </linearGradient>
        <linearGradient gradientTransform="translate(-520.694 -178.417)"
                        x1="731.752" xmlns:xlink="http://www.w3.org/1999/xlink"
                        gradientUnits="userSpaceOnUse" x2="731.752" y1="503.177"
                        y2="483.177" xlink:type="simple" xlink:actuate="onLoad"
                        id="linear-gradient-9" xlink:show="other">
            <stop stop-color="#0c9f1f" offset="0"/>
            <stop stop-color="#536bd5" offset="1"/>
        </linearGradient>
        <linearGradient gradientTransform="translate(-432.094 -10.226)"
                        x1="837.261" xmlns:xlink="http://www.w3.org/1999/xlink"
                        xlink:href="#linear-gradient-6" x2="837.261"
                        y1="381.329" y2="361.329" xlink:type="simple"
                        xlink:actuate="onLoad" id="linear-gradient-10"
                        xlink:show="other"/>
        <linearGradient gradientTransform="translate(-375.73 -10.412)"
                        x1="738.896" xmlns:xlink="http://www.w3.org/1999/xlink"
                        xlink:href="#linear-gradient-7" x2="738.896"
                        y1="357.516" y2="385.516" xlink:type="simple"
                        xlink:actuate="onLoad" id="linear-gradient-11"
                        xlink:show="other"/>
        <linearGradient gradientTransform="translate(-370.461 -272.471)"
                        x1="581.519" xmlns:xlink="http://www.w3.org/1999/xlink"
                        xlink:href="#linear-gradient-7" x2="581.519"
                        y1="489.506" y2="517.506" xlink:type="simple"
                        xlink:actuate="onLoad" id="linear-gradient-12"
                        xlink:show="other"/>
        <filter x="-25%" y="-25%" width="150%"
                xmlns:xlink="http://www.w3.org/1999/xlink"
                style="color-interpolation-filters:sRGB" xlink:type="simple"
                xlink:actuate="onLoad" id="selection-filter" height="150%"
                xlink:show="other">
            <feColorMatrix values="0.0 0.0 0.0 0.0 0.0 0.0 0.0 0.0 0.0 0.0 0.0 0.0 0.0 1.0 0.0 0.0 0.0 0.0 1.0 0.0"
                           type="matrix" result="selection1" in="SourceGraphic"/>
            <feMorphology operator="dilate" result="selection2" in="selection1"
                          radius="4.0"/>
            <feMerge result="selectionResult">
                <feMergeNode in="selection2"/>
                <feMergeNode in="SourceGraphic"/>
            </feMerge>
        </filter>
        <filter x="-25%" y="-25%" width="150%"
                xmlns:xlink="http://www.w3.org/1999/xlink"
                style="color-interpolation-filters:sRGB" xlink:type="simple"
                xlink:actuate="onLoad" id="flag-filter" height="150%"
                xlink:show="other">
            <feColorMatrix values="0.0 0.0 0.0 1.0 0.0 0.0 0.0 0.0 0.0 0.0 0.0 0.0 0.0 1.0 0.0 0.0 0.0 0.0 1.0 0.0"
                           type="matrix" result="flag1" in="SourceGraphic"/>
            <feMorphology operator="dilate" result="flag2" in="flag1"
                          radius="7.0"/>
            <feMerge result="flagResult">
                <feMergeNode in="flag2"/>
                <feMergeNode in="SourceGraphic"/>
            </feMerge>
        </filter>
        <filter xlink:actuate="onLoad" xlink:type="simple"
                id="selection-flag-filter" xlink:show="other"
                style="color-interpolation-filters:sRGB"
                xmlns:xlink="http://www.w3.org/1999/xlink">
            <feColorMatrix values="0.0 0.0 0.0 1.0 0.0 0.0 0.0 0.0 0.0 0.0 0.0 0.0 0.0 1.0 0.0 0.0 0.0 0.0 1.0 0.0"
                           type="matrix" result="flag1" in="SourceGraphic"/>
            <feMorphology operator="dilate" result="flag2" in="flag1"
                          radius="7.0"/>
            <feMerge result="flagResult">
                <feMergeNode in="flag2"/>
                <feMergeNode in="SourceGraphic"/>
            </feMerge>
            <feColorMatrix values="0.0 0.0 0.0 0.0 0.0 0.0 0.0 0.0 0.0 0.0 0.0 0.0 0.0 1.0 0.0 0.0 0.0 0.0 1.0 0.0"
                           type="matrix" result="selection1" in="SourceGraphic"/>
            <feMorphology operator="dilate" result="selection2" in="selection1"
                          radius="4.0"/>
            <feMerge result="selectionResult">
                <feMergeNode in="selection2"/>
                <feMergeNode in="SourceGraphic"/>
            </feMerge>
            <feMerge>
                <feMergeNode in="flagResult"/>
                <feMergeNode in="selectionResult"/>
            </feMerge>
        </filter>
    </defs>
    <title>
        R-HSA-9007101
    </title>
    <g transform="translate(15.000000,15.000000)">
        <g id="BG">
            <ellipse rx="388" class="cls-1" cx="388" ry="266.576" id="BG-2"
                     cy="266.576" data-name="BG"/>
            <g id="ARROWS">
                <g id="R-ICO-012348">
                    <path class="cls-2"
                          d="M822.024,336.834A42.15,42.15,0,0,0,815.9,407.66"
                          transform="translate(-293.428 -100.123)"/>
                    <polygon class="cls-3"
                             points="526.825 301.238 529.65 313.451 517.117 313.169 526.825 301.238"/>
                </g>
                <g id="R-ICO-012348-2" data-name="R-ICO-012348">
                    <path class="cls-4"
                          d="M537.541,413.575a42.15,42.15,0,0,0,6.126-70.826"
                          transform="translate(-293.428 -100.123)"/>
                    <polygon class="cls-3"
                             points="245.884 248.925 243.058 236.711 255.592 236.993 245.884 248.925"/>
                </g>
                <g id="R-ICO-012348-3" data-name="R-ICO-012348">
                    <path class="cls-5"
                          d="M739.6,455.847a84.425,84.425,0,0,0,.093-161.226"
                          transform="translate(-293.428 -100.123)"/>
                    <polygon class="cls-3"
                             points="451.597 362.159 440.033 357.319 447.581 347.31 451.597 362.159"/>
                </g>
                <g id="R-ICO-012348-4" data-name="R-ICO-012348">
                    <path class="cls-6"
                          d="M619.59,294.852a84.425,84.425,0,0,0-.093,161.226"
                          transform="translate(-293.428 -100.123)"/>
                    <polygon class="cls-3"
                             points="320.736 188.294 332.3 193.133 324.752 203.142 320.736 188.294"/>
                </g>
            </g>
            <g class="cls-7" id="LOGO">
                <path class="cls-8"
                      d="M950.845,146.513a.5.5,0,0,1-.169.379.487.487,0,0,1-.282.072,2.882,2.882,0,0,1-.379-.032,3.005,3.005,0,0,0-1.828.306,2.493,2.493,0,0,0-.983.934,2.567,2.567,0,0,0-.354,1.337v4.9a.485.485,0,0,1-.129.346.463.463,0,0,1-.354.137.468.468,0,0,1-.483-.483v-7.845a.464.464,0,0,1,.137-.354.486.486,0,0,1,.346-.129.446.446,0,0,1,.483.483v1a3.421,3.421,0,0,1,1.192-1.16,3.1,3.1,0,0,1,1.578-.419Q950.845,145.982,950.845,146.513Z"
                      transform="translate(-293.428 -100.123)"/>
                <path class="cls-8"
                      d="M957.731,146.554a3.835,3.835,0,0,1,1.442,1.538,4.75,4.75,0,0,1,.515,2.239.431.431,0,0,1-.129.33.475.475,0,0,1-.338.121h-6.749a3.593,3.593,0,0,0,.5,1.7,3.188,3.188,0,0,0,1.208,1.168,3.431,3.431,0,0,0,1.691.419,3.893,3.893,0,0,0,1.264-.217,2.7,2.7,0,0,0,1.007-.572.535.535,0,0,1,.338-.129.424.424,0,0,1,.322.741,4.086,4.086,0,0,1-1.345.773,4.581,4.581,0,0,1-1.587.306,4.442,4.442,0,0,1-2.263-.572,4.07,4.07,0,0,1-1.554-1.595,4.7,4.7,0,0,1-.564-2.311,5.035,5.035,0,0,1,.524-2.328,3.9,3.9,0,0,1,1.466-1.595,4.064,4.064,0,0,1,2.15-.572A4.007,4.007,0,0,1,957.731,146.554Zm-4.22,1.184a3.544,3.544,0,0,0-1.023,2.207h6.266a3.36,3.36,0,0,0-.967-2.207,2.956,2.956,0,0,0-2.158-.838A2.923,2.923,0,0,0,953.511,147.737Z"
                      transform="translate(-293.428 -100.123)"/>
                <path class="cls-8"
                      d="M967.774,146.57a4.265,4.265,0,0,1,1.619,1.619,4.566,4.566,0,0,1,.588,2.3v3.914a.485.485,0,0,1-.129.346.463.463,0,0,1-.354.137.468.468,0,0,1-.483-.483v-1.257a3.746,3.746,0,0,1-1.458,1.345,4.347,4.347,0,0,1-2.07.491,4.563,4.563,0,0,1-2.3-.588,4.257,4.257,0,0,1-1.619-1.619,4.773,4.773,0,0,1,0-4.591,4.262,4.262,0,0,1,1.619-1.619,4.773,4.773,0,0,1,4.591,0Zm-.483,7.047a3.352,3.352,0,0,0,1.264-1.289,3.9,3.9,0,0,0,0-3.673,3.413,3.413,0,0,0-1.264-1.3,3.538,3.538,0,0,0-4.881,1.3,3.844,3.844,0,0,0,0,3.673,3.408,3.408,0,0,0,1.273,1.289,3.718,3.718,0,0,0,3.608,0Z"
                      transform="translate(-293.428 -100.123)"/>
                <path class="cls-8"
                      d="M974.056,154.4a4.208,4.208,0,0,1-1.57-1.619,4.631,4.631,0,0,1-.572-2.287,4.9,4.9,0,0,1,.532-2.3,4.05,4.05,0,0,1,1.482-1.611,3.96,3.96,0,0,1,2.126-.588,4.365,4.365,0,0,1,1.885.4,4.147,4.147,0,0,1,1.482,1.192.514.514,0,0,1,.113.274.394.394,0,0,1-.226.354.385.385,0,0,1-.258.1.444.444,0,0,1-.37-.193,3.282,3.282,0,0,0-2.626-1.224,2.98,2.98,0,0,0-2.779,1.74,4.224,4.224,0,0,0-.395,1.852,3.862,3.862,0,0,0,.435,1.836,3.25,3.25,0,0,0,1.208,1.289,3.357,3.357,0,0,0,1.772.467,3.213,3.213,0,0,0,2.271-.789.464.464,0,0,1,.338-.145.393.393,0,0,1,.29.113.46.46,0,0,1,.161.354.367.367,0,0,1-.129.29,4,4,0,0,1-1.321.8,4.584,4.584,0,0,1-1.611.282A4.326,4.326,0,0,1,974.056,154.4Z"
                      transform="translate(-293.428 -100.123)"/>
                <path class="cls-8"
                      d="M986.29,154.044a.491.491,0,0,1,.137.362.47.47,0,0,1-.137.346.49.49,0,0,1-.362.137h-.37a3.082,3.082,0,0,1-1.578-.4,2.84,2.84,0,0,1-1.079-1.1,3.229,3.229,0,0,1-.387-1.587V147.27h-1.256a.435.435,0,1,1,0-.87h1.256v-2.626a.491.491,0,0,1,.137-.362.47.47,0,0,1,.346-.137.471.471,0,0,1,.5.5V146.4h2.126a.435.435,0,1,1,0,.87H983.5V151.8a2.075,2.075,0,0,0,.58,1.522,2.012,2.012,0,0,0,1.5.588h.354A.491.491,0,0,1,986.29,154.044Z"
                      transform="translate(-293.428 -100.123)"/>
                <path class="cls-8"
                      d="M990.164,154.4a4.257,4.257,0,0,1-1.619-1.619,4.773,4.773,0,0,1,0-4.591,4.262,4.262,0,0,1,1.619-1.619,4.773,4.773,0,0,1,4.591,0,4.265,4.265,0,0,1,1.619,1.619,4.773,4.773,0,0,1,0,4.591,4.26,4.26,0,0,1-1.619,1.619,4.773,4.773,0,0,1-4.591,0Zm4.108-.781a3.352,3.352,0,0,0,1.264-1.289,3.9,3.9,0,0,0,0-3.673,3.413,3.413,0,0,0-1.264-1.3,3.538,3.538,0,0,0-4.881,1.3,3.844,3.844,0,0,0,0,3.673,3.408,3.408,0,0,0,1.273,1.289,3.718,3.718,0,0,0,3.608,0Z"
                      transform="translate(-293.428 -100.123)"/>
                <path class="cls-8"
                      d="M1010.395,146.449a3.233,3.233,0,0,1,1.176,1.345,4.425,4.425,0,0,1,.419,1.957v4.655a.484.484,0,0,1-.129.346.462.462,0,0,1-.354.137.468.468,0,0,1-.483-.483v-4.655a3.057,3.057,0,0,0-.661-2.03,2.108,2.108,0,0,0-1.691-.789,2.375,2.375,0,0,0-1.82.741,2.653,2.653,0,0,0-.661,1.965v4.768a.484.484,0,0,1-.129.346.462.462,0,0,1-.354.137.468.468,0,0,1-.483-.483v-4.655a3.057,3.057,0,0,0-.661-2.03,2.108,2.108,0,0,0-1.691-.789,2.428,2.428,0,0,0-2.529,2.545v4.929a.485.485,0,0,1-.129.346.463.463,0,0,1-.354.137.468.468,0,0,1-.483-.483v-7.845a.464.464,0,0,1,.137-.354.486.486,0,0,1,.346-.129.446.446,0,0,1,.483.483v.628a3.125,3.125,0,0,1,1.111-.9,3.191,3.191,0,0,1,1.417-.322,3.116,3.116,0,0,1,1.675.459,3.3,3.3,0,0,1,1.176,1.264,3.22,3.22,0,0,1,1.208-1.264,3.343,3.343,0,0,1,1.74-.459A3.135,3.135,0,0,1,1010.395,146.449Z"
                      transform="translate(-293.428 -100.123)"/>
                <path class="cls-8"
                      d="M1020.486,146.554a3.835,3.835,0,0,1,1.442,1.538,4.75,4.75,0,0,1,.515,2.239.431.431,0,0,1-.129.33.475.475,0,0,1-.338.121h-6.749a3.593,3.593,0,0,0,.5,1.7,3.188,3.188,0,0,0,1.208,1.168,3.432,3.432,0,0,0,1.691.419,3.893,3.893,0,0,0,1.264-.217,2.7,2.7,0,0,0,1.007-.572.535.535,0,0,1,.338-.129.424.424,0,0,1,.322.741,4.086,4.086,0,0,1-1.345.773,4.581,4.581,0,0,1-1.587.306,4.442,4.442,0,0,1-2.263-.572,4.07,4.07,0,0,1-1.554-1.595,4.7,4.7,0,0,1-.564-2.311,5.035,5.035,0,0,1,.524-2.328,3.9,3.9,0,0,1,1.466-1.595,4.064,4.064,0,0,1,2.15-.572A4.007,4.007,0,0,1,1020.486,146.554Zm-4.22,1.184a3.544,3.544,0,0,0-1.023,2.207h6.266a3.36,3.36,0,0,0-.967-2.207,2.956,2.956,0,0,0-2.158-.838A2.923,2.923,0,0,0,1016.266,147.737Z"
                      transform="translate(-293.428 -100.123)"/>
                <polygon class="cls-9"
                         points="639.061 41.274 639.061 37.407 629.015 43.207 629.015 54.807 632.364 52.874 632.364 45.141 639.061 41.274"/>
                <polygon class="cls-10"
                         points="632.364 52.874 632.364 56.741 635.713 54.807 635.713 50.941 632.364 52.874"/>
                <polygon class="cls-10"
                         points="642.41 43.207 642.41 39.341 639.061 41.274 639.061 45.141 642.41 43.207"/>
                <polygon class="cls-11"
                         points="635.713 47.074 639.061 45.141 639.061 41.274 632.364 45.141 632.364 52.874 635.713 50.941 635.713 47.074"/>
                <polygon class="cls-12"
                         points="642.41 50.941 642.41 50.941 642.41 54.808 645.759 52.874 645.759 49.007 642.41 50.941 642.41 50.941"/>
                <polygon class="cls-12"
                         points="645.759 45.141 645.759 41.274 642.41 43.207 642.41 47.074 645.759 45.141"/>
                <polygon class="cls-12"
                         points="635.713 54.807 635.713 58.674 639.061 56.741 639.061 52.874 635.713 54.807"/>
                <polygon class="cls-13"
                         points="639.061 49.007 642.41 47.074 642.41 43.207 639.061 45.141 639.061 49.007 635.713 50.941 635.713 54.807 639.061 52.874 639.061 49.007"/>
                <polygon class="cls-8"
                         points="635.713 47.074 635.713 50.941 639.061 49.007 639.061 45.141 635.713 47.074"/>
                <polygon class="cls-8"
                         points="645.759 45.141 642.41 47.074 639.061 49.007 639.061 52.874 639.061 56.741 639.061 60.608 642.41 58.674 642.41 54.808 642.41 50.941 642.41 50.941 642.41 50.941 645.759 49.007 649.107 47.074 649.107 43.207 645.759 45.141"/>
            </g>
        </g>
        <g id="REGION-R-HSA-8854214">
            <polygon class="cls-14"
                     points="643.172 124.328 473.172 124.328 296.467 131.675 326.518 278.039 445.815 278.039 445.815 410.877 598.572 410.877 643.172 124.328"
                     id="MASK"/>
            <g id="R-ICO-012750">
                <rect x="538.155" y="221.035" width="44" rx="10" class="cls-15"
                      ry="10" height="20"/>
                <path class="cls-16"
                      d="M865.583,341.309c-4.616-.009-9.231.43-13.847.837-2.308.205-4.616.388-6.923.457-1.17.051-2.273.086-3.5.081a11.083,11.083,0,0,1-3.922-.723,11.314,11.314,0,0,1-7.027-12.9,11.16,11.16,0,0,1,4.066-6.511,10.945,10.945,0,0,1,7.15-2.212c4.616.282,9.231.437,13.847.335,2.308-.059,4.616-.178,6.924-.341,1.165-.074,2.284-.169,3.486-.223a10.183,10.183,0,0,1,3.8.575,10.673,10.673,0,0,1,5.825,4.967,10.4,10.4,0,0,1,.875,7.52,11.014,11.014,0,0,1-4.136,5.967A11.519,11.519,0,0,1,865.583,341.309Zm0-.3a8.968,8.968,0,0,0,6.133-2.462,9.19,9.19,0,0,0,2.75-5.728,9.764,9.764,0,0,0-5.73-9.809,8.868,8.868,0,0,0-2.946-.777c-1.1-.1-2.294-.162-3.437-.246-2.308-.164-4.616-.282-6.924-.341-4.616-.1-9.231.053-13.847.335a9.318,9.318,0,0,0-5.609,2.42,9.109,9.109,0,0,0-2.82,5.184,8.635,8.635,0,0,0,1.07,5.666,8.834,8.834,0,0,0,4.334,3.73,7.948,7.948,0,0,0,2.829.629c1.082.042,2.288.043,3.426.1,2.308.069,4.616.252,6.923.457C856.352,340.579,860.968,341.017,865.583,341.009Z"
                      transform="translate(-293.428 -100.123)"/>
                <text class="cls-17" transform="translate(544.221 234.349)">
                    GAPs
                </text>
            </g>
            <g id="R-ICO-013272">
                <rect x="343.166" y="179.09" width="44" rx="10" class="cls-18"
                      ry="10" height="20"/>
                <path class="cls-19"
                      d="M670.594,299.364c-4.616-.009-9.231.43-13.847.837-2.308.205-4.616.388-6.923.457-1.17.051-2.273.086-3.5.081a11.084,11.084,0,0,1-3.922-.723,11.314,11.314,0,0,1-7.027-12.9,11.16,11.16,0,0,1,4.066-6.511,10.945,10.945,0,0,1,7.15-2.212c4.616.282,9.231.437,13.847.335,2.308-.059,4.616-.178,6.924-.341,1.165-.074,2.284-.169,3.486-.223a10.184,10.184,0,0,1,3.8.575,10.673,10.673,0,0,1,5.825,4.967,10.4,10.4,0,0,1,.875,7.52,11.014,11.014,0,0,1-4.136,5.967A11.519,11.519,0,0,1,670.594,299.364Zm0-.3a8.967,8.967,0,0,0,6.133-2.462,9.19,9.19,0,0,0,2.75-5.728,9.764,9.764,0,0,0-5.73-9.809,8.868,8.868,0,0,0-2.946-.777c-1.1-.1-2.294-.162-3.437-.246-2.308-.164-4.616-.282-6.924-.341-4.616-.1-9.231.053-13.847.335a9.318,9.318,0,0,0-5.609,2.42,9.109,9.109,0,0,0-2.82,5.184,8.635,8.635,0,0,0,1.07,5.666,8.834,8.834,0,0,0,4.334,3.73,7.947,7.947,0,0,0,2.829.629c1.082.042,2.288.043,3.426.1,2.308.069,4.616.252,6.923.457C661.363,298.634,665.979,299.072,670.594,299.064Z"
                      transform="translate(-293.428 -100.123)"/>
                <text class="cls-17" transform="translate(349.235 192.404)">
                    RABs
                </text>
            </g>
            <g id="R-ICO-012805">
                <polygon class="cls-20"
                         points="418.965 175.09 395.367 175.09 387.166 183.291 387.166 194.889 395.367 203.09 418.965 203.09 427.166 194.889 427.166 183.291 418.965 175.09"/>
                <text class="cls-21" transform="translate(394.941 192.552)">
                    GT
                    <tspan x="16.664" class="cls-22" y="0">
                        P
                    </tspan>
                </text>
            </g>
            <g id="R-ICO-013177">
                <circle r="6.849" class="cls-23" cx="559.858" cy="314.76"/>
                <text class="cls-24" transform="translate(556.101 318.847)">
                    P
                </text>
                <path class="cls-25"
                      d="M853.285,422.393a7.509,7.509,0,1,1,7.51-7.509A7.518,7.518,0,0,1,853.285,422.393Zm0-13.7a6.189,6.189,0,1,0,6.19,6.189A6.2,6.2,0,0,0,853.285,408.694Z"
                      transform="translate(-293.428 -100.123)"/>
            </g>
            <g id="OVERLAY-R-HSA-8854214">
                <rect x="473.172" y="106.44" width="170" rx="8" class="cls-26"
                      ry="8" height="30"/>
                <text class="cls-17" transform="translate(514.836 124.328)">
                    TBC/RABGAPs
                </text>
            </g>
            <g class="cls-27" id="ANALINFO">
                <rect x="473.172" y="86.44" width="170" rx="8" class="cls-28"
                      ry="8" height="20"/>
                <text class="cls-29" transform="translate(538.906 98.607)">
                    XXX/YY
                    <tspan x="32.515" class="cls-22" y="0">
                        Y
                    </tspan>
                </text>
            </g>
        </g>
        <g id="REGION-R-HSA-8876198">
            <polygon id="MASK-2" class="cls-14" data-name="MASK"
                     points="326.518 278.039 297.161 124.328 127.161 124.328 181.353 410.877 445.815 410.877 445.815 278.039 326.518 278.039"/>
            <g id="R-ICO-012754">
                <rect x="189.058" y="304.76" width="44" rx="10" class="cls-30"
                      ry="10" height="20"/>
                <path class="cls-31"
                      d="M516.486,425.034c-4.616-.009-9.231.43-13.847.837-2.308.205-4.616.388-6.923.457-1.17.051-2.273.086-3.5.081a11.084,11.084,0,0,1-3.922-.723,11.314,11.314,0,0,1-7.027-12.9,11.16,11.16,0,0,1,4.066-6.511,10.945,10.945,0,0,1,7.149-2.212c4.616.282,9.231.437,13.847.335,2.308-.059,4.616-.178,6.924-.341,1.165-.074,2.284-.169,3.486-.223a10.183,10.183,0,0,1,3.8.575,10.673,10.673,0,0,1,5.825,4.967,10.4,10.4,0,0,1,.875,7.52,11.014,11.014,0,0,1-4.136,5.967A11.519,11.519,0,0,1,516.486,425.034Zm0-.3a8.968,8.968,0,0,0,6.133-2.462,9.19,9.19,0,0,0,2.75-5.728,9.764,9.764,0,0,0-5.73-9.809,8.868,8.868,0,0,0-2.946-.777c-1.1-.1-2.294-.162-3.437-.246-2.308-.164-4.616-.282-6.924-.341-4.616-.1-9.231.053-13.847.335a9.318,9.318,0,0,0-5.609,2.42,9.109,9.109,0,0,0-2.82,5.184,8.635,8.635,0,0,0,1.07,5.666,8.834,8.834,0,0,0,4.334,3.73,7.947,7.947,0,0,0,2.829.629c1.082.042,2.288.043,3.426.1,2.308.069,4.616.252,6.923.457C507.254,424.3,511.87,424.742,516.486,424.734Z"
                      transform="translate(-293.428 -100.123)"/>
                <text class="cls-17" transform="translate(195.791 318.075)">
                    GEFs
                </text>
            </g>
            <g id="R-ICO-013272-2" data-name="R-ICO-013272">
                <rect x="383.166" y="351.104" width="44" rx="10" class="cls-32"
                      ry="10" height="20"/>
                <path class="cls-19"
                      d="M710.594,471.377c-4.616-.009-9.231.43-13.847.837-2.308.205-4.616.388-6.923.457-1.17.051-2.273.086-3.5.081a11.084,11.084,0,0,1-3.922-.723,11.314,11.314,0,0,1-7.027-12.9,11.16,11.16,0,0,1,4.066-6.511,10.945,10.945,0,0,1,7.149-2.212c4.616.282,9.231.437,13.847.335,2.308-.059,4.616-.178,6.923-.341,1.165-.074,2.284-.169,3.486-.223a10.183,10.183,0,0,1,3.8.575,10.673,10.673,0,0,1,5.825,4.967,10.4,10.4,0,0,1,.875,7.52,11.014,11.014,0,0,1-4.136,5.967A11.519,11.519,0,0,1,710.594,471.377Zm0-.3a8.967,8.967,0,0,0,6.133-2.462,9.19,9.19,0,0,0,2.75-5.728,9.764,9.764,0,0,0-5.73-9.809,8.868,8.868,0,0,0-2.946-.777c-1.1-.1-2.294-.162-3.437-.246-2.308-.164-4.616-.282-6.923-.341-4.616-.1-9.231.053-13.847.335a9.318,9.318,0,0,0-5.609,2.42,9.109,9.109,0,0,0-2.82,5.184,8.635,8.635,0,0,0,1.069,5.666,8.834,8.834,0,0,0,4.334,3.73,7.947,7.947,0,0,0,2.829.629c1.082.042,2.288.043,3.426.1,2.308.069,4.616.252,6.923.457C701.363,470.647,705.979,471.086,710.594,471.077Z"
                      transform="translate(-293.428 -100.123)"/>
                <text class="cls-17" transform="translate(389.235 364.417)">
                    RABs
                </text>
            </g>
            <g id="R-ICO-012804">
                <polygon class="cls-33"
                         points="374.965 347.104 351.367 347.104 343.166 355.305 343.166 366.903 351.367 375.104 374.965 375.104 383.166 366.903 383.166 355.305 374.965 347.104"/>
                <text class="cls-21" transform="translate(350.273 364.565)">
                    GD
                    <tspan x="18" class="cls-22" y="0">
                        P
                    </tspan>
                </text>
            </g>
            <g id="R-ICO-012804-2" data-name="R-ICO-012804">
                <polygon class="cls-34"
                         points="222.857 217.035 199.259 217.035 191.058 225.236 191.058 236.834 199.259 245.035 222.857 245.035 231.058 236.834 231.058 225.236 222.857 217.035"/>
                <text class="cls-21" transform="translate(198.164 234.496)">
                    GD
                    <tspan x="18" class="cls-22" y="0">
                        P
                    </tspan>
                </text>
            </g>
            <g id="OVERLAY-R-HSA-8876198">
                <rect x="127.161" y="106.44" width="170" rx="8" class="cls-26"
                      ry="8" height="30"/>
                <text class="cls-17" transform="translate(181.823 124.328)">
                    RAB GEFs
                </text>
            </g>
            <g class="cls-27" id="ANALINFO-2" data-name="ANALINFO">
                <rect x="127.161" y="86.44" width="170" rx="8" class="cls-28"
                      ry="8" height="20"/>
                <text class="cls-29" transform="translate(192.895 98.607)">
                    XXX/YY
                    <tspan x="32.515" class="cls-22" y="0">
                        Y
                    </tspan>
                </text>
            </g>
        </g>
    </g>
</svg>