
<svg contentScriptType="text/ecmascript" width="794.118"
     xmlns:xlink="http://www.w3.org/1999/xlink" zoomAndPan="magnify"
     contentStyleType="text/css" height="706.766" viewBox="0 0 794.118 706.766"
     id="Layer_1" data-name="Layer 1" preserveAspectRatio="xMidYMid meet"
     xmlns="http://www.w3.org/2000/svg" version="1.0">
    <defs>
        <style xml:space="preserve">.cls-1{fill:url(#linear-gradient);}.cls-2{fill:url(#radial-gradient);}.cls-3{mask:url(#mask);}.cls-4{fill:url(#linear-gradient-2);}.cls-5{fill:#edd468;}.cls-6,.cls-7,.cls-8{fill:none;stroke-width:20px;}.cls-6{stroke:#c9a30b;stroke-miterlimit:10;}.cls-7,.cls-8{stroke:#ebbd00;stroke-linecap:round;stroke-linejoin:round;}.cls-8{stroke-dasharray:0.508 30.497;}.cls-9{fill:url(#radial-gradient-2);}.cls-10{fill:url(#radial-gradient-3);}.cls-11{fill:url(#radial-gradient-4);}.cls-12{fill:url(#radial-gradient-5);}.cls-13{fill:url(#radial-gradient-6);}.cls-14{fill:url(#radial-gradient-7);}.cls-15{fill:url(#radial-gradient-8);}.cls-16{fill:url(#radial-gradient-9);}.cls-17{fill:url(#radial-gradient-10);}.cls-18{fill:url(#radial-gradient-11);}.cls-19{fill:#0052af;}.cls-20{fill:#2774c3;}.cls-21{fill:#4e96d7;}.cls-22{fill:#75b8eb;}.cls-23{fill:#9cdaff;}.cls-24{opacity:0.5;}.cls-25{fill:#2f9ec2;}.cls-26{fill:#d1eaf2;}.cls-27{fill:#9bd1e2;}.cls-28{fill:#80c4da;}.cls-29{fill:#65b7d2;}.cls-30{fill:#4aabca;}.cls-31,.cls-35,.cls-39,.cls-42{fill:#fff;}.cls-31,.cls-40{opacity:0;}.cls-32{fill:url(#radial-gradient-12);}.cls-33{fill:url(#radial-gradient-13);}.cls-34{fill:url(#linear-gradient-3);}.cls-36,.cls-37{opacity:0.6;}.cls-36{fill:url(#radial-gradient-14);}.cls-37{fill:url(#radial-gradient-15);}.cls-38{fill:#0f82bc;}.cls-39{font-size:12px;}.cls-39,.cls-42{font-family: Arial;font-weight:700;}.cls-41{fill:#c6c6c6;}.cls-42{isolation:isolate;font-size:9px;}.cls-43{letter-spacing:-0.018em;}.cls-44{fill:url(#linear-gradient-4);}.cls-45{fill:#e263e2;}.cls-46{fill:url(#linear-gradient-5);}.cls-47{fill:#ff9914;}.cls-48{fill:url(#linear-gradient-6);}.cls-49{fill:url(#linear-gradient-7);}.cls-50{fill:url(#linear-gradient-8);}.cls-51{fill:url(#linear-gradient-9);}</style><linearGradient x1="269.176"
                        xmlns:xlink="http://www.w3.org/1999/xlink"
                        gradientUnits="userSpaceOnUse" x2="1058.882"
                        y1="396.326" y2="396.326" xlink:type="simple"
                        xlink:actuate="onLoad" id="linear-gradient"
                        xlink:show="other">
            <stop offset="0.04"/>
            <stop stop-color="#030303" offset="0.076"/>
            <stop stop-color="#0b0b0b" offset="0.098"/>
            <stop stop-color="#191919" offset="0.116"/>
            <stop stop-color="#2e2e2e" offset="0.132"/>
            <stop stop-color="#484848" offset="0.146"/>
            <stop stop-color="#686868" offset="0.16"/>
            <stop stop-color="#8f8f8f" offset="0.173"/>
            <stop stop-color="#bbb" offset="0.185"/>
            <stop stop-color="#ededed" offset="0.196"/>
            <stop stop-color="#fff" offset="0.2"/>
            <stop stop-color="#fff" offset="0.8"/>
            <stop stop-color="#ededed" offset="0.804"/>
            <stop stop-color="#bbb" offset="0.815"/>
            <stop stop-color="#8f8f8f" offset="0.827"/>
            <stop stop-color="#686868" offset="0.84"/>
            <stop stop-color="#484848" offset="0.854"/>
            <stop stop-color="#2e2e2e" offset="0.868"/>
            <stop stop-color="#191919" offset="0.884"/>
            <stop stop-color="#0b0b0b" offset="0.902"/>
            <stop stop-color="#030303" offset="0.924"/>
            <stop offset="0.96"/>
        </linearGradient>
        <radialGradient gradientTransform="matrix(0.966, -0.26, 0.263, 0.976, -359.002, 129.135)"
                        xmlns:xlink="http://www.w3.org/1999/xlink"
                        gradientUnits="userSpaceOnUse" xlink:type="simple"
                        r="318.741" xlink:actuate="onLoad" cx="662.196"
                        cy="377.302" id="radial-gradient" xlink:show="other">
            <stop stop-color="#60bad9" offset="0"/>
            <stop stop-color="#75c3de" offset="0.063"/>
            <stop stop-color="#9fd5e8" offset="0.206"/>
            <stop stop-color="#c2e4f0" offset="0.351"/>
            <stop stop-color="#ddf0f7" offset="0.498"/>
            <stop stop-color="#f0f8fb" offset="0.647"/>
            <stop stop-color="#fbfdfe" offset="0.8"/>
            <stop stop-color="#fff" offset="0.96"/>
        </radialGradient>
        <mask maskUnits="userSpaceOnUse" width="789.706" x="-13.382"
              height="690.649" id="mask" y="-1.233">
            <g transform="translate(-282.558 -52.235)">
                <rect width="789.706" x="269.176" height="690.649" y="51.002"
                      class="cls-1"/>
            </g>
        </mask>
        <linearGradient x1="382.059" xmlns:xlink="http://www.w3.org/1999/xlink"
                        gradientUnits="userSpaceOnUse" x2="382.059" y1="410.004"
                        y2="673.572" xlink:type="simple" xlink:actuate="onLoad"
                        id="linear-gradient-2" xlink:show="other">
            <stop stop-color="#ffe7cf" offset="0"/>
            <stop stop-color="#fff" offset="1"/>
        </linearGradient>
        <radialGradient gradientTransform="matrix(0.865, -0.216, 0.227, 0.908, -49.669, -805.962)"
                        xmlns:xlink="http://www.w3.org/1999/xlink"
                        gradientUnits="userSpaceOnUse" xlink:type="simple"
                        r="6.387" xlink:actuate="onLoad" cx="129.42"
                        cy="1593.132" id="radial-gradient-2" xlink:show="other">
            <stop stop-color="#d8ba5d" offset="0"/>
            <stop stop-color="#1da075" offset="1"/>
        </radialGradient>
        <radialGradient xmlns:xlink="http://www.w3.org/1999/xlink"
                        xlink:href="#radial-gradient-2" xlink:type="simple"
                        r="6.387" xlink:actuate="onLoad" cx="259.664"
                        cy="1548.818" id="radial-gradient-3" xlink:show="other"/>
        <radialGradient xmlns:xlink="http://www.w3.org/1999/xlink"
                        xlink:href="#radial-gradient-2" xlink:type="simple"
                        r="6.387" xlink:actuate="onLoad" cx="646.19"
                        cy="1662.191" id="radial-gradient-4" xlink:show="other"/>
        <radialGradient xmlns:xlink="http://www.w3.org/1999/xlink"
                        xlink:href="#radial-gradient-2" xlink:type="simple"
                        r="6.387" xlink:actuate="onLoad" cx="344.16"
                        cy="1579.393" id="radial-gradient-5" xlink:show="other"/>
        <radialGradient xmlns:xlink="http://www.w3.org/1999/xlink"
                        xlink:href="#radial-gradient-2" xlink:type="simple"
                        r="6.387" xlink:actuate="onLoad" cx="590.999"
                        cy="1607.775" id="radial-gradient-6" xlink:show="other"/>
        <radialGradient xmlns:xlink="http://www.w3.org/1999/xlink"
                        xlink:href="#radial-gradient-2" xlink:type="simple"
                        r="6.387" xlink:actuate="onLoad" cx="199.966"
                        cy="1596.235" id="radial-gradient-7" xlink:show="other"/>
        <radialGradient xmlns:xlink="http://www.w3.org/1999/xlink"
                        xlink:href="#radial-gradient-2" xlink:type="simple"
                        r="6.387" xlink:actuate="onLoad" cx="179.817"
                        cy="1513.47" id="radial-gradient-8" xlink:show="other"/>
        <radialGradient xmlns:xlink="http://www.w3.org/1999/xlink"
                        xlink:href="#radial-gradient-2" xlink:type="simple"
                        r="9.339" xlink:actuate="onLoad" cx="113.459"
                        cy="1517.991" id="radial-gradient-9" xlink:show="other"/>
        <radialGradient xmlns:xlink="http://www.w3.org/1999/xlink"
                        xlink:href="#radial-gradient-2" xlink:type="simple"
                        r="6.387" xlink:actuate="onLoad" cx="584.153"
                        cy="1706.678" id="radial-gradient-10" xlink:show="other"/>
        <radialGradient xmlns:xlink="http://www.w3.org/1999/xlink"
                        xlink:href="#radial-gradient-2" xlink:type="simple"
                        r="9.339" xlink:actuate="onLoad" cx="437.497"
                        cy="1665.164" id="radial-gradient-11" xlink:show="other"/>
        <radialGradient xmlns:xlink="http://www.w3.org/1999/xlink"
                        gradientUnits="userSpaceOnUse" xlink:type="simple"
                        r="78.532" xlink:actuate="onLoad" cx="389.313"
                        cy="311.141" id="radial-gradient-12" xlink:show="other"
                        fx="353.98146203473993" fy="297.03933765605916">
            <stop stop-color="#e439ad" offset="0"/>
            <stop stop-color="#e138aa" offset="0.298"/>
            <stop stop-color="#d635a2" offset="0.559"/>
            <stop stop-color="#c43195" offset="0.806"/>
            <stop stop-color="#b02c86" offset="1"/>
        </radialGradient>
        <radialGradient xmlns:xlink="http://www.w3.org/1999/xlink"
                        gradientUnits="userSpaceOnUse" xlink:type="simple"
                        r="36.649" xlink:actuate="onLoad" cx="372.674"
                        cy="289.119" id="radial-gradient-13" xlink:show="other">
            <stop stop-color="#e8b1d7" offset="0"/>
            <stop stop-opacity="0.938" stop-color="#e8b1d7" offset="0.041"/>
            <stop stop-opacity="0.657" stop-color="#e8b1d7" offset="0.242"/>
            <stop stop-opacity="0.422" stop-color="#e8b1d7" offset="0.434"/>
            <stop stop-opacity="0.24" stop-color="#e8b1d7" offset="0.611"/>
            <stop stop-opacity="0.108" stop-color="#e8b1d7" offset="0.77"/>
            <stop stop-opacity="0.029" stop-color="#e8b1d7" offset="0.905"/>
            <stop stop-opacity="0" stop-color="#e8b1d7" offset="1"/>
        </radialGradient>
        <linearGradient x1="575.499" xmlns:xlink="http://www.w3.org/1999/xlink"
                        gradientUnits="userSpaceOnUse" x2="784.518" y1="403.268"
                        y2="403.268" xlink:type="simple" xlink:actuate="onLoad"
                        id="linear-gradient-3" xlink:show="other">
            <stop stop-color="#248ab2" offset="0"/>
            <stop stop-color="#78ba96" offset="0.998"/>
        </linearGradient>
        <radialGradient xmlns:xlink="http://www.w3.org/1999/xlink"
                        xlink:href="#radial-gradient-12" xlink:type="simple"
                        r="35.283" xlink:actuate="onLoad" cx="240.454"
                        cy="117.64" id="radial-gradient-14" xlink:show="other"
                        fx="224.58024950689418" fy="111.30431323115351"/>
        <radialGradient xmlns:xlink="http://www.w3.org/1999/xlink"
                        xlink:href="#radial-gradient-13" xlink:type="simple"
                        r="16.465" xlink:actuate="onLoad" cx="232.979"
                        cy="107.746" id="radial-gradient-15" xlink:show="other"/>
        <linearGradient x1="443.819" xmlns:xlink="http://www.w3.org/1999/xlink"
                        gradientUnits="userSpaceOnUse" x2="443.819" y1="471.64"
                        y2="491.64" xlink:type="simple" xlink:actuate="onLoad"
                        id="linear-gradient-4" xlink:show="other">
            <stop stop-color="#e263e2" offset="0"/>
            <stop stop-color="#ff9914" offset="1"/>
        </linearGradient>
        <linearGradient x1="392.819" xmlns:xlink="http://www.w3.org/1999/xlink"
                        xlink:href="#linear-gradient-4" x2="392.819" y1="491.64"
                        y2="471.64" xlink:type="simple" xlink:actuate="onLoad"
                        id="linear-gradient-5" xlink:show="other"/>
        <linearGradient x1="414.819" xmlns:xlink="http://www.w3.org/1999/xlink"
                        gradientUnits="userSpaceOnUse" x2="414.819" y1="471.638"
                        y2="451.638" xlink:type="simple" xlink:actuate="onLoad"
                        id="linear-gradient-6" xlink:show="other">
            <stop stop-color="#ff9914" offset="0"/>
            <stop stop-color="#e263e2" offset="1"/>
        </linearGradient>
        <linearGradient x1="375.994" xmlns:xlink="http://www.w3.org/1999/xlink"
                        xlink:href="#linear-gradient-4" x2="375.994"
                        y1="557.854" y2="577.854" xlink:type="simple"
                        xlink:actuate="onLoad" id="linear-gradient-7"
                        xlink:show="other"/>
        <linearGradient x1="324.994" xmlns:xlink="http://www.w3.org/1999/xlink"
                        xlink:href="#linear-gradient-4" x2="324.994"
                        y1="577.854" y2="557.854" xlink:type="simple"
                        xlink:actuate="onLoad" id="linear-gradient-8"
                        xlink:show="other"/>
        <linearGradient x1="477.143" xmlns:xlink="http://www.w3.org/1999/xlink"
                        xlink:href="#linear-gradient-6" x2="477.143"
                        y1="577.854" y2="557.854" xlink:type="simple"
                        xlink:actuate="onLoad" id="linear-gradient-9"
                        xlink:show="other"/>
        <filter x="-25%" y="-25%" width="150%"
                xmlns:xlink="http://www.w3.org/1999/xlink"
                style="color-interpolation-filters:sRGB" xlink:type="simple"
                xlink:actuate="onLoad" id="selection-filter" height="150%"
                xlink:show="other">
            <feColorMatrix values="0.0 0.0 0.0 0.0 0.0 0.0 0.0 0.0 0.0 0.0 0.0 0.0 0.0 1.0 0.0 0.0 0.0 0.0 1.0 0.0"
                           type="matrix" result="selection1" in="SourceGraphic"/>
            <feMorphology operator="dilate" result="selection2" in="selection1"
                          radius="4.0"/>
            <feMerge result="selectionResult">
                <feMergeNode in="selection2"/>
                <feMergeNode in="SourceGraphic"/>
            </feMerge>
        </filter>
        <filter x="-25%" y="-25%" width="150%"
                xmlns:xlink="http://www.w3.org/1999/xlink"
                style="color-interpolation-filters:sRGB" xlink:type="simple"
                xlink:actuate="onLoad" id="flag-filter" height="150%"
                xlink:show="other">
            <feColorMatrix values="0.0 0.0 0.0 1.0 0.0 0.0 0.0 0.0 0.0 0.0 0.0 0.0 0.0 1.0 0.0 0.0 0.0 0.0 1.0 0.0"
                           type="matrix" result="flag1" in="SourceGraphic"/>
            <feMorphology operator="dilate" result="flag2" in="flag1"
                          radius="7.0"/>
            <feMerge result="flagResult">
                <feMergeNode in="flag2"/>
                <feMergeNode in="SourceGraphic"/>
            </feMerge>
        </filter>
        <filter xlink:actuate="onLoad" xlink:type="simple"
                id="selection-flag-filter" xlink:show="other"
                style="color-interpolation-filters:sRGB"
                xmlns:xlink="http://www.w3.org/1999/xlink">
            <feColorMatrix values="0.0 0.0 0.0 1.0 0.0 0.0 0.0 0.0 0.0 0.0 0.0 0.0 0.0 1.0 0.0 0.0 0.0 0.0 1.0 0.0"
                           type="matrix" result="flag1" in="SourceGraphic"/>
            <feMorphology operator="dilate" result="flag2" in="flag1"
                          radius="7.0"/>
            <feMerge result="flagResult">
                <feMergeNode in="flag2"/>
                <feMergeNode in="SourceGraphic"/>
            </feMerge>
            <feColorMatrix values="0.0 0.0 0.0 0.0 0.0 0.0 0.0 0.0 0.0 0.0 0.0 0.0 0.0 1.0 0.0 0.0 0.0 0.0 1.0 0.0"
                           type="matrix" result="selection1" in="SourceGraphic"/>
            <feMorphology operator="dilate" result="selection2" in="selection1"
                          radius="4.0"/>
            <feMerge result="selectionResult">
                <feMergeNode in="selection2"/>
                <feMergeNode in="SourceGraphic"/>
            </feMerge>
            <feMerge>
                <feMergeNode in="flagResult"/>
                <feMergeNode in="selectionResult"/>
            </feMerge>
        </filter>
    </defs>
    <title>
        R-HSA-372790
    </title>
    <g transform="translate(15.000000,15.000000)">
        <g id="BG">
            <circle r="330.043" id="BG-2" cx="378.132" class="cls-2"
                    data-name="BG" cy="330.043"/>
            <g class="cls-3">
                <g id="R-ICO-013570">
                    <rect width="744.118" x="10" height="261.176" y="415.589"
                          id="CELL" class="cls-4"/>
                    <g id="MEMBRANE">
                        <rect width="744.118" x="10" height="157.353"
                              y="258.237" id="MEMBRANE_BG" class="cls-5"/>
                        <g id="LINE_BG">
                            <line y2="258.237" x1="10" x2="754.118"
                                  class="cls-6" y1="258.237"/>
                            <line y2="415.589" x1="754.118" x2="10"
                                  class="cls-6" y1="415.589"/>
                        </g>
                        <g id="LINE_DOTS">
                            <line y2="258.237" x1="10" x2="10.25" class="cls-7"
                                  y1="258.237"/>
                            <line y2="258.237" x1="40.747" x2="738.619"
                                  class="cls-8" y1="258.237"/>
                            <line y2="258.237" x1="753.868" x2="754.118"
                                  class="cls-7" y1="258.237"/>
                            <line y2="415.59" x1="754.118" x2="753.868"
                                  class="cls-7" y1="415.59"/>
                            <line y2="415.59" x1="723.371" x2="25.498"
                                  class="cls-8" y1="415.59"/>
                            <line y2="415.59" x1="10.25" x2="10" class="cls-7"
                                  y1="415.59"/>
                        </g>
                    </g>
                    <g id="LYSOSOMES">
                        <path id="R-ICO-012966"
                              d="M424.71,608.129a6.024,6.024,0,0,1,5.635,6.186,5.679,5.679,0,0,1-5.8,5.746,6.024,6.024,0,0,1-5.635-6.186A5.679,5.679,0,0,1,424.71,608.129Z"
                              class="cls-9"
                              transform="translate(-282.558 -52.235)"/>
                        <path d="M527.333,539.713a6.024,6.024,0,0,1,5.635,6.186,5.679,5.679,0,0,1-5.8,5.746,6.024,6.024,0,0,1-5.635-6.186A5.679,5.679,0,0,1,527.333,539.713Z"
                              id="R-ICO-012966-2" class="cls-10"
                              data-name="R-ICO-012966"
                              transform="translate(-282.558 -52.235)"/>
                        <path d="M887.374,559.021a6.024,6.024,0,0,1,5.635,6.186,5.679,5.679,0,0,1-5.8,5.746,6.024,6.024,0,0,1-5.635-6.186A5.679,5.679,0,0,1,887.374,559.021Z"
                              id="R-ICO-012966-3" class="cls-11"
                              data-name="R-ICO-012966"
                              transform="translate(-282.558 -52.235)"/>
                        <path d="M607.352,549.193a6.024,6.024,0,0,1,5.635,6.186,5.679,5.679,0,0,1-5.8,5.746,6.024,6.024,0,0,1-5.635-6.186A5.679,5.679,0,0,1,607.352,549.193Z"
                              id="R-ICO-012966-4" class="cls-12"
                              data-name="R-ICO-012966"
                              transform="translate(-282.558 -52.235)"/>
                        <path d="M827.3,521.556a6.024,6.024,0,0,1,5.635,6.186,5.679,5.679,0,0,1-5.8,5.746A6.024,6.024,0,0,1,821.5,527.3,5.679,5.679,0,0,1,827.3,521.556Z"
                              id="R-ICO-012966-5" class="cls-13"
                              data-name="R-ICO-012966"
                              transform="translate(-282.558 -52.235)"/>
                        <path d="M486.437,595.683a6.024,6.024,0,0,1,5.635,6.186,5.679,5.679,0,0,1-5.8,5.746,6.024,6.024,0,0,1-5.635-6.186A5.679,5.679,0,0,1,486.437,595.683Z"
                              id="R-ICO-012966-6" class="cls-14"
                              data-name="R-ICO-012966"
                              transform="translate(-282.558 -52.235)"/>
                        <path d="M450.255,524.895a6.024,6.024,0,0,1,5.635,6.186,5.679,5.679,0,0,1-5.8,5.746,6.024,6.024,0,0,1-5.635-6.186A5.679,5.679,0,0,1,450.255,524.895Z"
                              id="R-ICO-012966-7" class="cls-15"
                              data-name="R-ICO-012966"
                              transform="translate(-282.558 -52.235)"/>
                        <path d="M394.617,542.805a7,7,0,0,1,6.545,7.185,6.6,6.6,0,0,1-6.74,6.674,7,7,0,0,1-6.545-7.185A6.6,6.6,0,0,1,394.617,542.805Z"
                              id="R-ICO-012966-8" class="cls-16"
                              data-name="R-ICO-012966"
                              transform="translate(-282.558 -52.235)"/>
                        <path d="M843.79,612.836a6.024,6.024,0,0,1,5.635,6.186,5.679,5.679,0,0,1-5.8,5.746,6.024,6.024,0,0,1-5.635-6.186A5.679,5.679,0,0,1,843.79,612.836Z"
                              id="R-ICO-012966-9" class="cls-17"
                              data-name="R-ICO-012966"
                              transform="translate(-282.558 -52.235)"/>
                        <path d="M708.263,606.323a7,7,0,0,1,6.545,7.185,6.6,6.6,0,0,1-6.74,6.674A7,7,0,0,1,701.523,613,6.6,6.6,0,0,1,708.263,606.323Z"
                              id="R-ICO-012966-10" class="cls-18"
                              data-name="R-ICO-012966"
                              transform="translate(-282.558 -52.235)"/>
                    </g>
                </g>
            </g>
            <g id="ARROWS">
                <g id="R-ICO-012347">
                    <rect width="7.358" x="598.572" height="17.775" y="234.995"
                          class="cls-19"
                          transform="translate(-278.614 445.052) rotate(-45)"/>
                    <rect width="7.358" x="585.111" height="13.568" y="223.638"
                          class="cls-20"
                          transform="translate(-273.038 431.591) rotate(-45)"/>
                    <rect width="7.358" x="574.626" height="9.36" y="215.257"
                          class="cls-21"
                          transform="translate(-268.695 421.106) rotate(-45)"/>
                    <rect width="7.358" x="567.116" height="5.152" y="209.851"
                          class="cls-22"
                          transform="translate(-265.585 413.596) rotate(-45)"/>
                    <rect width="7.358" x="562.581" height="0.945" y="207.42"
                          class="cls-23"
                          transform="translate(-263.706 409.061) rotate(-45)"/>
                    <polygon class="cls-19"
                             points="330.956 192.034 332.518 204.472 320.079 202.91 330.956 192.034"/>
                </g>
                <g id="R-ICO-012347-2" data-name="R-ICO-012347">
                    <rect width="7.358" x="740.877" height="14.984" y="579.709"
                          class="cls-19"
                          transform="translate(-479.696 646.233) rotate(-45)"/>
                    <rect width="7.358" x="729.53" height="11.437" y="570.135"
                          class="cls-20"
                          transform="translate(-474.996 634.886) rotate(-45)"/>
                    <rect width="7.358" x="720.692" height="7.89" y="563.07"
                          class="cls-21"
                          transform="translate(-471.335 626.047) rotate(-45)"/>
                    <rect width="7.358" x="714.361" height="4.343" y="558.513"
                          class="cls-22"
                          transform="translate(-468.713 619.716) rotate(-45)"/>
                    <rect width="7.358" x="710.538" height="0.796" y="556.463"
                          class="cls-23"
                          transform="translate(-467.129 615.894) rotate(-45)"/>
                    <polygon class="cls-19"
                             points="472.275 534.365 473.837 546.804 461.398 545.242 472.275 534.365"/>
                </g>
                <g id="R-ICO-012347-3" data-name="R-ICO-012347">
                    <rect width="14.984" x="645.676" height="7.358" y="583.522"
                          class="cls-19"
                          transform="translate(-506.463 581.611) rotate(-45)"/>
                    <rect width="11.437" x="658.796" height="7.358" y="572.175"
                          class="cls-20"
                          transform="translate(-495.116 586.312) rotate(-45)"/>
                    <rect width="7.89" x="669.409" height="7.358" y="563.336"
                          class="cls-21"
                          transform="translate(-486.278 589.973) rotate(-45)"/>
                    <rect width="4.343" x="677.513" height="7.358" y="557.005"
                          class="cls-22"
                          transform="translate(-479.947 592.595) rotate(-45)"/>
                    <rect width="0.796" x="683.109" height="7.358" y="553.183"
                          class="cls-23"
                          transform="translate(-476.124 594.178) rotate(-45)"/>
                    <polygon class="cls-19"
                             points="360.333 534.365 358.772 546.804 371.21 545.242 360.333 534.365"/>
                </g>
            </g>
            <g class="cls-24" id="LOGO">
                <path class="cls-25"
                      d="M949.12,111.21a.5.5,0,0,1-.169.379.487.487,0,0,1-.282.072,2.882,2.882,0,0,1-.379-.032,3.005,3.005,0,0,0-1.828.306,2.493,2.493,0,0,0-.983.934,2.567,2.567,0,0,0-.354,1.337v4.9a.485.485,0,0,1-.129.346.463.463,0,0,1-.354.137.468.468,0,0,1-.483-.483v-7.845a.464.464,0,0,1,.137-.354.486.486,0,0,1,.346-.129.446.446,0,0,1,.483.483v1a3.421,3.421,0,0,1,1.192-1.16,3.1,3.1,0,0,1,1.578-.419Q949.119,110.678,949.12,111.21Z"
                      transform="translate(-282.558 -52.235)"/>
                <path class="cls-25"
                      d="M956.006,111.25a3.835,3.835,0,0,1,1.442,1.538,4.75,4.75,0,0,1,.515,2.239.431.431,0,0,1-.129.33.475.475,0,0,1-.338.121h-6.749a3.593,3.593,0,0,0,.5,1.7,3.188,3.188,0,0,0,1.208,1.168,3.431,3.431,0,0,0,1.691.419,3.893,3.893,0,0,0,1.264-.217,2.7,2.7,0,0,0,1.007-.572.535.535,0,0,1,.338-.129.424.424,0,0,1,.322.741,4.086,4.086,0,0,1-1.345.773,4.581,4.581,0,0,1-1.587.306,4.442,4.442,0,0,1-2.263-.572,4.07,4.07,0,0,1-1.554-1.595,4.7,4.7,0,0,1-.564-2.311,5.035,5.035,0,0,1,.524-2.328,3.9,3.9,0,0,1,1.466-1.595,4.064,4.064,0,0,1,2.15-.572A4.007,4.007,0,0,1,956.006,111.25Zm-4.22,1.184a3.544,3.544,0,0,0-1.023,2.207h6.266a3.36,3.36,0,0,0-.967-2.207,2.956,2.956,0,0,0-2.158-.838A2.923,2.923,0,0,0,951.785,112.434Z"
                      transform="translate(-282.558 -52.235)"/>
                <path class="cls-25"
                      d="M966.049,111.266a4.265,4.265,0,0,1,1.619,1.619,4.566,4.566,0,0,1,.588,2.3V119.1a.485.485,0,0,1-.129.346.463.463,0,0,1-.354.137.468.468,0,0,1-.483-.483v-1.257a3.746,3.746,0,0,1-1.458,1.345,4.347,4.347,0,0,1-2.07.491,4.563,4.563,0,0,1-2.3-.588,4.257,4.257,0,0,1-1.619-1.619,4.773,4.773,0,0,1,0-4.591,4.262,4.262,0,0,1,1.619-1.619,4.773,4.773,0,0,1,4.591,0Zm-.483,7.047a3.352,3.352,0,0,0,1.264-1.289,3.9,3.9,0,0,0,0-3.673,3.413,3.413,0,0,0-1.264-1.3,3.538,3.538,0,0,0-4.881,1.3,3.844,3.844,0,0,0,0,3.673,3.408,3.408,0,0,0,1.273,1.289,3.718,3.718,0,0,0,3.608,0Z"
                      transform="translate(-282.558 -52.235)"/>
                <path class="cls-25"
                      d="M972.331,119.094a4.208,4.208,0,0,1-1.57-1.619,4.631,4.631,0,0,1-.572-2.287,4.9,4.9,0,0,1,.532-2.3,4.05,4.05,0,0,1,1.482-1.611,3.96,3.96,0,0,1,2.126-.588,4.365,4.365,0,0,1,1.885.4,4.147,4.147,0,0,1,1.482,1.192.514.514,0,0,1,.113.274.394.394,0,0,1-.226.354.385.385,0,0,1-.258.1.444.444,0,0,1-.37-.193,3.282,3.282,0,0,0-2.626-1.224,2.98,2.98,0,0,0-2.779,1.74,4.224,4.224,0,0,0-.395,1.852,3.862,3.862,0,0,0,.435,1.836,3.25,3.25,0,0,0,1.208,1.289,3.357,3.357,0,0,0,1.772.467,3.213,3.213,0,0,0,2.271-.789.464.464,0,0,1,.338-.145.393.393,0,0,1,.29.113.46.46,0,0,1,.161.354.367.367,0,0,1-.129.29,4,4,0,0,1-1.321.8,4.584,4.584,0,0,1-1.611.282A4.326,4.326,0,0,1,972.331,119.094Z"
                      transform="translate(-282.558 -52.235)"/>
                <path class="cls-25"
                      d="M984.564,118.74a.491.491,0,0,1,.137.362.47.47,0,0,1-.137.346.49.49,0,0,1-.362.137h-.37a3.082,3.082,0,0,1-1.578-.4,2.84,2.84,0,0,1-1.079-1.1,3.229,3.229,0,0,1-.387-1.587v-4.526h-1.256a.435.435,0,1,1,0-.87h1.256v-2.626a.491.491,0,0,1,.137-.362.47.47,0,0,1,.346-.137.471.471,0,0,1,.5.5V111.1H983.9a.435.435,0,1,1,0,.87H981.77v4.526a2.075,2.075,0,0,0,.58,1.522,2.012,2.012,0,0,0,1.5.588h.354A.491.491,0,0,1,984.564,118.74Z"
                      transform="translate(-282.558 -52.235)"/>
                <path class="cls-25"
                      d="M988.438,119.094a4.257,4.257,0,0,1-1.619-1.619,4.773,4.773,0,0,1,0-4.591,4.262,4.262,0,0,1,1.619-1.619,4.773,4.773,0,0,1,4.591,0,4.265,4.265,0,0,1,1.619,1.619,4.773,4.773,0,0,1,0,4.591,4.26,4.26,0,0,1-1.619,1.619,4.773,4.773,0,0,1-4.591,0Zm4.108-.781a3.352,3.352,0,0,0,1.264-1.289,3.9,3.9,0,0,0,0-3.673,3.413,3.413,0,0,0-1.264-1.3,3.538,3.538,0,0,0-4.881,1.3,3.844,3.844,0,0,0,0,3.673,3.408,3.408,0,0,0,1.273,1.289,3.718,3.718,0,0,0,3.608,0Z"
                      transform="translate(-282.558 -52.235)"/>
                <path class="cls-25"
                      d="M1008.669,111.145a3.233,3.233,0,0,1,1.176,1.345,4.425,4.425,0,0,1,.419,1.957V119.1a.484.484,0,0,1-.129.346.462.462,0,0,1-.354.137.468.468,0,0,1-.483-.483v-4.655a3.057,3.057,0,0,0-.661-2.03,2.108,2.108,0,0,0-1.691-.789,2.375,2.375,0,0,0-1.82.741,2.653,2.653,0,0,0-.661,1.965V119.1a.484.484,0,0,1-.129.346.462.462,0,0,1-.354.137.468.468,0,0,1-.483-.483v-4.655a3.057,3.057,0,0,0-.661-2.03,2.108,2.108,0,0,0-1.691-.789,2.428,2.428,0,0,0-2.529,2.545V119.1a.485.485,0,0,1-.129.346.463.463,0,0,1-.354.137.468.468,0,0,1-.483-.483v-7.845a.464.464,0,0,1,.137-.354.486.486,0,0,1,.346-.129.446.446,0,0,1,.483.483v.628a3.125,3.125,0,0,1,1.111-.9,3.191,3.191,0,0,1,1.417-.322,3.116,3.116,0,0,1,1.675.459,3.3,3.3,0,0,1,1.176,1.264,3.22,3.22,0,0,1,1.208-1.264,3.343,3.343,0,0,1,1.74-.459A3.135,3.135,0,0,1,1008.669,111.145Z"
                      transform="translate(-282.558 -52.235)"/>
                <path class="cls-25"
                      d="M1018.76,111.25a3.835,3.835,0,0,1,1.442,1.538,4.75,4.75,0,0,1,.515,2.239.431.431,0,0,1-.129.33.475.475,0,0,1-.338.121H1013.5a3.593,3.593,0,0,0,.5,1.7,3.188,3.188,0,0,0,1.208,1.168,3.431,3.431,0,0,0,1.691.419,3.893,3.893,0,0,0,1.264-.217,2.7,2.7,0,0,0,1.007-.572.535.535,0,0,1,.338-.129.424.424,0,0,1,.322.741,4.086,4.086,0,0,1-1.345.773,4.581,4.581,0,0,1-1.587.306,4.442,4.442,0,0,1-2.263-.572,4.07,4.07,0,0,1-1.554-1.595,4.7,4.7,0,0,1-.564-2.311,5.035,5.035,0,0,1,.524-2.328,3.9,3.9,0,0,1,1.466-1.595,4.064,4.064,0,0,1,2.15-.572A4.007,4.007,0,0,1,1018.76,111.25Zm-4.22,1.184a3.544,3.544,0,0,0-1.023,2.207h6.266a3.36,3.36,0,0,0-.967-2.207,2.956,2.956,0,0,0-2.158-.838A2.923,2.923,0,0,0,1014.54,112.434Z"
                      transform="translate(-282.558 -52.235)"/>
                <polygon class="cls-26"
                         points="648.205 53.859 648.205 49.992 638.159 55.792 638.159 67.392 641.508 65.459 641.508 57.725 648.205 53.859"/>
                <polygon class="cls-27"
                         points="641.508 65.459 641.508 69.326 644.857 67.392 644.857 63.525 641.508 65.459"/>
                <polygon class="cls-27"
                         points="651.554 55.792 651.554 51.925 648.205 53.859 648.205 57.725 651.554 55.792"/>
                <polygon class="cls-28"
                         points="644.857 59.659 648.205 57.725 648.205 53.859 641.508 57.725 641.508 65.459 644.857 63.525 644.857 59.659"/>
                <polygon class="cls-29"
                         points="651.554 63.525 651.554 63.525 651.554 67.392 654.903 65.459 654.903 61.592 651.554 63.525 651.554 63.525"/>
                <polygon class="cls-29"
                         points="654.903 57.725 654.903 53.859 651.554 55.792 651.554 59.659 654.903 57.725"/>
                <polygon class="cls-29"
                         points="644.857 67.392 644.857 71.259 648.205 69.326 648.205 65.459 644.857 67.392"/>
                <polygon class="cls-30"
                         points="648.205 61.592 651.554 59.659 651.554 55.792 648.205 57.725 648.205 61.592 644.857 63.525 644.857 67.392 648.205 65.459 648.205 61.592"/>
                <polygon class="cls-25"
                         points="644.857 59.659 644.857 63.525 648.205 61.592 648.205 57.725 644.857 59.659"/>
                <polygon class="cls-25"
                         points="654.903 57.725 651.554 59.659 648.205 61.592 648.205 65.459 648.205 69.326 648.205 73.192 651.554 71.259 651.554 67.392 651.554 63.525 651.554 63.525 651.554 63.525 654.903 61.592 658.251 59.659 658.251 55.792 654.903 57.725"/>
            </g>
        </g>
        <g id="REGION-R-HSA-500792">
            <polygon id="MASK-2" class="cls-31" data-name="MASK"
                     points="184.442 26.592 184.442 185.585 273.442 512.586 318.917 512.586 368.335 447.098 477.144 447.098 505.082 512.586 526.03 512.586 526.03 26.592 184.442 26.592"/>
            <g id="R-ICO-012954">
                <circle r="78.532" class="cls-32" cx="398.611" cy="314.077"/>
                <circle r="78.532" class="cls-33" cx="398.611" cy="314.077"/>
            </g>
            <g id="R-ICO-012791">
                <path class="cls-34"
                      d="M712.693,532.835a7.5,7.5,0,0,1,0-15c15.122,0,29.405,0,39.365-8.468,11.749-9.989,17.46-31.6,17.46-66.065V389.268c0-24.352,0-49.533-1.553-68.852-1.967-24.47-5.843-30.277-7.028-31.505-1.186,1.229-5.062,7.035-7.029,31.5-1.553,19.318-1.553,44.5-1.553,68.852,0,26.747,0,54.4-2.047,75.037-1.2,12.128-4.021,40.53-21.534,40.53s-20.331-28.4-21.534-40.53c-2.047-20.632-2.047-48.29-2.047-75.037,0-24.352,0-49.533-1.553-68.851-1.985-24.7-5.915-30.383-7.061-31.539-1.123,1.1-5.021,6.578-6.993,30.863-1.557,19.174-1.557,43.632-1.557,69.527,0,28.383,0,55.191-2.048,75.631-1.2,11.95-4,39.936-21.533,39.936-17.514,0-20.453-28.38-21.708-40.5-2.06-19.885-2.227-45.762-2.227-75.069,0-24.415,0-49.66-1.582-69-2.04-24.936-6.073-30.378-7.176-31.419-1.1,1.042-5.136,6.483-7.176,31.419C623,339.608,623,364.853,623,389.268c0,26.747,0,54.4-2.047,75.037-1.2,12.128-4.021,40.53-21.534,40.53s-20.447-28.381-21.7-40.5c-2.217-21.457-2.217-51.182-2.217-75.067V281.2a7.5,7.5,0,0,1,15,0V389.268c0,26.669.128,50.261,1.706,68.9,2.075,24.528,6.018,30.265,7.2,31.46,1.176-1.211,5.065-6.99,7.036-31.514C608,438.8,608,413.62,608,389.268c0-26.749,0-54.409,2.07-75.045,1.216-12.126,4.064-40.522,21.688-40.522s20.472,28.4,21.688,40.522c2.07,20.636,2.07,48.3,2.07,75.045,0,26.646.129,50.222,1.714,68.908,2.1,24.762,6.1,30.37,7.246,31.49,1.112-1.079,5.024-6.53,7-30.872,1.557-19.173,1.557-43.631,1.557-69.525,0-28.383,0-55.192,2.048-75.632,1.2-11.951,4-39.936,21.534-39.936,17.514,0,20.331,28.4,21.534,40.53,2.047,20.632,2.047,48.29,2.047,75.037,0,24.352,0,49.533,1.553,68.852,1.967,24.468,5.843,30.276,7.028,31.5,1.186-1.229,5.062-7.037,7.028-31.5,1.553-19.318,1.553-44.5,1.553-68.851,0-26.747,0-54.4,2.047-75.037,1.2-12.128,4.021-40.531,21.535-40.531s20.331,28.4,21.534,40.53c2.047,20.632,2.047,48.29,2.047,75.037V443.3c0,39.677-7.227,64.3-22.744,77.493C747.613,532.835,729.861,532.835,712.693,532.835ZM599.746,489.916h0Z"
                      transform="translate(-282.558 -52.235)"/>
            </g>
            <g id="R-ICO-012954-2" data-name="R-ICO-012954">
                <circle r="35.283" class="cls-35" cx="244.631" cy="118.959"/>
                <circle r="35.283" class="cls-36" cx="244.631" cy="118.959"/>
                <circle r="35.283" class="cls-37" cx="244.631" cy="118.959"/>
            </g>
            <g id="OVERLAY-R-HSA-500792">
                <rect x="318.442" y="46.592" width="170" rx="8" class="cls-38"
                      ry="8" height="30"/>
                <text class="cls-39" transform="translate(334.442 64.481)">
                    GPCR LIGAND BINDING
                </text>
            </g>
            <g class="cls-40" id="ANALINFO">
                <rect x="318.442" y="26.592" width="170" rx="8" class="cls-41"
                      ry="8" height="20"/>
                <text class="cls-42" transform="translate(384.176 38.759)">
                    XXX/YY
                    <tspan x="32.515" class="cls-43" y="0">
                        Y
                    </tspan>
                </text>
            </g>
        </g>
        <g id="REGION-R-HSA-388396">
            <polygon id="MASK-3" class="cls-31" data-name="MASK"
                     points="505.082 512.586 477.144 447.098 368.335 447.098 318.917 512.586 273.442 512.586 273.442 676.051 526.03 676.051 526.03 512.586 505.082 512.586"/>
            <g id="R-ICO-012744">
                <rect x="414.819" y="471.64" width="58" rx="10" class="cls-44"
                      ry="10" height="20"/>
                <path class="cls-45"
                      d="M745.378,543.975c-5.782-.008-11.565.3-17.347.558-5.782.305-11.565.364-17.347.408l-2.168,0-1.084,0-1.193-.061a10.71,10.71,0,0,1-4.5-1.538,10.983,10.983,0,0,1-5.138-7.67,10.668,10.668,0,0,1,10.78-12.347c5.782.174,11.565.3,17.347.223s11.565-.365,17.347-.508L744.24,523l1.084-.016,1.174.054a10.451,10.451,0,0,1,6.7,17.452A10.69,10.69,0,0,1,745.378,543.975Zm0-.2a9.465,9.465,0,0,0,9.233-11.441,9.652,9.652,0,0,0-1.641-3.644,10.071,10.071,0,0,0-2.938-2.636,9.643,9.643,0,0,0-3.717-1.24l-.991-.053-1.084-.016-2.168-.038c-5.782-.143-11.565-.435-17.347-.508s-11.565.049-17.347.223a9.543,9.543,0,0,0-7.014,3.515,9.242,9.242,0,0,0-1.911,7.427,9,9,0,0,0,4.354,6.192,9.282,9.282,0,0,0,3.651,1.2l.973.046,1.084,0,2.168,0c5.782.044,11.565.1,17.347.408C733.813,543.477,739.6,543.783,745.378,543.775Z"
                      transform="translate(-282.558 -52.235)"/>
                <text class="cls-39" transform="translate(416.146 484.953)">
                    G-gamma
                </text>
            </g>
            <g id="R-ICO-012743">
                <rect x="370.819" y="471.64" width="44" rx="10" class="cls-46"
                      ry="10" height="20"/>
                <path class="cls-47"
                      d="M687.378,543.975c-4.616-.008-9.231.3-13.847.558-2.308.137-4.616.259-6.923.3-1.164.032-2.284.061-3.485.05a10.561,10.561,0,0,1-3.74-.707,10.872,10.872,0,0,1-6.752-12.315,10.776,10.776,0,0,1,3.86-6.284,10.592,10.592,0,0,1,6.887-2.254c4.616.174,9.231.3,13.847.223,2.308-.033,4.616-.129,6.923-.232,1.161-.044,2.292-.108,3.478-.131a10.017,10.017,0,0,1,3.662.6,10.412,10.412,0,0,1,5.584,4.8,10.132,10.132,0,0,1,.946,7.24,10.607,10.607,0,0,1-3.893,5.933A11.041,11.041,0,0,1,687.378,543.975Zm0-.2a9.332,9.332,0,0,0,6.212-2.417,9.625,9.625,0,0,0,2.994-5.763,9.807,9.807,0,0,0-5.9-10.257,9.015,9.015,0,0,0-3.089-.752c-1.121-.07-2.3-.1-3.445-.154-2.308-.1-4.616-.2-6.923-.232-4.616-.076-9.231.049-13.847.223a9.689,9.689,0,0,0-5.872,2.378,9.494,9.494,0,0,0-3.026,5.412,9.02,9.02,0,0,0,1.08,6.011,9.285,9.285,0,0,0,4.6,3.97,8.47,8.47,0,0,0,3.011.645l3.438.074c2.308.046,4.616.168,6.923.3C678.146,543.477,682.762,543.783,687.378,543.775Z"
                      transform="translate(-282.558 -52.235)"/>
                <text class="cls-39" transform="translate(373.818 484.953)">
                    G-beta
                </text>
            </g>
            <g id="R-ICO-012742">
                <rect x="390.319" y="451.638" width="49" rx="10" class="cls-48"
                      ry="10" height="20"/>
                <path class="cls-47"
                      d="M711.878,523.973c-5.032-.007-10.065.3-15.1.558-2.516.137-5.032.259-7.548.3-1.258.038-2.516.049-3.774.062-1.278-.007-2.45.085-3.9-.044a10.9,10.9,0,0,1-9.591-11.633,10.677,10.677,0,0,1,3.523-7.188,10.511,10.511,0,0,1,7.386-2.707c5.032.174,10.065.3,15.1.223,2.516-.033,5.032-.129,7.548-.232l3.774-.143a37.566,37.566,0,0,1,3.87-.049,10.371,10.371,0,0,1,7.049,3.784,10.175,10.175,0,0,1,2.257,7.6,10.46,10.46,0,0,1-3.575,6.82A10.775,10.775,0,0,1,711.878,523.973Zm0-.2a9.322,9.322,0,0,0,6.662-2.827,9.5,9.5,0,0,0,2.681-6.514,9.778,9.778,0,0,0-2.352-6.394,9.611,9.611,0,0,0-5.9-3.26c-1.1-.149-2.432-.146-3.672-.205l-3.774-.143c-2.516-.1-5.032-.2-7.548-.232-5.032-.076-10.065.049-15.1.223a9.523,9.523,0,0,0-6.3,2.766,9.3,9.3,0,0,0-2.733,6.146,8.952,8.952,0,0,0,2.165,6.271,9.091,9.091,0,0,0,5.8,3.132c1.056.128,2.408.084,3.644.112,1.258.013,2.516.024,3.774.062,2.516.046,5.032.168,7.548.3C701.813,523.475,706.845,523.781,711.878,523.773Z"
                      transform="translate(-282.558 -52.235)"/>
                <text class="cls-39" transform="translate(392.484 464.951)">
                    G-alpha
                </text>
            </g>
            <g id="R-ICO-012744-2" data-name="R-ICO-012744">
                <rect x="346.994" y="557.854" width="58" rx="10" class="cls-49"
                      ry="10" height="20"/>
                <path class="cls-45"
                      d="M677.552,630.189c-5.782-.008-11.565.3-17.347.558-5.782.305-11.565.364-17.347.408l-2.168,0-1.084,0-1.192-.061a10.71,10.71,0,0,1-4.5-1.538,10.984,10.984,0,0,1-5.138-7.67,10.668,10.668,0,0,1,10.78-12.347c5.782.174,11.565.3,17.347.223s11.565-.365,17.347-.508l2.168-.038,1.084-.016,1.174.054a10.451,10.451,0,0,1,6.7,17.452A10.69,10.69,0,0,1,677.552,630.189Zm0-.2a9.465,9.465,0,0,0,9.233-11.441,9.651,9.651,0,0,0-1.641-3.644,10.07,10.07,0,0,0-2.938-2.636,9.643,9.643,0,0,0-3.717-1.24l-.991-.053-1.084-.016-2.168-.038c-5.782-.143-11.565-.435-17.347-.508s-11.565.049-17.347.223a9.544,9.544,0,0,0-7.014,3.515,9.242,9.242,0,0,0-1.911,7.427,9,9,0,0,0,4.354,6.192,9.283,9.283,0,0,0,3.651,1.2l.973.046,1.084,0,2.168,0c5.782.044,11.565.1,17.347.408C665.988,629.691,671.77,630,677.552,629.989Z"
                      transform="translate(-282.558 -52.235)"/>
                <text class="cls-39" transform="translate(348.32 571.167)">
                    G-gamma
                </text>
            </g>
            <g id="R-ICO-012743-2" data-name="R-ICO-012743">
                <rect x="302.994" y="557.854" width="44" rx="10" class="cls-50"
                      ry="10" height="20"/>
                <path class="cls-47"
                      d="M619.552,630.189c-4.616-.008-9.231.3-13.847.558-2.308.137-4.616.259-6.923.3-1.164.032-2.284.061-3.485.05a10.561,10.561,0,0,1-3.74-.707,10.872,10.872,0,0,1-6.752-12.315,10.776,10.776,0,0,1,3.86-6.284,10.593,10.593,0,0,1,6.887-2.254c4.616.174,9.231.3,13.847.223,2.308-.033,4.616-.129,6.924-.232,1.161-.044,2.292-.108,3.478-.131a10.017,10.017,0,0,1,3.662.6,10.412,10.412,0,0,1,5.584,4.8,10.133,10.133,0,0,1,.946,7.24,10.608,10.608,0,0,1-3.893,5.933A11.042,11.042,0,0,1,619.552,630.189Zm0-.2a9.332,9.332,0,0,0,6.212-2.417,9.626,9.626,0,0,0,2.994-5.763,9.807,9.807,0,0,0-5.9-10.257,9.016,9.016,0,0,0-3.089-.752c-1.121-.07-2.3-.1-3.445-.154-2.308-.1-4.616-.2-6.924-.232-4.616-.076-9.231.049-13.847.223a9.689,9.689,0,0,0-5.872,2.378,9.493,9.493,0,0,0-3.026,5.411,9.02,9.02,0,0,0,1.08,6.011,9.284,9.284,0,0,0,4.6,3.97,8.469,8.469,0,0,0,3.011.645l3.438.074c2.308.046,4.616.168,6.923.3C610.321,629.691,614.937,630,619.552,629.989Z"
                      transform="translate(-282.558 -52.235)"/>
                <text class="cls-39" transform="translate(305.992 571.167)">
                    G-beta
                </text>
            </g>
            <g id="R-ICO-012742-2" data-name="R-ICO-012742">
                <rect x="452.643" y="557.854" width="49" rx="10" class="cls-51"
                      ry="10" height="20"/>
                <path class="cls-47"
                      d="M774.2,630.189c-5.032-.008-10.065.3-15.1.558-2.516.137-5.032.259-7.549.3-1.258.038-2.516.049-3.774.062-1.278-.007-2.45.085-3.9-.044a10.9,10.9,0,0,1-9.591-11.633,10.677,10.677,0,0,1,3.523-7.188,10.511,10.511,0,0,1,7.386-2.707c5.032.174,10.065.3,15.1.223,2.516-.033,5.032-.129,7.548-.232l3.774-.143a37.548,37.548,0,0,1,3.87-.049,10.371,10.371,0,0,1,7.049,3.784,10.175,10.175,0,0,1,2.257,7.6,10.46,10.46,0,0,1-3.575,6.82A10.776,10.776,0,0,1,774.2,630.189Zm0-.2a9.322,9.322,0,0,0,6.662-2.827,9.5,9.5,0,0,0,2.681-6.514,9.778,9.778,0,0,0-2.352-6.394,9.61,9.61,0,0,0-5.9-3.26c-1.1-.149-2.432-.146-3.672-.205l-3.774-.143c-2.516-.1-5.032-.2-7.548-.232-5.032-.076-10.065.049-15.1.223a9.524,9.524,0,0,0-6.3,2.766,9.305,9.305,0,0,0-2.733,6.146,8.952,8.952,0,0,0,2.165,6.271,9.092,9.092,0,0,0,5.8,3.132c1.056.128,2.408.084,3.644.112,1.258.013,2.516.024,3.774.062,2.516.046,5.032.168,7.549.3C764.137,629.691,769.169,630,774.2,629.989Z"
                      transform="translate(-282.558 -52.235)"/>
                <text class="cls-39" transform="translate(454.808 571.167)">
                    G-alpha
                </text>
            </g>
            <g id="OVERLAY-R-HSA-388396">
                <rect x="293.442" y="626.051" width="220" rx="8" class="cls-38"
                      ry="8" height="30"/>
                <text class="cls-39" transform="translate(305.11 643.94)">
                    GPCR DOWNSTREAM SIGNALING
                </text>
            </g>
            <g class="cls-40" id="ANALINFO-2" data-name="ANALINFO">
                <rect x="293.442" y="656.051" width="220" rx="8" class="cls-41"
                      ry="8" height="20"/>
                <text class="cls-42" transform="translate(384.176 668.219)">
                    XXX/YY
                    <tspan x="32.515" class="cls-43" y="0">
                        Y
                    </tspan>
                </text>
            </g>
        </g>
    </g>
</svg>