
<svg contentScriptType="text/ecmascript" width="1351.316"
     xmlns:xlink="http://www.w3.org/1999/xlink" zoomAndPan="magnify"
     contentStyleType="text/css" height="706.766" viewBox="0 0 1351.316 706.766"
     id="Layer_1" data-name="Layer 1" preserveAspectRatio="xMidYMid meet"
     xmlns="http://www.w3.org/2000/svg" version="1.0">
    <defs>
        <style xml:space="preserve">.cls-1{fill:url(#linear-gradient);}.cls-2{mask:url(#mask);}.cls-3{fill:url(#radial-gradient);}.cls-4{fill:url(#linear-gradient-2);}.cls-5{fill:#edd468;}.cls-47,.cls-6,.cls-7{fill:none;}.cls-6{stroke:#c9a30b;stroke-miterlimit:10;}.cls-6,.cls-7{stroke-width:20px;}.cls-7{stroke:#ebbd00;stroke-dasharray:0.5 30;}.cls-47,.cls-7{stroke-linecap:round;stroke-linejoin:round;}.cls-8{fill:url(#radial-gradient-2);}.cls-9{fill:url(#radial-gradient-3);}.cls-10{fill:url(#radial-gradient-4);}.cls-11{fill:url(#radial-gradient-5);}.cls-12{fill:url(#radial-gradient-6);}.cls-13{fill:url(#radial-gradient-7);}.cls-14{fill:url(#radial-gradient-8);}.cls-15{fill:url(#radial-gradient-9);}.cls-16{fill:url(#radial-gradient-10);}.cls-17{fill:url(#radial-gradient-11);}.cls-18{fill:url(#radial-gradient-12);}.cls-19{fill:url(#radial-gradient-13);}.cls-20{fill:url(#radial-gradient-14);}.cls-21{fill:url(#radial-gradient-15);}.cls-22{opacity:0.5;}.cls-23{fill:#2f9ec2;}.cls-24{fill:#d1eaf2;}.cls-25{fill:#9bd1e2;}.cls-26{fill:#80c4da;}.cls-27{fill:#65b7d2;}.cls-28{fill:#4aabca;}.cls-29,.cls-50,.cls-59{fill:#fff;}.cls-29,.cls-57{opacity:0;}.cls-30{fill:#685925;}.cls-31{fill:url(#linear-gradient-3);}.cls-32{fill:url(#linear-gradient-4);}.cls-33{fill:url(#linear-gradient-5);}.cls-34{fill:url(#linear-gradient-6);}.cls-35{fill:url(#linear-gradient-7);}.cls-36{fill:url(#linear-gradient-8);}.cls-37{fill:url(#linear-gradient-9);}.cls-38{fill:url(#linear-gradient-10);}.cls-39{fill:url(#linear-gradient-11);}.cls-40{fill:url(#linear-gradient-12);}.cls-41{fill:url(#radial-gradient-16);}.cls-42{fill:url(#radial-gradient-17);}.cls-43{fill:url(#linear-gradient-13);}.cls-44{fill:url(#linear-gradient-14);}.cls-45{fill:url(#linear-gradient-15);}.cls-46{fill:url(#linear-gradient-16);}.cls-47{stroke:#685925;stroke-width:2px;}.cls-48{fill:url(#linear-gradient-17);}.cls-49{fill:#e263e2;}.cls-50{font-size:12px;}.cls-50,.cls-59{font-family: Arial;font-weight:700;}.cls-51{fill:url(#linear-gradient-18);}.cls-52{fill:#ff9914;}.cls-53{fill:url(#linear-gradient-19);}.cls-54{fill:#1281bb;}.cls-55{letter-spacing:-0.074em;}.cls-56{letter-spacing:-0.018em;}.cls-58{fill:#c6c5c4;}.cls-59{isolation:isolate;font-size:9px;}.cls-60{fill:#682547;}.cls-61{fill:url(#linear-gradient-20);}.cls-62{fill:url(#linear-gradient-21);}.cls-63{fill:url(#linear-gradient-22);}.cls-64{fill:url(#linear-gradient-23);}.cls-65{fill:url(#linear-gradient-24);}.cls-66{fill:url(#linear-gradient-25);}.cls-67{fill:url(#linear-gradient-26);}.cls-68{fill:url(#linear-gradient-27);}.cls-69{fill:url(#linear-gradient-28);}.cls-70{fill:url(#linear-gradient-29);}.cls-71{fill:url(#radial-gradient-18);}.cls-72{fill:url(#radial-gradient-19);}.cls-73{fill:url(#linear-gradient-30);}.cls-74{fill:url(#linear-gradient-31);}.cls-75{fill:url(#linear-gradient-32);}.cls-76{fill:url(#linear-gradient-33);}.cls-77{fill:url(#linear-gradient-34);}.cls-78{fill:url(#linear-gradient-35);}.cls-79{fill:url(#linear-gradient-36);}.cls-80{letter-spacing:-0.055em;}.cls-81{letter-spacing:-0.092em;}.cls-82{fill:#245d69;}.cls-83{fill:url(#linear-gradient-37);}.cls-84{fill:url(#linear-gradient-38);}.cls-85{fill:url(#linear-gradient-39);}.cls-86{fill:url(#linear-gradient-40);}.cls-87{fill:url(#linear-gradient-41);}.cls-88{fill:url(#linear-gradient-42);}.cls-89{fill:url(#linear-gradient-43);}.cls-90{fill:url(#linear-gradient-44);}.cls-91{fill:url(#linear-gradient-45);}.cls-92{fill:url(#linear-gradient-46);}.cls-93{fill:url(#radial-gradient-20);}.cls-94{fill:url(#radial-gradient-21);}.cls-95{fill:url(#linear-gradient-47);}.cls-96{fill:url(#linear-gradient-48);}.cls-97{fill:url(#linear-gradient-49);}.cls-98{fill:url(#linear-gradient-50);}.cls-99{fill:url(#linear-gradient-51);}.cls-100{fill:url(#linear-gradient-52);}.cls-101{fill:url(#linear-gradient-53);}.cls-102{letter-spacing:-0.037em;}</style><linearGradient x1="15.271"
                        xmlns:xlink="http://www.w3.org/1999/xlink"
                        gradientUnits="userSpaceOnUse" x2="1353.077"
                        y1="379.326" y2="379.326" xlink:type="simple"
                        xlink:actuate="onLoad" id="linear-gradient"
                        xlink:show="other">
            <stop offset="0.02"/>
            <stop stop-color="#030303" offset="0.038"/>
            <stop stop-color="#0b0b0b" offset="0.049"/>
            <stop stop-color="#191919" offset="0.058"/>
            <stop stop-color="#2e2e2e" offset="0.066"/>
            <stop stop-color="#484848" offset="0.073"/>
            <stop stop-color="#686868" offset="0.08"/>
            <stop stop-color="#8f8f8f" offset="0.086"/>
            <stop stop-color="#bbb" offset="0.092"/>
            <stop stop-color="#ededed" offset="0.098"/>
            <stop stop-color="#fff" offset="0.1"/>
            <stop stop-color="#fff" offset="0.9"/>
            <stop stop-color="#ededed" offset="0.902"/>
            <stop stop-color="#bbb" offset="0.908"/>
            <stop stop-color="#8f8f8f" offset="0.914"/>
            <stop stop-color="#686868" offset="0.92"/>
            <stop stop-color="#484848" offset="0.927"/>
            <stop stop-color="#2e2e2e" offset="0.934"/>
            <stop stop-color="#191919" offset="0.942"/>
            <stop stop-color="#0b0b0b" offset="0.951"/>
            <stop stop-color="#030303" offset="0.962"/>
            <stop offset="0.98"/>
        </linearGradient>
        <mask maskUnits="userSpaceOnUse" width="1337.806" x="-12.675"
              height="690.649" id="mask" y="-1.233">
            <g transform="translate(-27.947 -35.235)">
                <rect width="1337.806" x="15.271" height="690.649" y="34.002"
                      class="cls-1"/>
            </g>
        </mask>
        <radialGradient gradientTransform="matrix(1.906, -0.26, 0.519, 0.976, -802.088, 147.81)"
                        xmlns:xlink="http://www.w3.org/1999/xlink"
                        gradientUnits="userSpaceOnUse" xlink:type="simple"
                        r="318.741" xlink:actuate="onLoad" cx="670.196"
                        cy="360.302" id="radial-gradient" xlink:show="other">
            <stop stop-color="#60bad9" offset="0"/>
            <stop stop-color="#75c3de" offset="0.063"/>
            <stop stop-color="#9fd5e8" offset="0.206"/>
            <stop stop-color="#c2e4f0" offset="0.351"/>
            <stop stop-color="#ddf0f7" offset="0.498"/>
            <stop stop-color="#f0f8fb" offset="0.647"/>
            <stop stop-color="#fbfdfe" offset="0.8"/>
            <stop stop-color="#fff" offset="0.96"/>
        </radialGradient>
        <linearGradient x1="660.658" xmlns:xlink="http://www.w3.org/1999/xlink"
                        gradientUnits="userSpaceOnUse" x2="660.658" y1="347.448"
                        y2="672.823" xlink:type="simple" xlink:actuate="onLoad"
                        id="linear-gradient-2" xlink:show="other">
            <stop stop-color="#ffe7cf" offset="0"/>
            <stop stop-color="#fff" offset="1"/>
        </linearGradient>
        <radialGradient gradientTransform="matrix(0.865, -0.233, 0.225, 0.972, -47.235, -898.204)"
                        xmlns:xlink="http://www.w3.org/1999/xlink"
                        gradientUnits="userSpaceOnUse" xlink:type="simple"
                        r="6.387" xlink:actuate="onLoad" cx="-80.168"
                        cy="1545.907" id="radial-gradient-2" xlink:show="other">
            <stop stop-color="#d8ba5d" offset="0"/>
            <stop stop-color="#1da075" offset="1"/>
        </radialGradient>
        <radialGradient xmlns:xlink="http://www.w3.org/1999/xlink"
                        xlink:href="#radial-gradient-2" xlink:type="simple"
                        r="6.387" xlink:actuate="onLoad" cx="147.158"
                        cy="1483.732" id="radial-gradient-3" xlink:show="other"/>
        <radialGradient xmlns:xlink="http://www.w3.org/1999/xlink"
                        xlink:href="#radial-gradient-2" xlink:type="simple"
                        r="6.387" xlink:actuate="onLoad" cx="283.52"
                        cy="1537.05" id="radial-gradient-4" xlink:show="other"/>
        <radialGradient xmlns:xlink="http://www.w3.org/1999/xlink"
                        xlink:href="#radial-gradient-2" xlink:type="simple"
                        r="6.387" xlink:actuate="onLoad" cx="818.094"
                        cy="1747.712" id="radial-gradient-5" xlink:show="other"/>
        <radialGradient xmlns:xlink="http://www.w3.org/1999/xlink"
                        xlink:href="#radial-gradient-2" xlink:type="simple"
                        r="6.387" xlink:actuate="onLoad" cx="442.444"
                        cy="1636.95" id="radial-gradient-6" xlink:show="other"/>
        <radialGradient xmlns:xlink="http://www.w3.org/1999/xlink"
                        xlink:href="#radial-gradient-2" xlink:type="simple"
                        r="6.387" xlink:actuate="onLoad" cx="620.698"
                        cy="1617.994" id="radial-gradient-7" xlink:show="other"/>
        <radialGradient xmlns:xlink="http://www.w3.org/1999/xlink"
                        xlink:href="#radial-gradient-2" xlink:type="simple"
                        r="6.387" xlink:actuate="onLoad" cx="719.396"
                        cy="1682.853" id="radial-gradient-8" xlink:show="other"/>
        <radialGradient xmlns:xlink="http://www.w3.org/1999/xlink"
                        xlink:href="#radial-gradient-2" xlink:type="simple"
                        r="6.387" xlink:actuate="onLoad" cx="238.024"
                        cy="1618.752" id="radial-gradient-9" xlink:show="other"/>
        <radialGradient xmlns:xlink="http://www.w3.org/1999/xlink"
                        xlink:href="#radial-gradient-2" xlink:type="simple"
                        r="6.387" xlink:actuate="onLoad" cx="180.211"
                        cy="1547.527" id="radial-gradient-10" xlink:show="other"/>
        <radialGradient xmlns:xlink="http://www.w3.org/1999/xlink"
                        xlink:href="#radial-gradient-2" xlink:type="simple"
                        r="9.339" xlink:actuate="onLoad" cx="29.356"
                        cy="1521.472" id="radial-gradient-11" xlink:show="other"/>
        <radialGradient xmlns:xlink="http://www.w3.org/1999/xlink"
                        xlink:href="#radial-gradient-2" xlink:type="simple"
                        r="6.387" xlink:actuate="onLoad" cx="331.058"
                        cy="1649.008" id="radial-gradient-12" xlink:show="other"/>
        <radialGradient xmlns:xlink="http://www.w3.org/1999/xlink"
                        xlink:href="#radial-gradient-2" xlink:type="simple"
                        r="6.387" xlink:actuate="onLoad" cx="559.468"
                        cy="1703.841" id="radial-gradient-13" xlink:show="other"/>
        <radialGradient xmlns:xlink="http://www.w3.org/1999/xlink"
                        xlink:href="#radial-gradient-2" xlink:type="simple"
                        r="9.339" xlink:actuate="onLoad" cx="749.99"
                        cy="1743.27" id="radial-gradient-14" xlink:show="other"/>
        <radialGradient xmlns:xlink="http://www.w3.org/1999/xlink"
                        xlink:href="#radial-gradient-2" xlink:type="simple"
                        r="6.387" xlink:actuate="onLoad" cx="514.181"
                        cy="1615.8" id="radial-gradient-15" xlink:show="other"/>
        <linearGradient x1="978.24" xmlns:xlink="http://www.w3.org/1999/xlink"
                        gradientUnits="userSpaceOnUse" x2="997.155" y1="387.727"
                        y2="387.727" xlink:type="simple" xlink:actuate="onLoad"
                        id="linear-gradient-3" xlink:show="other">
            <stop stop-color="#695b24" offset="0"/>
            <stop stop-color="#7b6d37" offset="0.027"/>
            <stop stop-color="#968953" offset="0.078"/>
            <stop stop-color="#aa9d68" offset="0.128"/>
            <stop stop-color="#b6a974" offset="0.178"/>
            <stop stop-color="#baad78" offset="0.227"/>
            <stop stop-color="#695815" offset="1"/>
        </linearGradient>
        <linearGradient x1="953.235" xmlns:xlink="http://www.w3.org/1999/xlink"
                        xlink:href="#linear-gradient-3" x2="963.981"
                        y1="260.013" y2="275.579" xlink:type="simple"
                        xlink:actuate="onLoad" id="linear-gradient-4"
                        xlink:show="other"/>
        <linearGradient x1="1130.756" xmlns:xlink="http://www.w3.org/1999/xlink"
                        xlink:href="#linear-gradient-3" x2="1149.672"
                        y1="387.727" y2="387.727" xlink:type="simple"
                        xlink:actuate="onLoad" id="linear-gradient-5"
                        xlink:show="other"/>
        <linearGradient x1="1105.751" xmlns:xlink="http://www.w3.org/1999/xlink"
                        xlink:href="#linear-gradient-3" x2="1116.497"
                        y1="260.013" y2="275.579" xlink:type="simple"
                        xlink:actuate="onLoad" id="linear-gradient-6"
                        xlink:show="other"/>
        <linearGradient x1="1054.498" xmlns:xlink="http://www.w3.org/1999/xlink"
                        xlink:href="#linear-gradient-3" x2="1073.414"
                        y1="356.691" y2="356.691" xlink:type="simple"
                        xlink:actuate="onLoad" id="linear-gradient-7"
                        xlink:show="other"/>
        <linearGradient x1="1029.493" xmlns:xlink="http://www.w3.org/1999/xlink"
                        xlink:href="#linear-gradient-3" x2="1040.239"
                        y1="228.977" y2="244.544" xlink:type="simple"
                        xlink:actuate="onLoad" id="linear-gradient-8"
                        xlink:show="other"/>
        <linearGradient x1="1016.369" xmlns:xlink="http://www.w3.org/1999/xlink"
                        xlink:href="#linear-gradient-3" x2="1035.284"
                        y1="368.219" y2="368.219" xlink:type="simple"
                        xlink:actuate="onLoad" id="linear-gradient-9"
                        xlink:show="other"/>
        <linearGradient x1="991.364" xmlns:xlink="http://www.w3.org/1999/xlink"
                        xlink:href="#linear-gradient-3" x2="1002.11"
                        y1="240.505" y2="256.071" xlink:type="simple"
                        xlink:actuate="onLoad" id="linear-gradient-10"
                        xlink:show="other"/>
        <linearGradient x1="1092.627" xmlns:xlink="http://www.w3.org/1999/xlink"
                        xlink:href="#linear-gradient-3" x2="1111.543"
                        y1="368.219" y2="368.219" xlink:type="simple"
                        xlink:actuate="onLoad" id="linear-gradient-11"
                        xlink:show="other"/>
        <linearGradient x1="1067.622" xmlns:xlink="http://www.w3.org/1999/xlink"
                        xlink:href="#linear-gradient-3" x2="1078.368"
                        y1="240.505" y2="256.071" xlink:type="simple"
                        xlink:actuate="onLoad" id="linear-gradient-12"
                        xlink:show="other"/>
        <radialGradient xmlns:xlink="http://www.w3.org/1999/xlink"
                        gradientUnits="userSpaceOnUse" xlink:type="simple"
                        r="36.168" xlink:actuate="onLoad" cx="946.011"
                        cy="203.347" id="radial-gradient-16" xlink:show="other"
                        fx="929.7387095549523" fy="196.85238620350978">
            <stop stop-color="#e439ad" offset="0"/>
            <stop stop-color="#e138aa" offset="0.298"/>
            <stop stop-color="#d635a2" offset="0.559"/>
            <stop stop-color="#c43195" offset="0.806"/>
            <stop stop-color="#b02c86" offset="1"/>
        </radialGradient>
        <radialGradient xmlns:xlink="http://www.w3.org/1999/xlink"
                        gradientUnits="userSpaceOnUse" xlink:type="simple"
                        r="16.879" xlink:actuate="onLoad" cx="938.348"
                        cy="193.205" id="radial-gradient-17" xlink:show="other">
            <stop stop-color="#e8b1d7" offset="0"/>
            <stop stop-opacity="0.938" stop-color="#e8b1d7" offset="0.041"/>
            <stop stop-opacity="0.657" stop-color="#e8b1d7" offset="0.242"/>
            <stop stop-opacity="0.422" stop-color="#e8b1d7" offset="0.434"/>
            <stop stop-opacity="0.24" stop-color="#e8b1d7" offset="0.611"/>
            <stop stop-opacity="0.108" stop-color="#e8b1d7" offset="0.77"/>
            <stop stop-opacity="0.029" stop-color="#e8b1d7" offset="0.905"/>
            <stop stop-opacity="0" stop-color="#e8b1d7" offset="1"/>
        </radialGradient>
        <linearGradient x1="1029.078" xmlns:xlink="http://www.w3.org/1999/xlink"
                        xlink:href="#linear-gradient-3" x2="1047.994"
                        y1="416.989" y2="416.989" xlink:type="simple"
                        xlink:actuate="onLoad" id="linear-gradient-13"
                        xlink:show="other"/>
        <linearGradient x1="1004.073" xmlns:xlink="http://www.w3.org/1999/xlink"
                        xlink:href="#linear-gradient-3" x2="1014.82"
                        y1="289.275" y2="304.841" xlink:type="simple"
                        xlink:actuate="onLoad" id="linear-gradient-14"
                        xlink:show="other"/>
        <linearGradient x1="1079.917" xmlns:xlink="http://www.w3.org/1999/xlink"
                        xlink:href="#linear-gradient-3" x2="1098.833"
                        y1="416.989" y2="416.989" xlink:type="simple"
                        xlink:actuate="onLoad" id="linear-gradient-15"
                        xlink:show="other"/>
        <linearGradient x1="1054.912" xmlns:xlink="http://www.w3.org/1999/xlink"
                        xlink:href="#linear-gradient-3" x2="1065.658"
                        y1="289.275" y2="304.841" xlink:type="simple"
                        xlink:actuate="onLoad" id="linear-gradient-16"
                        xlink:show="other"/>
        <linearGradient x1="1076.856" xmlns:xlink="http://www.w3.org/1999/xlink"
                        gradientUnits="userSpaceOnUse" x2="1076.856"
                        y1="479.644" y2="499.644" xlink:type="simple"
                        xlink:actuate="onLoad" id="linear-gradient-17"
                        xlink:show="other">
            <stop stop-color="#e263e2" offset="0"/>
            <stop stop-color="#ff9914" offset="1"/>
        </linearGradient>
        <linearGradient x1="1025.856" xmlns:xlink="http://www.w3.org/1999/xlink"
                        xlink:href="#linear-gradient-17" x2="1025.856"
                        y1="499.644" y2="479.644" xlink:type="simple"
                        xlink:actuate="onLoad" id="linear-gradient-18"
                        xlink:show="other"/>
        <linearGradient x1="1047.856" xmlns:xlink="http://www.w3.org/1999/xlink"
                        gradientUnits="userSpaceOnUse" x2="1047.856"
                        y1="479.642" y2="459.642" xlink:type="simple"
                        xlink:actuate="onLoad" id="linear-gradient-19"
                        xlink:show="other">
            <stop stop-color="#ff9914" offset="0"/>
            <stop stop-color="#e263e2" offset="1"/>
        </linearGradient>
        <linearGradient x1="587.157" xmlns:xlink="http://www.w3.org/1999/xlink"
                        gradientUnits="userSpaceOnUse" x2="606.072" y1="387.727"
                        y2="387.727" xlink:type="simple" xlink:actuate="onLoad"
                        id="linear-gradient-20" xlink:show="other">
            <stop stop-color="#692446" offset="0"/>
            <stop stop-color="#7b3758" offset="0.027"/>
            <stop stop-color="#965374" offset="0.078"/>
            <stop stop-color="#aa6888" offset="0.128"/>
            <stop stop-color="#b67494" offset="0.178"/>
            <stop stop-color="#ba7898" offset="0.227"/>
            <stop stop-color="#69153e" offset="1"/>
        </linearGradient>
        <linearGradient x1="562.152" xmlns:xlink="http://www.w3.org/1999/xlink"
                        xlink:href="#linear-gradient-20" x2="572.898"
                        y1="260.013" y2="275.579" xlink:type="simple"
                        xlink:actuate="onLoad" id="linear-gradient-21"
                        xlink:show="other"/>
        <linearGradient x1="739.673" xmlns:xlink="http://www.w3.org/1999/xlink"
                        xlink:href="#linear-gradient-20" x2="758.589"
                        y1="387.727" y2="387.727" xlink:type="simple"
                        xlink:actuate="onLoad" id="linear-gradient-22"
                        xlink:show="other"/>
        <linearGradient x1="714.668" xmlns:xlink="http://www.w3.org/1999/xlink"
                        xlink:href="#linear-gradient-20" x2="725.414"
                        y1="260.013" y2="275.579" xlink:type="simple"
                        xlink:actuate="onLoad" id="linear-gradient-23"
                        xlink:show="other"/>
        <linearGradient x1="663.415" xmlns:xlink="http://www.w3.org/1999/xlink"
                        xlink:href="#linear-gradient-20" x2="682.331"
                        y1="356.691" y2="356.691" xlink:type="simple"
                        xlink:actuate="onLoad" id="linear-gradient-24"
                        xlink:show="other"/>
        <linearGradient x1="638.41" xmlns:xlink="http://www.w3.org/1999/xlink"
                        xlink:href="#linear-gradient-20" x2="649.156"
                        y1="228.977" y2="244.544" xlink:type="simple"
                        xlink:actuate="onLoad" id="linear-gradient-25"
                        xlink:show="other"/>
        <linearGradient x1="625.286" xmlns:xlink="http://www.w3.org/1999/xlink"
                        xlink:href="#linear-gradient-20" x2="644.201"
                        y1="368.219" y2="368.219" xlink:type="simple"
                        xlink:actuate="onLoad" id="linear-gradient-26"
                        xlink:show="other"/>
        <linearGradient x1="600.281" xmlns:xlink="http://www.w3.org/1999/xlink"
                        xlink:href="#linear-gradient-20" x2="611.027"
                        y1="240.505" y2="256.071" xlink:type="simple"
                        xlink:actuate="onLoad" id="linear-gradient-27"
                        xlink:show="other"/>
        <linearGradient x1="701.544" xmlns:xlink="http://www.w3.org/1999/xlink"
                        xlink:href="#linear-gradient-20" x2="720.46"
                        y1="368.219" y2="368.219" xlink:type="simple"
                        xlink:actuate="onLoad" id="linear-gradient-28"
                        xlink:show="other"/>
        <linearGradient x1="676.539" xmlns:xlink="http://www.w3.org/1999/xlink"
                        xlink:href="#linear-gradient-20" x2="687.285"
                        y1="240.505" y2="256.071" xlink:type="simple"
                        xlink:actuate="onLoad" id="linear-gradient-29"
                        xlink:show="other"/>
        <radialGradient xmlns:xlink="http://www.w3.org/1999/xlink"
                        xlink:href="#radial-gradient-16" xlink:type="simple"
                        r="59.841" xlink:actuate="onLoad" cx="637.841"
                        cy="256.364" id="radial-gradient-18" xlink:show="other"
                        fx="610.9187671814994" fy="245.61851931237123"/>
        <radialGradient xmlns:xlink="http://www.w3.org/1999/xlink"
                        xlink:href="#radial-gradient-17" xlink:type="simple"
                        r="27.926" xlink:actuate="onLoad" cx="625.163"
                        cy="239.583" id="radial-gradient-19" xlink:show="other"/>
        <linearGradient x1="637.995" xmlns:xlink="http://www.w3.org/1999/xlink"
                        xlink:href="#linear-gradient-20" x2="656.911"
                        y1="416.989" y2="416.989" xlink:type="simple"
                        xlink:actuate="onLoad" id="linear-gradient-30"
                        xlink:show="other"/>
        <linearGradient x1="612.99" xmlns:xlink="http://www.w3.org/1999/xlink"
                        xlink:href="#linear-gradient-20" x2="623.737"
                        y1="289.275" y2="304.841" xlink:type="simple"
                        xlink:actuate="onLoad" id="linear-gradient-31"
                        xlink:show="other"/>
        <linearGradient x1="688.834" xmlns:xlink="http://www.w3.org/1999/xlink"
                        xlink:href="#linear-gradient-20" x2="707.75"
                        y1="416.989" y2="416.989" xlink:type="simple"
                        xlink:actuate="onLoad" id="linear-gradient-32"
                        xlink:show="other"/>
        <linearGradient x1="663.829" xmlns:xlink="http://www.w3.org/1999/xlink"
                        xlink:href="#linear-gradient-20" x2="674.575"
                        y1="289.275" y2="304.841" xlink:type="simple"
                        xlink:actuate="onLoad" id="linear-gradient-33"
                        xlink:show="other"/>
        <linearGradient x1="685.773" xmlns:xlink="http://www.w3.org/1999/xlink"
                        xlink:href="#linear-gradient-17" x2="685.773"
                        y1="479.644" y2="499.644" xlink:type="simple"
                        xlink:actuate="onLoad" id="linear-gradient-34"
                        xlink:show="other"/>
        <linearGradient x1="634.773" xmlns:xlink="http://www.w3.org/1999/xlink"
                        xlink:href="#linear-gradient-17" x2="634.773"
                        y1="499.644" y2="479.644" xlink:type="simple"
                        xlink:actuate="onLoad" id="linear-gradient-35"
                        xlink:show="other"/>
        <linearGradient x1="656.773" xmlns:xlink="http://www.w3.org/1999/xlink"
                        xlink:href="#linear-gradient-19" x2="656.773"
                        y1="479.642" y2="459.642" xlink:type="simple"
                        xlink:actuate="onLoad" id="linear-gradient-36"
                        xlink:show="other"/>
        <linearGradient x1="186.161" xmlns:xlink="http://www.w3.org/1999/xlink"
                        gradientUnits="userSpaceOnUse" x2="205.076" y1="387.727"
                        y2="387.727" xlink:type="simple" xlink:actuate="onLoad"
                        id="linear-gradient-37" xlink:show="other">
            <stop stop-color="#245d69" offset="0"/>
            <stop stop-color="#3d7976" offset="0.037"/>
            <stop stop-color="#579584" offset="0.085"/>
            <stop stop-color="#69aa8e" offset="0.133"/>
            <stop stop-color="#74b694" offset="0.181"/>
            <stop stop-color="#78ba96" offset="0.227"/>
            <stop stop-color="#155169" offset="1"/>
        </linearGradient>
        <linearGradient x1="161.156" xmlns:xlink="http://www.w3.org/1999/xlink"
                        xlink:href="#linear-gradient-37" x2="171.902"
                        y1="260.013" y2="275.579" xlink:type="simple"
                        xlink:actuate="onLoad" id="linear-gradient-38"
                        xlink:show="other"/>
        <linearGradient x1="338.677" xmlns:xlink="http://www.w3.org/1999/xlink"
                        xlink:href="#linear-gradient-37" x2="357.593"
                        y1="387.727" y2="387.727" xlink:type="simple"
                        xlink:actuate="onLoad" id="linear-gradient-39"
                        xlink:show="other"/>
        <linearGradient x1="313.672" xmlns:xlink="http://www.w3.org/1999/xlink"
                        xlink:href="#linear-gradient-37" x2="324.419"
                        y1="260.013" y2="275.579" xlink:type="simple"
                        xlink:actuate="onLoad" id="linear-gradient-40"
                        xlink:show="other"/>
        <linearGradient x1="262.419" xmlns:xlink="http://www.w3.org/1999/xlink"
                        xlink:href="#linear-gradient-37" x2="281.335"
                        y1="356.691" y2="356.691" xlink:type="simple"
                        xlink:actuate="onLoad" id="linear-gradient-41"
                        xlink:show="other"/>
        <linearGradient x1="237.414" xmlns:xlink="http://www.w3.org/1999/xlink"
                        xlink:href="#linear-gradient-37" x2="248.16"
                        y1="228.977" y2="244.544" xlink:type="simple"
                        xlink:actuate="onLoad" id="linear-gradient-42"
                        xlink:show="other"/>
        <linearGradient x1="224.29" xmlns:xlink="http://www.w3.org/1999/xlink"
                        xlink:href="#linear-gradient-37" x2="243.206"
                        y1="368.219" y2="368.219" xlink:type="simple"
                        xlink:actuate="onLoad" id="linear-gradient-43"
                        xlink:show="other"/>
        <linearGradient x1="199.285" xmlns:xlink="http://www.w3.org/1999/xlink"
                        xlink:href="#linear-gradient-37" x2="210.031"
                        y1="240.505" y2="256.071" xlink:type="simple"
                        xlink:actuate="onLoad" id="linear-gradient-44"
                        xlink:show="other"/>
        <linearGradient x1="300.548" xmlns:xlink="http://www.w3.org/1999/xlink"
                        xlink:href="#linear-gradient-37" x2="319.464"
                        y1="368.219" y2="368.219" xlink:type="simple"
                        xlink:actuate="onLoad" id="linear-gradient-45"
                        xlink:show="other"/>
        <linearGradient x1="275.543" xmlns:xlink="http://www.w3.org/1999/xlink"
                        xlink:href="#linear-gradient-37" x2="286.289"
                        y1="240.505" y2="256.071" xlink:type="simple"
                        xlink:actuate="onLoad" id="linear-gradient-46"
                        xlink:show="other"/>
        <radialGradient xmlns:xlink="http://www.w3.org/1999/xlink"
                        xlink:href="#radial-gradient-16" xlink:type="simple"
                        r="59.841" xlink:actuate="onLoad" cx="236.845"
                        cy="316.367" id="radial-gradient-20" xlink:show="other"
                        fx="209.9229246600968" fy="305.6222988383708"/>
        <radialGradient xmlns:xlink="http://www.w3.org/1999/xlink"
                        xlink:href="#radial-gradient-17" xlink:type="simple"
                        r="27.926" xlink:actuate="onLoad" cx="224.167"
                        cy="299.587" id="radial-gradient-21" xlink:show="other"/>
        <linearGradient x1="237" xmlns:xlink="http://www.w3.org/1999/xlink"
                        xlink:href="#linear-gradient-37" x2="255.915"
                        y1="416.989" y2="416.989" xlink:type="simple"
                        xlink:actuate="onLoad" id="linear-gradient-47"
                        xlink:show="other"/>
        <linearGradient x1="211.995" xmlns:xlink="http://www.w3.org/1999/xlink"
                        xlink:href="#linear-gradient-37" x2="222.741"
                        y1="289.275" y2="304.841" xlink:type="simple"
                        xlink:actuate="onLoad" id="linear-gradient-48"
                        xlink:show="other"/>
        <linearGradient x1="287.839" xmlns:xlink="http://www.w3.org/1999/xlink"
                        xlink:href="#linear-gradient-37" x2="306.754"
                        y1="416.989" y2="416.989" xlink:type="simple"
                        xlink:actuate="onLoad" id="linear-gradient-49"
                        xlink:show="other"/>
        <linearGradient x1="262.834" xmlns:xlink="http://www.w3.org/1999/xlink"
                        xlink:href="#linear-gradient-37" x2="273.58"
                        y1="289.275" y2="304.841" xlink:type="simple"
                        xlink:actuate="onLoad" id="linear-gradient-50"
                        xlink:show="other"/>
        <linearGradient x1="284.778" xmlns:xlink="http://www.w3.org/1999/xlink"
                        xlink:href="#linear-gradient-17" x2="284.778"
                        y1="479.644" y2="499.644" xlink:type="simple"
                        xlink:actuate="onLoad" id="linear-gradient-51"
                        xlink:show="other"/>
        <linearGradient x1="233.778" xmlns:xlink="http://www.w3.org/1999/xlink"
                        xlink:href="#linear-gradient-17" x2="233.778"
                        y1="499.644" y2="479.644" xlink:type="simple"
                        xlink:actuate="onLoad" id="linear-gradient-52"
                        xlink:show="other"/>
        <linearGradient x1="255.778" xmlns:xlink="http://www.w3.org/1999/xlink"
                        xlink:href="#linear-gradient-19" x2="255.778"
                        y1="479.642" y2="459.642" xlink:type="simple"
                        xlink:actuate="onLoad" id="linear-gradient-53"
                        xlink:show="other"/>
        <filter x="-25%" y="-25%" width="150%"
                xmlns:xlink="http://www.w3.org/1999/xlink"
                style="color-interpolation-filters:sRGB" xlink:type="simple"
                xlink:actuate="onLoad" id="selection-filter" height="150%"
                xlink:show="other">
            <feColorMatrix values="0.0 0.0 0.0 0.0 0.0 0.0 0.0 0.0 0.0 0.0 0.0 0.0 0.0 1.0 0.0 0.0 0.0 0.0 1.0 0.0"
                           type="matrix" result="selection1" in="SourceGraphic"/>
            <feMorphology operator="dilate" result="selection2" in="selection1"
                          radius="4.0"/>
            <feMerge result="selectionResult">
                <feMergeNode in="selection2"/>
                <feMergeNode in="SourceGraphic"/>
            </feMerge>
        </filter>
        <filter x="-25%" y="-25%" width="150%"
                xmlns:xlink="http://www.w3.org/1999/xlink"
                style="color-interpolation-filters:sRGB" xlink:type="simple"
                xlink:actuate="onLoad" id="flag-filter" height="150%"
                xlink:show="other">
            <feColorMatrix values="0.0 0.0 0.0 1.0 0.0 0.0 0.0 0.0 0.0 0.0 0.0 0.0 0.0 1.0 0.0 0.0 0.0 0.0 1.0 0.0"
                           type="matrix" result="flag1" in="SourceGraphic"/>
            <feMorphology operator="dilate" result="flag2" in="flag1"
                          radius="7.0"/>
            <feMerge result="flagResult">
                <feMergeNode in="flag2"/>
                <feMergeNode in="SourceGraphic"/>
            </feMerge>
        </filter>
        <filter xlink:actuate="onLoad" xlink:type="simple"
                id="selection-flag-filter" xlink:show="other"
                style="color-interpolation-filters:sRGB"
                xmlns:xlink="http://www.w3.org/1999/xlink">
            <feColorMatrix values="0.0 0.0 0.0 1.0 0.0 0.0 0.0 0.0 0.0 0.0 0.0 0.0 0.0 1.0 0.0 0.0 0.0 0.0 1.0 0.0"
                           type="matrix" result="flag1" in="SourceGraphic"/>
            <feMorphology operator="dilate" result="flag2" in="flag1"
                          radius="7.0"/>
            <feMerge result="flagResult">
                <feMergeNode in="flag2"/>
                <feMergeNode in="SourceGraphic"/>
            </feMerge>
            <feColorMatrix values="0.0 0.0 0.0 0.0 0.0 0.0 0.0 0.0 0.0 0.0 0.0 0.0 0.0 1.0 0.0 0.0 0.0 0.0 1.0 0.0"
                           type="matrix" result="selection1" in="SourceGraphic"/>
            <feMorphology operator="dilate" result="selection2" in="selection1"
                          radius="4.0"/>
            <feMerge result="selectionResult">
                <feMergeNode in="selection2"/>
                <feMergeNode in="SourceGraphic"/>
            </feMerge>
            <feMerge>
                <feMergeNode in="flagResult"/>
                <feMergeNode in="selectionResult"/>
            </feMerge>
        </filter>
    </defs>
    <title>
        R-HSA-500792
    </title>
    <g transform="translate(15.000000,15.000000)">
        <g id="BG">
            <g class="cls-2">
                <g id="BG-2" data-name="BG">
                    <ellipse rx="651.621" class="cls-3" cx="659.695"
                             ry="330.043" id="BG-3" cy="330.043" data-name="BG"/>
                    <rect x="10" y="354.343" width="1301.316" class="cls-4"
                          height="322.423" id="BG-4" data-name="BG"/>
                    <g id="MEMBRANE">
                        <rect width="1301.316" x="10" height="82.012"
                              y="304.604" id="MEMBRANE_BG" class="cls-5"/>
                        <line y2="386.616" id="LINE_BG" x1="1311.316" x2="10"
                              class="cls-6" y1="386.616"/>
                        <line x1="10" x2="1311.316" y1="304.604" y2="304.604"
                              class="cls-6" id="LINE_BG-2" data-name="LINE_BG"/>
                        <line y2="386.616" id="LINE_DOTS" x1="1311.316" x2="10"
                              class="cls-7" y1="386.616"/>
                        <line x1="10" x2="1311.316" y1="304.604" y2="304.604"
                              class="cls-7" id="LINE_DOTS-2"
                              data-name="LINE_DOTS"/>
                    </g>
                    <g id="Lysosomes">
                        <path id="R-ICO-012966"
                              d="M232.516,618c3.158.124,5.677,3.085,5.624,6.613s-2.655,6.288-5.814,6.163-5.677-3.085-5.624-6.613S229.358,617.88,232.516,618Z"
                              class="cls-8"
                              transform="translate(-27.947 -35.235)"/>
                        <path d="M415.277,504.556c3.158.124,5.677,3.085,5.624,6.613s-2.655,6.288-5.814,6.163-5.677-3.085-5.624-6.613S412.118,504.432,415.277,504.556Z"
                              id="R-ICO-012966-2" class="cls-9"
                              data-name="R-ICO-012966"
                              transform="translate(-27.947 -35.235)"/>
                        <path d="M545.285,524.557c3.158.124,5.677,3.085,5.624,6.613s-2.655,6.288-5.814,6.163-5.677-3.085-5.624-6.613S542.126,524.433,545.285,524.557Z"
                              id="R-ICO-012966-3" class="cls-10"
                              data-name="R-ICO-012966"
                              transform="translate(-27.947 -35.235)"/>
                        <path d="M1055.317,604.562c3.158.124,5.677,3.085,5.624,6.613s-2.655,6.288-5.814,6.163-5.677-3.085-5.624-6.613S1052.158,604.438,1055.317,604.562Z"
                              id="R-ICO-012966-4" class="cls-11"
                              data-name="R-ICO-012966"
                              transform="translate(-27.947 -35.235)"/>
                        <path d="M705.295,584.561c3.158.124,5.677,3.085,5.624,6.613s-2.655,6.288-5.814,6.163-5.677-3.085-5.624-6.613S702.136,584.437,705.295,584.561Z"
                              id="R-ICO-012966-5" class="cls-12"
                              data-name="R-ICO-012966"
                              transform="translate(-27.947 -35.235)"/>
                        <path d="M855.3,524.557c3.158.124,5.677,3.085,5.624,6.613s-2.655,6.288-5.814,6.163-5.677-3.085-5.624-6.613S852.146,524.433,855.3,524.557Z"
                              id="R-ICO-012966-6" class="cls-13"
                              data-name="R-ICO-012966"
                              transform="translate(-27.947 -35.235)"/>
                        <path d="M955.311,564.56c3.158.124,5.677,3.085,5.624,6.613s-2.655,6.288-5.814,6.163-5.677-3.085-5.624-6.613S952.152,564.436,955.311,564.56Z"
                              id="R-ICO-012966-7" class="cls-14"
                              data-name="R-ICO-012966"
                              transform="translate(-27.947 -35.235)"/>
                        <path d="M524.284,614.563c3.158.124,5.677,3.085,5.624,6.613s-2.655,6.288-5.814,6.163-5.677-3.085-5.624-6.613S521.125,614.439,524.284,614.563Z"
                              id="R-ICO-012966-8" class="cls-15"
                              data-name="R-ICO-012966"
                              transform="translate(-27.947 -35.235)"/>
                        <path d="M458.23,558.838c3.158.124,5.677,3.085,5.624,6.613s-2.655,6.288-5.814,6.163-5.677-3.085-5.624-6.613S455.071,558.713,458.23,558.838Z"
                              id="R-ICO-012966-9" class="cls-16"
                              data-name="R-ICO-012966"
                              transform="translate(-27.947 -35.235)"/>
                        <path d="M322.551,568.118c3.668.144,6.593,3.583,6.532,7.681s-3.084,7.3-6.752,7.159-6.593-3.583-6.532-7.681S318.882,567.974,322.551,568.118Z"
                              id="R-ICO-012966-10" class="cls-17"
                              data-name="R-ICO-012966"
                              transform="translate(-27.947 -35.235)"/>
                        <path d="M611.606,622.262c3.158.124,5.677,3.085,5.624,6.613s-2.655,6.288-5.814,6.163-5.677-3.085-5.624-6.613S608.447,622.138,611.606,622.262Z"
                              id="R-ICO-012966-11" class="cls-18"
                              data-name="R-ICO-012966"
                              transform="translate(-27.947 -35.235)"/>
                        <path d="M821.619,622.262c3.158.124,5.677,3.085,5.624,6.613s-2.655,6.288-5.814,6.163-5.677-3.085-5.624-6.613S818.46,622.138,821.619,622.262Z"
                              id="R-ICO-012966-12" class="cls-19"
                              data-name="R-ICO-012966"
                              transform="translate(-27.947 -35.235)"/>
                        <path d="M996.116,615.541c3.668.144,6.593,3.583,6.532,7.681s-3.084,7.3-6.752,7.159-6.593-3.583-6.532-7.681S992.448,615.4,996.116,615.541Z"
                              id="R-ICO-012966-13" class="cls-20"
                              data-name="R-ICO-012966"
                              transform="translate(-27.947 -35.235)"/>
                        <path d="M762.624,547.273c3.158.124,5.677,3.085,5.624,6.613s-2.655,6.288-5.814,6.163-5.677-3.085-5.624-6.613S759.466,547.149,762.624,547.273Z"
                              id="R-ICO-012966-14" class="cls-21"
                              data-name="R-ICO-012966"
                              transform="translate(-27.947 -35.235)"/>
                    </g>
                </g>
            </g>
            <g class="cls-22" id="LOGO">
                <path class="cls-23"
                      d="M1219.136,663.246a.5.5,0,0,1-.169.379.487.487,0,0,1-.282.072,2.882,2.882,0,0,1-.379-.032,3.005,3.005,0,0,0-1.828.306,2.493,2.493,0,0,0-.983.934,2.567,2.567,0,0,0-.354,1.337v4.9a.485.485,0,0,1-.129.346.463.463,0,0,1-.354.137.468.468,0,0,1-.483-.483v-7.845a.464.464,0,0,1,.137-.354.486.486,0,0,1,.346-.129.446.446,0,0,1,.483.483v1a3.421,3.421,0,0,1,1.192-1.16,3.1,3.1,0,0,1,1.578-.419Q1219.136,662.714,1219.136,663.246Z"
                      transform="translate(-27.947 -35.235)"/>
                <path class="cls-23"
                      d="M1226.022,663.286a3.835,3.835,0,0,1,1.442,1.538,4.75,4.75,0,0,1,.515,2.239.431.431,0,0,1-.129.33.475.475,0,0,1-.338.121h-6.749a3.593,3.593,0,0,0,.5,1.7,3.188,3.188,0,0,0,1.208,1.168,3.431,3.431,0,0,0,1.691.419,3.893,3.893,0,0,0,1.264-.217,2.7,2.7,0,0,0,1.007-.572.535.535,0,0,1,.338-.129.424.424,0,0,1,.322.741,4.086,4.086,0,0,1-1.345.773,4.581,4.581,0,0,1-1.587.306,4.442,4.442,0,0,1-2.263-.572,4.07,4.07,0,0,1-1.554-1.595,4.7,4.7,0,0,1-.564-2.311,5.035,5.035,0,0,1,.524-2.328,3.9,3.9,0,0,1,1.466-1.595,4.064,4.064,0,0,1,2.15-.572A4.007,4.007,0,0,1,1226.022,663.286Zm-4.22,1.184a3.544,3.544,0,0,0-1.023,2.207h6.266a3.36,3.36,0,0,0-.967-2.207,2.956,2.956,0,0,0-2.158-.838A2.923,2.923,0,0,0,1221.8,664.47Z"
                      transform="translate(-27.947 -35.235)"/>
                <path class="cls-23"
                      d="M1236.065,663.3a4.265,4.265,0,0,1,1.619,1.619,4.566,4.566,0,0,1,.588,2.3v3.914a.485.485,0,0,1-.129.346.463.463,0,0,1-.354.137.468.468,0,0,1-.483-.483v-1.257a3.746,3.746,0,0,1-1.458,1.345,4.347,4.347,0,0,1-2.07.491,4.563,4.563,0,0,1-2.3-.588,4.257,4.257,0,0,1-1.619-1.619,4.773,4.773,0,0,1,0-4.591,4.262,4.262,0,0,1,1.619-1.619,4.773,4.773,0,0,1,4.591,0Zm-.483,7.047a3.352,3.352,0,0,0,1.264-1.289,3.9,3.9,0,0,0,0-3.673,3.413,3.413,0,0,0-1.264-1.3,3.538,3.538,0,0,0-4.881,1.3,3.844,3.844,0,0,0,0,3.673,3.408,3.408,0,0,0,1.273,1.289,3.718,3.718,0,0,0,3.608,0Z"
                      transform="translate(-27.947 -35.235)"/>
                <path class="cls-23"
                      d="M1242.347,671.13a4.208,4.208,0,0,1-1.57-1.619,4.631,4.631,0,0,1-.572-2.287,4.9,4.9,0,0,1,.532-2.3,4.05,4.05,0,0,1,1.482-1.611,3.96,3.96,0,0,1,2.126-.588,4.365,4.365,0,0,1,1.885.4,4.147,4.147,0,0,1,1.482,1.192.514.514,0,0,1,.113.274.394.394,0,0,1-.226.354.385.385,0,0,1-.258.1.444.444,0,0,1-.37-.193,3.282,3.282,0,0,0-2.626-1.224,2.98,2.98,0,0,0-2.779,1.74,4.224,4.224,0,0,0-.395,1.852,3.862,3.862,0,0,0,.435,1.836,3.25,3.25,0,0,0,1.208,1.289,3.357,3.357,0,0,0,1.772.467,3.213,3.213,0,0,0,2.271-.789.464.464,0,0,1,.338-.145.393.393,0,0,1,.29.113.46.46,0,0,1,.161.354.367.367,0,0,1-.129.29,4,4,0,0,1-1.321.8,4.584,4.584,0,0,1-1.611.282A4.326,4.326,0,0,1,1242.347,671.13Z"
                      transform="translate(-27.947 -35.235)"/>
                <path class="cls-23"
                      d="M1254.581,670.776a.491.491,0,0,1,.137.362.47.47,0,0,1-.137.346.49.49,0,0,1-.362.137h-.37a3.082,3.082,0,0,1-1.578-.4,2.84,2.84,0,0,1-1.079-1.1,3.229,3.229,0,0,1-.387-1.587V664h-1.256a.435.435,0,1,1,0-.87h1.256v-2.626a.491.491,0,0,1,.137-.362.47.47,0,0,1,.346-.137.471.471,0,0,1,.5.5v2.626h2.126a.435.435,0,1,1,0,.87h-2.126v4.526a2.075,2.075,0,0,0,.58,1.522,2.012,2.012,0,0,0,1.5.588h.354A.491.491,0,0,1,1254.581,670.776Z"
                      transform="translate(-27.947 -35.235)"/>
                <path class="cls-23"
                      d="M1258.455,671.13a4.257,4.257,0,0,1-1.619-1.619,4.773,4.773,0,0,1,0-4.591,4.262,4.262,0,0,1,1.619-1.619,4.773,4.773,0,0,1,4.591,0,4.265,4.265,0,0,1,1.619,1.619,4.773,4.773,0,0,1,0,4.591,4.26,4.26,0,0,1-1.619,1.619,4.773,4.773,0,0,1-4.591,0Zm4.108-.781a3.352,3.352,0,0,0,1.264-1.289,3.9,3.9,0,0,0,0-3.673,3.413,3.413,0,0,0-1.264-1.3,3.538,3.538,0,0,0-4.881,1.3,3.844,3.844,0,0,0,0,3.673,3.408,3.408,0,0,0,1.273,1.289,3.718,3.718,0,0,0,3.608,0Z"
                      transform="translate(-27.947 -35.235)"/>
                <path class="cls-23"
                      d="M1278.686,663.181a3.233,3.233,0,0,1,1.176,1.345,4.425,4.425,0,0,1,.419,1.957v4.655a.484.484,0,0,1-.129.346.462.462,0,0,1-.354.137.468.468,0,0,1-.483-.483v-4.655a3.057,3.057,0,0,0-.661-2.03,2.108,2.108,0,0,0-1.691-.789,2.375,2.375,0,0,0-1.82.741,2.653,2.653,0,0,0-.661,1.965v4.768a.484.484,0,0,1-.129.346.462.462,0,0,1-.354.137.468.468,0,0,1-.483-.483v-4.655a3.057,3.057,0,0,0-.661-2.03,2.108,2.108,0,0,0-1.691-.789,2.428,2.428,0,0,0-2.529,2.545v4.929a.485.485,0,0,1-.129.346.463.463,0,0,1-.354.137.468.468,0,0,1-.483-.483v-7.845a.464.464,0,0,1,.137-.354.486.486,0,0,1,.346-.129.446.446,0,0,1,.483.483v.628a3.125,3.125,0,0,1,1.111-.9,3.191,3.191,0,0,1,1.417-.322,3.116,3.116,0,0,1,1.675.459,3.3,3.3,0,0,1,1.176,1.264,3.22,3.22,0,0,1,1.208-1.264,3.343,3.343,0,0,1,1.74-.459A3.135,3.135,0,0,1,1278.686,663.181Z"
                      transform="translate(-27.947 -35.235)"/>
                <path class="cls-23"
                      d="M1288.777,663.286a3.835,3.835,0,0,1,1.442,1.538,4.75,4.75,0,0,1,.515,2.239.431.431,0,0,1-.129.33.475.475,0,0,1-.338.121h-6.749a3.593,3.593,0,0,0,.5,1.7,3.188,3.188,0,0,0,1.208,1.168,3.431,3.431,0,0,0,1.691.419,3.893,3.893,0,0,0,1.264-.217,2.7,2.7,0,0,0,1.007-.572.535.535,0,0,1,.338-.129.424.424,0,0,1,.322.741,4.086,4.086,0,0,1-1.345.773,4.581,4.581,0,0,1-1.587.306,4.442,4.442,0,0,1-2.263-.572,4.07,4.07,0,0,1-1.554-1.595,4.7,4.7,0,0,1-.564-2.311,5.035,5.035,0,0,1,.524-2.328,3.9,3.9,0,0,1,1.466-1.595,4.064,4.064,0,0,1,2.15-.572A4.007,4.007,0,0,1,1288.777,663.286Zm-4.22,1.184a3.544,3.544,0,0,0-1.023,2.207h6.266a3.36,3.36,0,0,0-.967-2.207,2.956,2.956,0,0,0-2.158-.838A2.923,2.923,0,0,0,1284.557,664.47Z"
                      transform="translate(-27.947 -35.235)"/>
                <polygon class="cls-24"
                         points="1172.833 622.894 1172.833 619.028 1162.787 624.828 1162.787 636.428 1166.136 634.495 1166.136 626.761 1172.833 622.894"/>
                <polygon class="cls-25"
                         points="1166.136 634.495 1166.136 638.361 1169.485 636.428 1169.485 632.561 1166.136 634.495"/>
                <polygon class="cls-25"
                         points="1176.182 624.828 1176.182 620.961 1172.833 622.894 1172.833 626.761 1176.182 624.828"/>
                <polygon class="cls-26"
                         points="1169.485 628.695 1172.833 626.761 1172.833 622.894 1166.136 626.761 1166.136 634.495 1169.485 632.561 1169.485 628.695"/>
                <polygon class="cls-27"
                         points="1176.182 632.561 1176.182 632.561 1176.182 636.428 1179.531 634.495 1179.531 630.628 1176.182 632.561 1176.182 632.561"/>
                <polygon class="cls-27"
                         points="1179.531 626.761 1179.531 622.894 1176.182 624.828 1176.182 628.695 1179.531 626.761"/>
                <polygon class="cls-27"
                         points="1169.485 636.428 1169.485 640.295 1172.833 638.361 1172.833 634.495 1169.485 636.428"/>
                <polygon class="cls-28"
                         points="1172.833 630.628 1176.182 628.695 1176.182 624.828 1172.833 626.761 1172.833 630.628 1169.485 632.561 1169.485 636.428 1172.833 634.495 1172.833 630.628"/>
                <polygon class="cls-23"
                         points="1169.485 628.695 1169.485 632.561 1172.833 630.628 1172.833 626.761 1169.485 628.695"/>
                <polygon class="cls-23"
                         points="1179.531 626.761 1176.182 628.695 1172.833 630.628 1172.833 634.495 1172.833 638.361 1172.833 642.228 1176.182 640.295 1176.182 636.428 1176.182 632.561 1176.182 632.561 1176.182 632.561 1179.531 630.628 1182.879 628.695 1182.879 624.828 1179.531 626.761"/>
            </g>
        </g>
        <g id="REGION-R-HSA-420499">
            <polygon id="MASK-2" class="cls-29" data-name="MASK"
                     points="1205.823 49.663 842.053 55.796 842.053 547.727 1205.823 547.727 1205.823 49.663"/>
            <g id="R-ICO-012790">
                <path class="cls-30"
                      d="M1102.93,447.38a62.532,62.532,0,0,1-.641,10.236A30.077,30.077,0,0,1,1099,467.61l-.327.6c-.124.192-.264.376-.4.565l-.812,1.127a12.666,12.666,0,0,1-.946,1.043,7.593,7.593,0,0,1-1.034.978,13.437,13.437,0,0,1-5.163,2.659,14.438,14.438,0,0,1-5.814.057,17.937,17.937,0,0,1-5.242-2.036,25.705,25.705,0,0,1-7.91-7.286,39.08,39.08,0,0,1-4.923-9.25,55.715,55.715,0,0,1-2.682-9.98,66.8,66.8,0,0,1-.764-10.233.966.966,0,0,1,1.931-.031v.031a55.546,55.546,0,0,0,1.042,9.825,44.248,44.248,0,0,0,3.02,9.32,34.8,34.8,0,0,0,5.123,8.165,25.237,25.237,0,0,0,7.1,5.976,15.726,15.726,0,0,0,4.114,1.605,11.944,11.944,0,0,0,4.2.107,11.073,11.073,0,0,0,6.986-4.833,25.07,25.07,0,0,0,3.637-8.812,53.65,53.65,0,0,0,1.1-9.826v-.037a.845.845,0,0,1,1.689.037Z"
                      transform="translate(-27.947 -35.235)"/>
                <path class="cls-30"
                      d="M1064.776,466.19a50.714,50.714,0,0,1-.653,19.468,72.3,72.3,0,0,1-6.558,18.444,39.805,39.805,0,0,1-5.48,8.24,13.227,13.227,0,0,1-4.1,3.168,5.959,5.959,0,0,1-2.776.568,4.921,4.921,0,0,1-2.727-1.027,9.743,9.743,0,0,1-2.913-4.367,25.782,25.782,0,0,1-1.229-4.816,66.045,66.045,0,0,1-.758-9.717.952.952,0,0,1,1.9-.034v.034a54.271,54.271,0,0,0,.61,9.421,24.038,24.038,0,0,0,1.163,4.469,7.824,7.824,0,0,0,2.331,3.529,3.3,3.3,0,0,0,3.574.155,11.319,11.319,0,0,0,3.368-2.771,31,31,0,0,0,4.783-7.925,81.279,81.279,0,0,0,4.935-18.106c1.091-6.19,1.657-12.391,2.883-18.73v0a.835.835,0,0,1,1.64,0Z"
                      transform="translate(-27.947 -35.235)"/>
                <path class="cls-30"
                      d="M1141.059,466.19a57.908,57.908,0,0,1-4.5,23.207,53.392,53.392,0,0,1-5.782,10.516,47.11,47.11,0,0,1-8.23,8.839,37.588,37.588,0,0,1-10.482,6.213,21.194,21.194,0,0,1-12.352,1.176,14.21,14.21,0,0,1-3.021-1.144,13.767,13.767,0,0,1-2.641-1.857,15.123,15.123,0,0,1-3.611-5.14,29.79,29.79,0,0,1-2.026-11.85.966.966,0,0,1,1.932-.014v.014a26.354,26.354,0,0,0,2.137,10.914,12.413,12.413,0,0,0,3.178,4.227,11.255,11.255,0,0,0,2.193,1.373,11.536,11.536,0,0,0,2.465.783c3.442.661,7.108-.243,10.426-1.712a39.472,39.472,0,0,0,9.255-6.024,60.181,60.181,0,0,0,13.871-17.556,49.822,49.822,0,0,0,5.5-21.964.845.845,0,0,1,1.69,0Z"
                      transform="translate(-27.947 -35.235)"/>
                <path class="cls-30"
                      d="M1026.672,447.38a68.7,68.7,0,0,1-2.664,20.531,45.622,45.622,0,0,1-4.107,9.73,31.519,31.519,0,0,1-6.869,8.276,19.869,19.869,0,0,1-10.022,4.719l-1.443.133-1.464-.077a7.353,7.353,0,0,1-1.448-.231,7.066,7.066,0,0,1-1.414-.39,12.228,12.228,0,0,1-4.808-3.132,20.773,20.773,0,0,1-4.721-9.668,49.21,49.21,0,0,1-.981-10.383.966.966,0,0,1,1.931-.028v.028a42.167,42.167,0,0,0,1.23,9.843,17.116,17.116,0,0,0,4.478,8.241,8.974,8.974,0,0,0,8.106,2.216,13.426,13.426,0,0,0,4.19-1.6c.329-.2.67-.368,1-.574l.956-.663c.659-.4,1.218-.977,1.839-1.45a34.8,34.8,0,0,0,6.2-7.272,49.038,49.038,0,0,0,4.549-8.688,56.21,56.21,0,0,0,3.772-19.558v-.015a.845.845,0,0,1,1.69.015Z"
                      transform="translate(-27.947 -35.235)"/>
                <path class="cls-31"
                      d="M978.24,304.687v162.2c0,2.142,4.234,3.878,9.458,3.878s9.458-1.736,9.458-3.878v-162.2Z"
                      transform="translate(-27.947 -35.235)"/>
                <ellipse rx="9.458" ry="3.878" class="cls-32" cx="959.751"
                         cy="269.452"/>
                <path class="cls-33"
                      d="M1130.756,304.687v162.2c0,2.142,4.234,3.878,9.458,3.878s9.458-1.736,9.458-3.878v-162.2Z"
                      transform="translate(-27.947 -35.235)"/>
                <ellipse rx="9.458" ry="3.878" class="cls-34" cx="1112.267"
                         cy="269.452"/>
                <path class="cls-35"
                      d="M1054.5,273.652v162.2c0,2.142,4.234,3.878,9.458,3.878s9.458-1.736,9.458-3.878v-162.2Z"
                      transform="translate(-27.947 -35.235)"/>
                <ellipse rx="9.458" ry="3.878" class="cls-36" cx="1036.009"
                         cy="238.416"/>
                <path class="cls-37"
                      d="M1016.369,285.179v162.2c0,2.142,4.234,3.878,9.458,3.878s9.458-1.736,9.458-3.878v-162.2Z"
                      transform="translate(-27.947 -35.235)"/>
                <ellipse rx="9.458" ry="3.878" class="cls-38" cx="997.88"
                         cy="249.944"/>
                <path class="cls-39"
                      d="M1092.627,285.179v162.2c0,2.142,4.234,3.878,9.458,3.878s9.458-1.736,9.458-3.878v-162.2Z"
                      transform="translate(-27.947 -35.235)"/>
                <ellipse rx="9.458" ry="3.878" class="cls-40" cx="1074.138"
                         cy="249.944"/>
                <g id="R-ICO-012954">
                    <circle r="36.168" class="cls-41" cx="950.293" cy="204.699"/>
                    <circle r="36.168" class="cls-42" cx="950.293" cy="204.699"/>
                </g>
                <path class="cls-43"
                      d="M1029.078,333.949v162.2c0,2.142,4.234,3.878,9.458,3.878s9.458-1.736,9.458-3.878v-162.2Z"
                      transform="translate(-27.947 -35.235)"/>
                <ellipse rx="9.458" ry="3.878" class="cls-44" cx="1010.59"
                         cy="298.714"/>
                <path class="cls-45"
                      d="M1079.917,333.949v162.2c0,2.142,4.234,3.878,9.458,3.878s9.458-1.736,9.458-3.878v-162.2Z"
                      transform="translate(-27.947 -35.235)"/>
                <ellipse rx="9.458" ry="3.878" class="cls-46" cx="1061.428"
                         cy="298.714"/>
                <path class="cls-30"
                      d="M1063.111,273.652a53.639,53.639,0,0,0-1.1-9.826,25.072,25.072,0,0,0-3.637-8.812,11.074,11.074,0,0,0-6.986-4.833,11.945,11.945,0,0,0-4.2.107,15.726,15.726,0,0,0-4.114,1.605,25.237,25.237,0,0,0-7.1,5.976,34.8,34.8,0,0,0-5.123,8.165,44.241,44.241,0,0,0-3.02,9.32,55.546,55.546,0,0,0-1.042,9.825v.031a.966.966,0,0,1-1.931-.031,66.8,66.8,0,0,1,.764-10.233,55.715,55.715,0,0,1,2.682-9.98,39.08,39.08,0,0,1,4.923-9.25,25.706,25.706,0,0,1,7.91-7.286,17.936,17.936,0,0,1,5.242-2.036,14.437,14.437,0,0,1,5.814.057,13.436,13.436,0,0,1,5.163,2.659,7.578,7.578,0,0,1,1.034.978,12.649,12.649,0,0,1,.946,1.043l.812,1.127c.132.189.272.373.4.565l.327.6a30.074,30.074,0,0,1,3.285,9.994,62.518,62.518,0,0,1,.641,10.236.845.845,0,0,1-1.689.039Z"
                      transform="translate(-27.947 -35.235)"/>
                <path class="cls-30"
                      d="M1139.369,304.687a56.214,56.214,0,0,0-3.772-19.558,49.026,49.026,0,0,0-4.549-8.688,34.8,34.8,0,0,0-6.2-7.272c-.621-.473-1.18-1.046-1.839-1.45l-.956-.663c-.326-.206-.666-.376-1-.574a13.424,13.424,0,0,0-4.189-1.6,8.974,8.974,0,0,0-8.106,2.216,17.116,17.116,0,0,0-4.477,8.241,42.17,42.17,0,0,0-1.23,9.843v.028a.966.966,0,0,1-1.931-.028,49.2,49.2,0,0,1,.981-10.383,20.773,20.773,0,0,1,4.72-9.669,12.228,12.228,0,0,1,4.808-3.132,7.068,7.068,0,0,1,1.414-.39,7.355,7.355,0,0,1,1.448-.231l1.464-.077,1.443.133a19.869,19.869,0,0,1,10.022,4.719,31.518,31.518,0,0,1,6.869,8.276,45.622,45.622,0,0,1,4.107,9.73,68.7,68.7,0,0,1,2.663,20.531.845.845,0,0,1-1.69.017Z"
                      transform="translate(-27.947 -35.235)"/>
                <path class="cls-30"
                      d="M1088.53,333.949a45.041,45.041,0,0,0-1.54-10.727,27.134,27.134,0,0,0-4.777-9.427,22.446,22.446,0,0,0-17.87-8.409,24.27,24.27,0,0,0-18.123,8.634,26.753,26.753,0,0,0-5.044,9.293,37.313,37.313,0,0,0-1.673,10.635v.024a.966.966,0,0,1-1.931-.024,42.63,42.63,0,0,1,1.454-11.284,31.775,31.775,0,0,1,5.028-10.356,27.829,27.829,0,0,1,8.785-7.712,24.984,24.984,0,0,1,11.417-3.177,23.251,23.251,0,0,1,20.349,10.627,32.076,32.076,0,0,1,4.5,10.622,50.864,50.864,0,0,1,1.116,11.28.845.845,0,0,1-1.689.029Z"
                      transform="translate(-27.947 -35.235)"/>
                <path class="cls-47"
                      d="M987.7,304.687c0-32.549-24.2-24.437-37.33-41.7"
                      transform="translate(-27.947 -35.235)"/>
                <path class="cls-30"
                      d="M952.632,215.866a37.992,37.992,0,0,0-8.29,18.171,37.2,37.2,0,0,0-.2,9.976,41.855,41.855,0,0,0,2.406,9.7,37.156,37.156,0,0,0,4.889,8.86,32.462,32.462,0,0,0,7.4,7.1,32.03,32.03,0,0,0,9.362,4.288l2.515.578c.841.175,1.708.2,2.557.314l1.276.136c.427.02.857.008,1.285.014.856,0,1.708.023,2.558,0a40.146,40.146,0,0,0,9.916-2,41.453,41.453,0,0,0,8.919-4.5,37.694,37.694,0,0,0,7.279-6.76,40.552,40.552,0,0,0,5.129-8.469,38.7,38.7,0,0,0,2.6-9.561c.113-.822.127-1.655.2-2.483l.089-1.246,0-1.249a33.291,33.291,0,0,0-.44-4.977,36.514,36.514,0,0,0-8.427-18.1,1.026,1.026,0,0,1,1.481-1.416,35.907,35.907,0,0,1,10.438,18.885,36.93,36.93,0,0,1,.682,5.482l.053,1.383-.044,1.383c-.043.922-.033,1.85-.126,2.769a36.311,36.311,0,0,1-8.5,20.2,41.559,41.559,0,0,1-8.333,7.27,37.219,37.219,0,0,1-10.054,4.468l-2.687.582a22.614,22.614,0,0,1-2.715.355,40.709,40.709,0,0,1-5.438.183,42.9,42.9,0,0,1-10.584-1.928,9.226,9.226,0,0,1-1.265-.44l-1.253-.474-1.253-.471c-.411-.174-.8-.387-1.207-.579-.792-.411-1.621-.75-2.4-1.183l-2.3-1.368c-.777-.443-1.474-1.007-2.216-1.506l-1.1-.774-1.031-.862c-.681-.582-1.415-1.115-2.057-1.745l-1.917-1.912a38.956,38.956,0,0,1-6.2-8.955,35.525,35.525,0,0,1-2.732-21.553,34.8,34.8,0,0,1,10.258-18.977,1.026,1.026,0,0,1,1.493,1.4Z"
                      transform="translate(-27.947 -35.235)"/>
            </g>
            <g id="R-ICO-012744">
                <rect x="1047.856" y="479.644" width="58" rx="10" class="cls-48"
                      ry="10" height="20"/>
                <path class="cls-49"
                      d="M1123.8,534.979c-5.782-.008-11.565.3-17.347.558-5.782.305-11.565.364-17.347.408l-2.168,0-1.084,0-1.192-.061a10.711,10.711,0,0,1-4.5-1.538,10.984,10.984,0,0,1-5.138-7.67,10.668,10.668,0,0,1,10.78-12.347c5.782.174,11.565.3,17.347.223s11.565-.365,17.347-.508l2.168-.038,1.084-.016,1.174.054a10.451,10.451,0,0,1,6.7,17.452A10.691,10.691,0,0,1,1123.8,534.979Zm0-.2a9.465,9.465,0,0,0,9.233-11.441,9.652,9.652,0,0,0-1.641-3.644,10.071,10.071,0,0,0-2.938-2.636,9.643,9.643,0,0,0-3.717-1.24l-.991-.053-1.084-.016-2.168-.038c-5.782-.143-11.565-.435-17.347-.508s-11.565.049-17.347.223a9.543,9.543,0,0,0-7.014,3.515,9.242,9.242,0,0,0-1.911,7.427,9,9,0,0,0,4.354,6.192,9.284,9.284,0,0,0,3.651,1.2l.973.046,1.084,0,2.168,0c5.782.044,11.565.1,17.347.408C1112.239,534.481,1118.021,534.787,1123.8,534.779Z"
                      transform="translate(-27.947 -35.235)"/>
                <text class="cls-50" transform="translate(1049.183 492.957)">
                    G-gamma
                </text>
            </g>
            <g id="R-ICO-012743">
                <rect x="1003.856" y="479.644" width="44" rx="10" class="cls-51"
                      ry="10" height="20"/>
                <path class="cls-52"
                      d="M1065.8,534.979c-4.616-.008-9.231.3-13.847.558-2.308.137-4.616.259-6.924.3-1.164.032-2.284.061-3.485.05a10.561,10.561,0,0,1-3.74-.707,10.872,10.872,0,0,1-6.752-12.315,10.776,10.776,0,0,1,3.86-6.284,10.592,10.592,0,0,1,6.887-2.254c4.616.174,9.231.3,13.847.223,2.308-.033,4.616-.129,6.923-.232,1.161-.044,2.292-.108,3.478-.131a10.016,10.016,0,0,1,3.662.6,10.412,10.412,0,0,1,5.584,4.8,10.133,10.133,0,0,1,.946,7.24,10.607,10.607,0,0,1-3.893,5.933A11.041,11.041,0,0,1,1065.8,534.979Zm0-.2a9.332,9.332,0,0,0,6.212-2.417,9.626,9.626,0,0,0,2.994-5.763,9.807,9.807,0,0,0-5.9-10.257,9.016,9.016,0,0,0-3.089-.752c-1.121-.07-2.3-.1-3.445-.154-2.308-.1-4.616-.2-6.923-.232-4.616-.076-9.231.049-13.847.223a9.69,9.69,0,0,0-5.872,2.378,9.494,9.494,0,0,0-3.026,5.411,9.02,9.02,0,0,0,1.08,6.011,9.284,9.284,0,0,0,4.6,3.97,8.471,8.471,0,0,0,3.011.645l3.438.074c2.308.046,4.616.168,6.924.3C1056.572,534.481,1061.188,534.787,1065.8,534.779Z"
                      transform="translate(-27.947 -35.235)"/>
                <text class="cls-50" transform="translate(1006.855 492.957)">
                    G-beta
                </text>
            </g>
            <g id="R-ICO-012742">
                <rect x="1023.356" y="459.642" width="49" rx="10" class="cls-53"
                      ry="10" height="20"/>
                <path class="cls-52"
                      d="M1090.3,514.977c-5.032-.007-10.065.3-15.1.558-2.516.137-5.032.259-7.549.3-1.258.038-2.516.049-3.774.062-1.278-.007-2.45.085-3.9-.044a10.9,10.9,0,0,1-9.591-11.633,10.676,10.676,0,0,1,3.523-7.188,10.511,10.511,0,0,1,7.386-2.707c5.032.174,10.065.3,15.1.223,2.516-.033,5.032-.129,7.548-.232l3.774-.143a37.567,37.567,0,0,1,3.87-.049,10.371,10.371,0,0,1,7.049,3.784,10.175,10.175,0,0,1,2.257,7.6,10.461,10.461,0,0,1-3.575,6.82A10.776,10.776,0,0,1,1090.3,514.977Zm0-.2a9.322,9.322,0,0,0,6.662-2.827,9.5,9.5,0,0,0,2.681-6.514,9.778,9.778,0,0,0-2.353-6.394,9.61,9.61,0,0,0-5.9-3.26c-1.1-.149-2.432-.146-3.672-.205l-3.774-.143c-2.516-.1-5.032-.2-7.548-.232-5.032-.076-10.065.049-15.1.223a9.524,9.524,0,0,0-6.3,2.766,9.305,9.305,0,0,0-2.733,6.146,8.952,8.952,0,0,0,2.165,6.271,9.092,9.092,0,0,0,5.8,3.132c1.056.128,2.408.083,3.644.112,1.258.013,2.516.024,3.774.062,2.516.046,5.032.168,7.549.3C1080.239,514.479,1085.271,514.785,1090.3,514.777Z"
                      transform="translate(-27.947 -35.235)"/>
                <text class="cls-50" transform="translate(1025.52 472.955)">
                    G-alpha
                </text>
            </g>
            <g id="OVERLAY-R-HSA-420499">
                <rect x="906.119" y="69.663" width="258" rx="10" class="cls-54"
                      ry="10" height="43"/>
                <text class="cls-50" transform="translate(917.346 87.551)">
                    CLASS C/3 (METBOTROPIC GLU
                    <tspan x="187.336" class="cls-55" y="0">
                        T
                    </tspan>
                    <tspan x="193.775" y="0">
                        AM
                    </tspan>
                    <tspan x="212.438" class="cls-55" y="0">
                        A
                    </tspan>
                    <tspan x="220.213" y="0">
                        TE
                    </tspan>
                    <tspan x="34.207" y="14.4">
                        / PHEROMONE RECEP
                    </tspan>
                    <tspan x="164.227" class="cls-56" y="14.4">
                        T
                    </tspan>
                    <tspan x="171.34" y="14.4">
                        ORS)
                    </tspan>
                </text>
            </g>
            <g class="cls-57" id="ANALINFO">
                <rect x="906.119" y="49.663" width="258" rx="10" class="cls-58"
                      ry="10" height="20"/>
                <text class="cls-59" transform="translate(1015.853 61.83)">
                    XXX/YY
                    <tspan x="32.515" class="cls-56" y="0">
                        Y
                    </tspan>
                </text>
            </g>
        </g>
        <g id="REGION-R-HSA-373080">
            <rect x="446.053" y="55.796" width="396" class="cls-29"
                  height="491.931" id="MASK-3" data-name="MASK"/>
            <g id="R-ICO-012789">
                <path class="cls-60"
                      d="M711.847,447.38a62.512,62.512,0,0,1-.641,10.236,30.078,30.078,0,0,1-3.285,9.994l-.327.6c-.124.192-.264.376-.4.565l-.812,1.127a12.656,12.656,0,0,1-.946,1.043,7.582,7.582,0,0,1-1.034.978,13.437,13.437,0,0,1-5.163,2.659,14.438,14.438,0,0,1-5.814.057,17.936,17.936,0,0,1-5.242-2.036,25.705,25.705,0,0,1-7.91-7.286,39.078,39.078,0,0,1-4.923-9.25,55.715,55.715,0,0,1-2.682-9.98,66.792,66.792,0,0,1-.764-10.233.966.966,0,0,1,1.931-.031v.031a55.552,55.552,0,0,0,1.042,9.825A44.244,44.244,0,0,0,677.9,455a34.8,34.8,0,0,0,5.123,8.165,25.237,25.237,0,0,0,7.1,5.976,15.726,15.726,0,0,0,4.114,1.605,11.945,11.945,0,0,0,4.2.107,11.073,11.073,0,0,0,6.986-4.833,25.071,25.071,0,0,0,3.637-8.812,53.644,53.644,0,0,0,1.1-9.826v-.037a.845.845,0,0,1,1.689.037Z"
                      transform="translate(-27.947 -35.235)"/>
                <path class="cls-60"
                      d="M673.693,466.19a50.716,50.716,0,0,1-.653,19.468,72.3,72.3,0,0,1-6.558,18.444,39.81,39.81,0,0,1-5.48,8.24,13.226,13.226,0,0,1-4.1,3.168,5.958,5.958,0,0,1-2.776.568,4.921,4.921,0,0,1-2.727-1.027,9.741,9.741,0,0,1-2.913-4.367,25.782,25.782,0,0,1-1.229-4.816,66.045,66.045,0,0,1-.758-9.717.952.952,0,1,1,1.9-.034v.034a54.277,54.277,0,0,0,.61,9.421,24.038,24.038,0,0,0,1.163,4.469,7.823,7.823,0,0,0,2.331,3.529,3.3,3.3,0,0,0,3.574.155,11.318,11.318,0,0,0,3.368-2.771,31,31,0,0,0,4.783-7.925,81.285,81.285,0,0,0,4.935-18.106c1.091-6.19,1.657-12.391,2.883-18.73v0a.835.835,0,0,1,1.64,0Z"
                      transform="translate(-27.947 -35.235)"/>
                <path class="cls-60"
                      d="M749.976,466.19a57.908,57.908,0,0,1-4.5,23.207,53.389,53.389,0,0,1-5.782,10.516,47.106,47.106,0,0,1-8.23,8.839,37.588,37.588,0,0,1-10.482,6.213,21.193,21.193,0,0,1-12.352,1.176A14.209,14.209,0,0,1,705.6,515a13.767,13.767,0,0,1-2.641-1.857,15.122,15.122,0,0,1-3.611-5.14,29.79,29.79,0,0,1-2.026-11.85.966.966,0,0,1,1.932-.014v.014a26.355,26.355,0,0,0,2.137,10.914,12.415,12.415,0,0,0,3.178,4.227,11.255,11.255,0,0,0,2.193,1.373,11.538,11.538,0,0,0,2.465.783c3.442.661,7.108-.243,10.426-1.712a39.472,39.472,0,0,0,9.255-6.024,60.18,60.18,0,0,0,13.871-17.556,49.822,49.822,0,0,0,5.5-21.964.845.845,0,0,1,1.69,0Z"
                      transform="translate(-27.947 -35.235)"/>
                <path class="cls-60"
                      d="M635.589,447.38a68.7,68.7,0,0,1-2.663,20.531,45.625,45.625,0,0,1-4.107,9.73,31.519,31.519,0,0,1-6.869,8.276,19.869,19.869,0,0,1-10.022,4.719l-1.443.133-1.464-.077a7.353,7.353,0,0,1-1.448-.231,7.066,7.066,0,0,1-1.414-.39,12.228,12.228,0,0,1-4.808-3.132,20.773,20.773,0,0,1-4.721-9.668,49.21,49.21,0,0,1-.981-10.383.966.966,0,0,1,1.931-.028v.028a42.17,42.17,0,0,0,1.23,9.843,17.116,17.116,0,0,0,4.478,8.241,8.974,8.974,0,0,0,8.106,2.216,13.426,13.426,0,0,0,4.19-1.6c.329-.2.67-.368,1-.574l.956-.663c.659-.4,1.218-.977,1.839-1.45a34.8,34.8,0,0,0,6.2-7.272,49.038,49.038,0,0,0,4.549-8.688A56.211,56.211,0,0,0,633.9,447.38v-.015a.845.845,0,0,1,1.69.015Z"
                      transform="translate(-27.947 -35.235)"/>
                <path class="cls-61"
                      d="M587.157,304.687v162.2c0,2.142,4.234,3.878,9.458,3.878s9.458-1.736,9.458-3.878v-162.2Z"
                      transform="translate(-27.947 -35.235)"/>
                <ellipse rx="9.458" ry="3.878" class="cls-62" cx="568.668"
                         cy="269.452"/>
                <path class="cls-63"
                      d="M739.673,304.687v162.2c0,2.142,4.234,3.878,9.458,3.878s9.458-1.736,9.458-3.878v-162.2Z"
                      transform="translate(-27.947 -35.235)"/>
                <ellipse rx="9.458" ry="3.878" class="cls-64" cx="721.184"
                         cy="269.452"/>
                <path class="cls-65"
                      d="M663.415,273.652v162.2c0,2.142,4.234,3.878,9.458,3.878s9.458-1.736,9.458-3.878v-162.2Z"
                      transform="translate(-27.947 -35.235)"/>
                <ellipse rx="9.458" ry="3.878" class="cls-66" cx="644.926"
                         cy="238.416"/>
                <path class="cls-67"
                      d="M625.286,285.179v162.2c0,2.142,4.234,3.878,9.458,3.878s9.458-1.736,9.458-3.878v-162.2Z"
                      transform="translate(-27.947 -35.235)"/>
                <ellipse rx="9.458" ry="3.878" class="cls-68" cx="606.797"
                         cy="249.944"/>
                <path class="cls-69"
                      d="M701.544,285.179v162.2c0,2.142,4.234,3.878,9.458,3.878s9.458-1.736,9.458-3.878v-162.2Z"
                      transform="translate(-27.947 -35.235)"/>
                <ellipse rx="9.458" ry="3.878" class="cls-70" cx="683.055"
                         cy="249.944"/>
                <path class="cls-60"
                      d="M748.286,304.687a56.212,56.212,0,0,0-3.772-19.558,49.034,49.034,0,0,0-4.549-8.688,34.8,34.8,0,0,0-6.2-7.272c-.621-.473-1.18-1.046-1.839-1.45l-.956-.663c-.326-.206-.666-.376-1-.574a13.425,13.425,0,0,0-4.189-1.6,8.974,8.974,0,0,0-8.106,2.216,17.116,17.116,0,0,0-4.477,8.241,42.167,42.167,0,0,0-1.23,9.843v.028a.966.966,0,0,1-1.931-.028,49.217,49.217,0,0,1,.981-10.383,20.773,20.773,0,0,1,4.721-9.669A12.228,12.228,0,0,1,720.546,262a7.065,7.065,0,0,1,1.414-.39,7.354,7.354,0,0,1,1.448-.231l1.464-.077,1.443.133a19.869,19.869,0,0,1,10.022,4.719,31.52,31.52,0,0,1,6.869,8.276,45.628,45.628,0,0,1,4.107,9.73,68.7,68.7,0,0,1,2.663,20.531.845.845,0,0,1-1.69.017Z"
                      transform="translate(-27.947 -35.235)"/>
                <g id="R-ICO-012954-2" data-name="R-ICO-012954">
                    <circle r="59.841" class="cls-71" cx="644.926" cy="258.601"/>
                    <circle r="59.841" class="cls-72" cx="644.926" cy="258.601"/>
                </g>
                <path class="cls-73"
                      d="M638,333.949v162.2c0,2.142,4.234,3.878,9.458,3.878s9.458-1.736,9.458-3.878v-162.2Z"
                      transform="translate(-27.947 -35.235)"/>
                <ellipse rx="9.458" ry="3.878" class="cls-74" cx="619.507"
                         cy="298.714"/>
                <path class="cls-75"
                      d="M688.834,333.949v162.2c0,2.142,4.234,3.878,9.458,3.878s9.458-1.736,9.458-3.878v-162.2Z"
                      transform="translate(-27.947 -35.235)"/>
                <ellipse rx="9.458" ry="3.878" class="cls-76" cx="670.345"
                         cy="298.714"/>
                <path class="cls-60"
                      d="M697.447,333.949a45.037,45.037,0,0,0-1.54-10.727,27.133,27.133,0,0,0-4.778-9.427,22.446,22.446,0,0,0-17.87-8.409,24.27,24.27,0,0,0-18.123,8.634,26.753,26.753,0,0,0-5.044,9.293,37.315,37.315,0,0,0-1.673,10.635v.024a.966.966,0,0,1-1.931-.024,42.63,42.63,0,0,1,1.454-11.284,31.778,31.778,0,0,1,5.029-10.356,27.828,27.828,0,0,1,8.785-7.712,24.984,24.984,0,0,1,11.417-3.177,23.251,23.251,0,0,1,20.349,10.627,32.077,32.077,0,0,1,4.5,10.622,50.864,50.864,0,0,1,1.116,11.28.845.845,0,0,1-1.689.029Z"
                      transform="translate(-27.947 -35.235)"/>
                <path class="cls-60"
                      d="M595.379,304.687a64.972,64.972,0,0,1,3.036-17.5,71.544,71.544,0,0,1,7.467-16.021,85.441,85.441,0,0,1,10.869-13.936,109.079,109.079,0,0,1,13.355-11.661,99.4,99.4,0,0,1,15.255-9.359,69.218,69.218,0,0,1,17.187-5.866,48.94,48.94,0,0,1,18.486-.208,31.792,31.792,0,0,1,16.492,8.38A1.524,1.524,0,0,1,695.851,241l-.042-.018a57.424,57.424,0,0,0-15.832-4.215,65.275,65.275,0,0,0-16.351.157,82.349,82.349,0,0,0-31.792,11.212,78.216,78.216,0,0,0-24.45,23.983c-6.184,9.684-9.91,21.114-9.535,32.573a1.236,1.236,0,1,1-2.471.087C595.378,304.747,595.378,304.714,595.379,304.687Z"
                      transform="translate(-27.947 -35.235)"/>
            </g>
            <g id="R-ICO-012744-2" data-name="R-ICO-012744">
                <rect x="656.773" y="479.644" width="58" rx="10" class="cls-77"
                      ry="10" height="20"/>
                <path class="cls-49"
                      d="M732.72,534.979c-5.782-.008-11.565.3-17.347.558-5.782.305-11.565.364-17.347.408l-2.168,0-1.084,0-1.193-.061a10.71,10.71,0,0,1-4.5-1.538,10.984,10.984,0,0,1-5.138-7.67,10.668,10.668,0,0,1,10.78-12.347c5.782.174,11.565.3,17.347.223s11.565-.365,17.347-.508l2.168-.038,1.084-.016,1.174.054a10.451,10.451,0,0,1,6.7,17.452A10.69,10.69,0,0,1,732.72,534.979Zm0-.2a9.465,9.465,0,0,0,9.233-11.441,9.652,9.652,0,0,0-1.641-3.644,10.07,10.07,0,0,0-2.938-2.636,9.644,9.644,0,0,0-3.717-1.24l-.991-.053-1.084-.016-2.168-.038c-5.782-.143-11.565-.435-17.347-.508s-11.565.049-17.347.223a9.543,9.543,0,0,0-7.014,3.515,9.242,9.242,0,0,0-1.911,7.427,9,9,0,0,0,4.354,6.192,9.283,9.283,0,0,0,3.651,1.2l.973.046,1.084,0,2.168,0c5.782.044,11.565.1,17.347.408C721.156,534.481,726.938,534.787,732.72,534.779Z"
                      transform="translate(-27.947 -35.235)"/>
                <text class="cls-50" transform="translate(658.1 492.957)">
                    G-gamma
                </text>
            </g>
            <g id="R-ICO-012743-2" data-name="R-ICO-012743">
                <rect x="612.773" y="479.644" width="44" rx="10" class="cls-78"
                      ry="10" height="20"/>
                <path class="cls-52"
                      d="M674.72,534.979c-4.616-.008-9.231.3-13.847.558-2.308.137-4.616.259-6.923.3-1.164.032-2.284.061-3.485.05a10.561,10.561,0,0,1-3.74-.707,10.872,10.872,0,0,1-6.752-12.315,10.776,10.776,0,0,1,3.86-6.284,10.592,10.592,0,0,1,6.887-2.254c4.616.174,9.231.3,13.847.223,2.308-.033,4.616-.129,6.923-.232,1.161-.044,2.292-.108,3.478-.131a10.017,10.017,0,0,1,3.662.6,10.412,10.412,0,0,1,5.584,4.8,10.133,10.133,0,0,1,.946,7.24,10.607,10.607,0,0,1-3.893,5.933A11.041,11.041,0,0,1,674.72,534.979Zm0-.2a9.332,9.332,0,0,0,6.212-2.417,9.626,9.626,0,0,0,2.994-5.763,9.807,9.807,0,0,0-5.9-10.257,9.016,9.016,0,0,0-3.089-.752c-1.121-.07-2.3-.1-3.445-.154-2.308-.1-4.616-.2-6.923-.232-4.616-.076-9.231.049-13.847.223a9.689,9.689,0,0,0-5.872,2.378,9.494,9.494,0,0,0-3.026,5.411,9.02,9.02,0,0,0,1.08,6.011,9.285,9.285,0,0,0,4.6,3.97,8.471,8.471,0,0,0,3.011.645l3.438.074c2.308.046,4.616.168,6.923.3C665.489,534.481,670.1,534.787,674.72,534.779Z"
                      transform="translate(-27.947 -35.235)"/>
                <text class="cls-50" transform="translate(615.771 492.957)">
                    G-beta
                </text>
            </g>
            <g id="R-ICO-012742-2" data-name="R-ICO-012742">
                <rect x="632.273" y="459.642" width="49" rx="10" class="cls-79"
                      ry="10" height="20"/>
                <path class="cls-52"
                      d="M699.22,514.977c-5.032-.007-10.065.3-15.1.558-2.516.137-5.032.259-7.548.3-1.258.038-2.516.049-3.774.062-1.278-.007-2.45.085-3.9-.044a10.9,10.9,0,0,1-9.591-11.633,10.677,10.677,0,0,1,3.523-7.188,10.511,10.511,0,0,1,7.386-2.707c5.032.174,10.065.3,15.1.223,2.516-.033,5.032-.129,7.548-.232l3.774-.143a37.566,37.566,0,0,1,3.87-.049,10.371,10.371,0,0,1,7.049,3.784,10.175,10.175,0,0,1,2.257,7.6,10.46,10.46,0,0,1-3.575,6.82A10.776,10.776,0,0,1,699.22,514.977Zm0-.2a9.322,9.322,0,0,0,6.662-2.827,9.5,9.5,0,0,0,2.681-6.514,9.778,9.778,0,0,0-2.352-6.394,9.611,9.611,0,0,0-5.9-3.26c-1.1-.149-2.432-.146-3.672-.205l-3.774-.143c-2.516-.1-5.032-.2-7.548-.232-5.032-.076-10.065.049-15.1.223a9.524,9.524,0,0,0-6.3,2.766,9.3,9.3,0,0,0-2.733,6.146,8.952,8.952,0,0,0,2.165,6.271,9.091,9.091,0,0,0,5.8,3.132c1.056.128,2.408.083,3.644.112,1.258.013,2.516.024,3.774.062,2.516.046,5.032.168,7.548.3C689.156,514.479,694.188,514.785,699.22,514.777Z"
                      transform="translate(-27.947 -35.235)"/>
                <text class="cls-50" transform="translate(634.437 472.955)">
                    G-alpha
                </text>
            </g>
            <g id="OVERLAY-R-HSA-373080">
                <rect x="508.595" y="76.882" width="273" rx="10.138"
                      class="cls-54" ry="10.138" height="30"/>
                <text class="cls-50" transform="translate(516.183 94.77)">
                    CLASS B/2 (SECRETIN
                    <tspan x="134.016" class="cls-80" y="0">
                        F
                    </tspan>
                    <tspan x="140.684" y="0">
                        AMI
                    </tspan>
                    <tspan x="162.68" class="cls-81" y="0">
                        L
                    </tspan>
                    <tspan x="168.908" class="cls-56" y="0">
                        Y
                    </tspan>
                    <tspan x="176.695" y="0" xml:space="preserve"> RESEP</tspan><tspan x="220.711"
                           class="cls-56" y="0">
                        T
                    </tspan>
                    <tspan x="227.824" y="0">
                        ORS)
                    </tspan>
                </text>
            </g>
            <g class="cls-57" id="ANALINFO-2" data-name="ANALINFO">
                <rect x="508.595" y="56.882" width="273" rx="10" class="cls-58"
                      ry="10" height="20"/>
                <text class="cls-59" transform="translate(625.829 69.049)">
                    XXX/YY
                    <tspan x="32.515" class="cls-56" y="0">
                        Y
                    </tspan>
                </text>
            </g>
        </g>
        <g id="REGION-R-HSA-373076">
            <rect x="58.053" y="55.796" width="388" class="cls-29"
                  height="491.931" id="MASK-4" data-name="MASK"/>
            <g id="R-ICO-012788">
                <path class="cls-82"
                      d="M310.851,447.38a62.518,62.518,0,0,1-.641,10.236,30.078,30.078,0,0,1-3.285,9.994l-.327.6c-.124.192-.264.376-.4.565l-.812,1.127a12.656,12.656,0,0,1-.946,1.043,7.582,7.582,0,0,1-1.034.978,13.437,13.437,0,0,1-5.163,2.659,14.438,14.438,0,0,1-5.814.057,17.937,17.937,0,0,1-5.242-2.036,25.705,25.705,0,0,1-7.91-7.286,39.079,39.079,0,0,1-4.923-9.25,55.717,55.717,0,0,1-2.682-9.98,66.808,66.808,0,0,1-.764-10.233.966.966,0,0,1,1.931-.031v.031a55.552,55.552,0,0,0,1.042,9.825A44.246,44.246,0,0,0,276.9,455a34.8,34.8,0,0,0,5.123,8.165,25.237,25.237,0,0,0,7.1,5.976,15.726,15.726,0,0,0,4.114,1.605,11.945,11.945,0,0,0,4.2.107,11.073,11.073,0,0,0,6.986-4.833,25.071,25.071,0,0,0,3.637-8.812,53.647,53.647,0,0,0,1.1-9.826v-.037a.845.845,0,0,1,1.689.037Z"
                      transform="translate(-27.947 -35.235)"/>
                <path class="cls-82"
                      d="M272.529,466.19c1.424,6.458.843,13.084-.516,19.462a71.114,71.114,0,0,1-6.766,18.336,40.91,40.91,0,0,1-5.481,8.139,12.91,12.91,0,0,1-4,3.078,5.663,5.663,0,0,1-2.622.56,4.621,4.621,0,0,1-2.57-.945,7.139,7.139,0,0,1-1.731-1.966,12.335,12.335,0,0,1-1.108-2.265,25.554,25.554,0,0,1-1.245-4.761c-.27-1.607-.429-3.223-.537-4.837-.047-.807-.089-1.615-.107-2.422a15.7,15.7,0,0,1,.035-2.42.577.577,0,0,1,1.138-.021l0,.021a22.968,22.968,0,0,1,.112,2.382c.02.794.064,1.585.113,2.375.109,1.579.275,3.153.534,4.7a24.3,24.3,0,0,0,1.148,4.524,8.073,8.073,0,0,0,2.406,3.665,3.609,3.609,0,0,0,3.886.229,11.62,11.62,0,0,0,3.468-2.861,30.381,30.381,0,0,0,4.782-8.026,82.868,82.868,0,0,0,4.727-18.215c1.038-6.2,1.581-12.39,3.02-18.736a.668.668,0,0,1,.8-.509A.675.675,0,0,1,272.529,466.19Z"
                      transform="translate(-27.947 -35.235)"/>
                <path class="cls-82"
                      d="M348.98,466.19a57.909,57.909,0,0,1-4.5,23.207,53.391,53.391,0,0,1-5.782,10.516,47.107,47.107,0,0,1-8.23,8.839,37.588,37.588,0,0,1-10.482,6.213,21.193,21.193,0,0,1-12.352,1.176A14.211,14.211,0,0,1,304.609,515a13.768,13.768,0,0,1-2.641-1.857,15.121,15.121,0,0,1-3.611-5.14,29.79,29.79,0,0,1-2.026-11.85.966.966,0,0,1,1.932-.014v.014a26.354,26.354,0,0,0,2.137,10.914,12.414,12.414,0,0,0,3.178,4.227,11.255,11.255,0,0,0,2.193,1.373,11.538,11.538,0,0,0,2.465.783c3.442.661,7.108-.243,10.426-1.712a39.473,39.473,0,0,0,9.255-6.024,60.181,60.181,0,0,0,13.871-17.556,49.822,49.822,0,0,0,5.5-21.964.845.845,0,0,1,1.69,0Z"
                      transform="translate(-27.947 -35.235)"/>
                <path class="cls-82"
                      d="M234.593,447.38a68.7,68.7,0,0,1-2.663,20.531,45.626,45.626,0,0,1-4.107,9.73,31.52,31.52,0,0,1-6.869,8.276,19.87,19.87,0,0,1-10.022,4.719l-1.443.133-1.464-.077a7.353,7.353,0,0,1-1.448-.231,7.065,7.065,0,0,1-1.414-.39,12.228,12.228,0,0,1-4.808-3.132,20.773,20.773,0,0,1-4.721-9.668,49.212,49.212,0,0,1-.981-10.383.966.966,0,0,1,1.931-.028v.028a42.167,42.167,0,0,0,1.23,9.843,17.116,17.116,0,0,0,4.478,8.241,8.974,8.974,0,0,0,8.106,2.216,13.425,13.425,0,0,0,4.189-1.6c.329-.2.67-.368,1-.574l.956-.663c.659-.4,1.218-.977,1.839-1.45a34.8,34.8,0,0,0,6.2-7.272,49.035,49.035,0,0,0,4.549-8.688A56.211,56.211,0,0,0,232.9,447.38v-.015a.845.845,0,0,1,1.69.015Z"
                      transform="translate(-27.947 -35.235)"/>
                <path class="cls-83"
                      d="M186.161,304.687v162.2c0,2.142,4.234,3.878,9.458,3.878s9.458-1.736,9.458-3.878v-162.2Z"
                      transform="translate(-27.947 -35.235)"/>
                <ellipse rx="9.458" ry="3.878" class="cls-84" cx="167.672"
                         cy="269.452"/>
                <path class="cls-85"
                      d="M338.677,304.687v162.2c0,2.142,4.234,3.878,9.458,3.878s9.458-1.736,9.458-3.878v-162.2Z"
                      transform="translate(-27.947 -35.235)"/>
                <ellipse rx="9.458" ry="3.878" class="cls-86" cx="320.189"
                         cy="269.452"/>
                <path class="cls-87"
                      d="M262.419,273.652v162.2c0,2.142,4.234,3.878,9.458,3.878s9.458-1.736,9.458-3.878v-162.2Z"
                      transform="translate(-27.947 -35.235)"/>
                <ellipse rx="9.458" ry="3.878" class="cls-88" cx="243.93"
                         cy="238.416"/>
                <path class="cls-89"
                      d="M224.29,285.179v162.2c0,2.142,4.234,3.878,9.458,3.878s9.458-1.736,9.458-3.878v-162.2Z"
                      transform="translate(-27.947 -35.235)"/>
                <ellipse rx="9.458" ry="3.878" class="cls-90" cx="205.801"
                         cy="249.944"/>
                <path class="cls-91"
                      d="M300.548,285.179v162.2c0,2.142,4.234,3.878,9.458,3.878s9.458-1.736,9.458-3.878v-162.2Z"
                      transform="translate(-27.947 -35.235)"/>
                <ellipse rx="9.458" ry="3.878" class="cls-92" cx="282.059"
                         cy="249.944"/>
                <g id="R-ICO-012954-3" data-name="R-ICO-012954">
                    <circle r="59.841" class="cls-93" cx="243.93" cy="318.605"/>
                    <circle r="59.841" class="cls-94" cx="243.93" cy="318.605"/>
                </g>
                <path class="cls-95"
                      d="M237,333.949v162.2c0,2.142,4.234,3.878,9.458,3.878s9.458-1.736,9.458-3.878v-162.2Z"
                      transform="translate(-27.947 -35.235)"/>
                <ellipse rx="9.458" ry="3.878" class="cls-96" cx="218.511"
                         cy="298.714"/>
                <path class="cls-97"
                      d="M287.839,333.949v162.2c0,2.142,4.234,3.878,9.458,3.878s9.458-1.736,9.458-3.878v-162.2Z"
                      transform="translate(-27.947 -35.235)"/>
                <ellipse rx="9.458" ry="3.878" class="cls-98" cx="269.35"
                         cy="298.714"/>
                <path class="cls-82"
                      d="M271.032,273.652a53.647,53.647,0,0,0-1.1-9.826,25.072,25.072,0,0,0-3.637-8.812,11.074,11.074,0,0,0-6.986-4.833,11.945,11.945,0,0,0-4.2.107A15.726,15.726,0,0,0,251,251.893a25.237,25.237,0,0,0-7.1,5.976,34.8,34.8,0,0,0-5.123,8.165,44.245,44.245,0,0,0-3.02,9.32,55.549,55.549,0,0,0-1.042,9.825v.031a.966.966,0,0,1-1.931-.031,66.806,66.806,0,0,1,.764-10.233,55.719,55.719,0,0,1,2.682-9.98,39.08,39.08,0,0,1,4.923-9.25,25.706,25.706,0,0,1,7.91-7.286,17.936,17.936,0,0,1,5.242-2.036,14.437,14.437,0,0,1,5.814.057,13.436,13.436,0,0,1,5.163,2.659,7.584,7.584,0,0,1,1.034.978,12.664,12.664,0,0,1,.946,1.043l.812,1.127c.132.189.272.373.4.565l.327.6a30.078,30.078,0,0,1,3.285,9.994,62.515,62.515,0,0,1,.641,10.236.845.845,0,0,1-1.689.039Z"
                      transform="translate(-27.947 -35.235)"/>
                <path class="cls-82"
                      d="M347.29,304.687a56.213,56.213,0,0,0-3.772-19.558,49.034,49.034,0,0,0-4.549-8.688,34.8,34.8,0,0,0-6.2-7.272c-.621-.473-1.18-1.046-1.839-1.45l-.956-.663c-.326-.206-.666-.376-1-.574a13.425,13.425,0,0,0-4.189-1.6,8.974,8.974,0,0,0-8.106,2.216,17.116,17.116,0,0,0-4.477,8.241,42.169,42.169,0,0,0-1.23,9.843v.028a.966.966,0,0,1-1.931-.028,49.215,49.215,0,0,1,.981-10.383,20.773,20.773,0,0,1,4.721-9.669A12.228,12.228,0,0,1,319.55,262a7.066,7.066,0,0,1,1.414-.39,7.354,7.354,0,0,1,1.448-.231l1.464-.077,1.443.133a19.869,19.869,0,0,1,10.022,4.719,31.52,31.52,0,0,1,6.869,8.276,45.628,45.628,0,0,1,4.107,9.73,68.7,68.7,0,0,1,2.663,20.531.845.845,0,0,1-1.69.017Z"
                      transform="translate(-27.947 -35.235)"/>
                <path class="cls-82"
                      d="M296.451,333.949a45.04,45.04,0,0,0-1.54-10.727,27.133,27.133,0,0,0-4.778-9.427,22.446,22.446,0,0,0-17.87-8.409,24.27,24.27,0,0,0-18.123,8.634,26.753,26.753,0,0,0-5.044,9.293,37.316,37.316,0,0,0-1.673,10.635v.024a.966.966,0,0,1-1.931-.024,42.628,42.628,0,0,1,1.454-11.284,31.777,31.777,0,0,1,5.028-10.356,27.828,27.828,0,0,1,8.785-7.712,24.984,24.984,0,0,1,11.417-3.177,23.251,23.251,0,0,1,20.349,10.627,32.076,32.076,0,0,1,4.5,10.622,50.862,50.862,0,0,1,1.116,11.28.845.845,0,0,1-1.689.029Z"
                      transform="translate(-27.947 -35.235)"/>
                <path class="cls-82"
                      d="M194.271,304.687a169.291,169.291,0,0,0-.729-21.289,76.368,76.368,0,0,0-1.872-10.38,39.91,39.91,0,0,0-3.775-9.676,29.219,29.219,0,0,0-15.158-12.835,56.5,56.5,0,0,0-9.852-2.794c-3.4-.693-6.866-1.2-10.412-1.923l-.017,0a.662.662,0,0,1,.017-1.3,39.012,39.012,0,0,1,21.788,2.308,30.424,30.424,0,0,1,9.478,6.172,33.514,33.514,0,0,1,6.589,9.08c3.288,6.683,4.8,13.919,5.556,21.092.8,7.188.93,14.384,1.082,21.55a1.347,1.347,0,1,1-2.694.057C194.271,304.728,194.271,304.7,194.271,304.687Z"
                      transform="translate(-27.947 -35.235)"/>
            </g>
            <g id="R-ICO-012744-3" data-name="R-ICO-012744">
                <rect x="255.778" y="479.644" width="58" rx="10" class="cls-99"
                      ry="10" height="20"/>
                <path class="cls-49"
                      d="M331.724,534.979c-5.782-.008-11.565.3-17.347.558-5.782.305-11.565.364-17.347.408l-2.168,0-1.084,0-1.193-.061a10.71,10.71,0,0,1-4.5-1.538,10.984,10.984,0,0,1-5.138-7.67,10.668,10.668,0,0,1,10.78-12.347c5.782.174,11.565.3,17.347.223s11.565-.365,17.347-.508l2.168-.038,1.084-.016,1.174.054a10.451,10.451,0,0,1,6.7,17.452A10.69,10.69,0,0,1,331.724,534.979Zm0-.2a9.465,9.465,0,0,0,9.233-11.441,9.651,9.651,0,0,0-1.641-3.644,10.071,10.071,0,0,0-2.938-2.636,9.644,9.644,0,0,0-3.717-1.24l-.991-.053-1.084-.016-2.168-.038c-5.782-.143-11.565-.435-17.347-.508s-11.565.049-17.347.223a9.544,9.544,0,0,0-7.014,3.515,9.242,9.242,0,0,0-1.911,7.427,9,9,0,0,0,4.354,6.192,9.282,9.282,0,0,0,3.651,1.2l.973.046,1.084,0,2.168,0c5.782.044,11.565.1,17.347.408C320.16,534.481,325.942,534.787,331.724,534.779Z"
                      transform="translate(-27.947 -35.235)"/>
                <text class="cls-50" transform="translate(257.104 492.957)">
                    G-gamma
                </text>
            </g>
            <g id="R-ICO-012743-3" data-name="R-ICO-012743">
                <rect x="211.778" y="479.644" width="44" rx="10" class="cls-100"
                      ry="10" height="20"/>
                <path class="cls-52"
                      d="M273.724,534.979c-4.616-.008-9.231.3-13.847.558-2.308.137-4.616.259-6.923.3-1.164.032-2.284.061-3.485.05a10.561,10.561,0,0,1-3.74-.707,10.872,10.872,0,0,1-6.752-12.315,10.776,10.776,0,0,1,3.86-6.284,10.593,10.593,0,0,1,6.887-2.254c4.616.174,9.231.3,13.847.223,2.308-.033,4.616-.129,6.923-.232,1.161-.044,2.292-.108,3.478-.131a10.017,10.017,0,0,1,3.662.6,10.412,10.412,0,0,1,5.584,4.8,10.133,10.133,0,0,1,.946,7.24,10.608,10.608,0,0,1-3.893,5.933A11.041,11.041,0,0,1,273.724,534.979Zm0-.2a9.332,9.332,0,0,0,6.212-2.417,9.625,9.625,0,0,0,2.994-5.763,9.807,9.807,0,0,0-5.9-10.257,9.016,9.016,0,0,0-3.089-.752c-1.121-.07-2.3-.1-3.445-.154-2.308-.1-4.616-.2-6.923-.232-4.616-.076-9.231.049-13.847.223a9.689,9.689,0,0,0-5.872,2.378,9.494,9.494,0,0,0-3.026,5.411,9.02,9.02,0,0,0,1.08,6.011,9.285,9.285,0,0,0,4.6,3.97,8.471,8.471,0,0,0,3.011.645l3.438.074c2.308.046,4.616.168,6.923.3C264.493,534.481,269.109,534.787,273.724,534.779Z"
                      transform="translate(-27.947 -35.235)"/>
                <text class="cls-50" transform="translate(214.776 492.957)">
                    G-beta
                </text>
            </g>
            <g id="R-ICO-012742-3" data-name="R-ICO-012742">
                <rect x="231.278" y="459.642" width="49" rx="10" class="cls-101"
                      ry="10" height="20"/>
                <path class="cls-52"
                      d="M298.224,514.977c-5.032-.008-10.065.3-15.1.558-2.516.137-5.032.259-7.548.3-1.258.038-2.516.049-3.774.062-1.278-.007-2.45.085-3.9-.044a10.9,10.9,0,0,1-9.591-11.633,10.677,10.677,0,0,1,3.523-7.188,10.511,10.511,0,0,1,7.386-2.707c5.032.174,10.065.3,15.1.223,2.516-.033,5.032-.129,7.548-.232l3.774-.143a37.557,37.557,0,0,1,3.87-.049,10.371,10.371,0,0,1,7.049,3.784,10.175,10.175,0,0,1,2.257,7.6,10.46,10.46,0,0,1-3.575,6.82A10.776,10.776,0,0,1,298.224,514.977Zm0-.2a9.322,9.322,0,0,0,6.662-2.827,9.5,9.5,0,0,0,2.681-6.514,9.778,9.778,0,0,0-2.352-6.394,9.611,9.611,0,0,0-5.9-3.26c-1.1-.149-2.432-.146-3.672-.205l-3.774-.143c-2.516-.1-5.032-.2-7.548-.232-5.032-.076-10.065.049-15.1.223a9.523,9.523,0,0,0-6.3,2.766,9.3,9.3,0,0,0-2.733,6.146,8.952,8.952,0,0,0,2.165,6.271,9.091,9.091,0,0,0,5.8,3.132c1.056.128,2.408.084,3.644.112,1.258.013,2.516.024,3.774.062,2.516.046,5.032.168,7.548.3C288.16,514.479,293.192,514.785,298.224,514.777Z"
                      transform="translate(-27.947 -35.235)"/>
                <text class="cls-50" transform="translate(233.442 472.955)">
                    G-alpha
                </text>
            </g>
            <g id="OVERLAY-R-HSA-373076">
                <rect x="108.57" y="75.796" width="273" rx="10.138"
                      class="cls-54" ry="10.138" height="30"/>
                <text class="cls-50" transform="translate(117.391 93.685)">
                    CLASS
                    <tspan x="40.67" class="cls-102" y="0">
                    </tspan>
                    <tspan x="43.559" y="0">
                        A/1 (RHODOPSIN-LIKE RECEP
                    </tspan>
                    <tspan x="218.244" class="cls-56" y="0">
                        T
                    </tspan>
                    <tspan x="225.357" y="0">
                        ORS)
                    </tspan>
                </text>
            </g>
            <g class="cls-57" id="ANALINFO-3" data-name="ANALINFO">
                <rect x="108.57" y="55.796" width="273" rx="10" class="cls-58"
                      ry="10" height="20"/>
                <text class="cls-59" transform="translate(225.804 67.963)">
                    XXX/YY
                    <tspan x="32.515" class="cls-56" y="0">
                        Y
                    </tspan>
                </text>
            </g>
        </g>
    </g>
</svg>