
<svg contentScriptType="text/ecmascript" width="691.000"
     xmlns:xlink="http://www.w3.org/1999/xlink" zoomAndPan="magnify"
     contentStyleType="text/css" height="726.252" viewBox="0 0 691.000 726.252"
     id="Layer_1" data-name="Layer 1" preserveAspectRatio="xMidYMid meet"
     xmlns="http://www.w3.org/2000/svg" version="1.0">
    <defs>
        <style xml:space="preserve">.cls-1{fill:url(#linear-gradient);}.cls-2{fill:url(#linear-gradient-2);}.cls-3{fill:url(#linear-gradient-3);}.cls-4{fill:url(#linear-gradient-4);}.cls-5{fill:url(#linear-gradient-5);}.cls-6{fill:url(#radial-gradient);}.cls-7{mask:url(#mask);}.cls-8{fill:url(#linear-gradient-6);}.cls-9{fill:#ffcb70;}.cls-10,.cls-11,.cls-13,.cls-14,.cls-15,.cls-16,.cls-17,.cls-18{fill:none;}.cls-10{stroke:#ffbc47;}.cls-10,.cls-11{stroke-linecap:round;stroke-linejoin:round;stroke-width:3px;}.cls-11{stroke:#eba52c;stroke-dasharray:0.5 5;}.cls-12{fill:#0052af;}.cls-13,.cls-14,.cls-15,.cls-16,.cls-17,.cls-18{stroke-miterlimit:10;stroke-width:8px;}.cls-13{stroke:url(#linear-gradient-7);}.cls-14{stroke:url(#linear-gradient-8);}.cls-15{stroke:url(#linear-gradient-9);}.cls-16{stroke:url(#linear-gradient-10);}.cls-17{stroke:url(#linear-gradient-11);}.cls-18{stroke:url(#linear-gradient-12);}.cls-19{fill:url(#linear-gradient-13);}.cls-20{fill:url(#linear-gradient-14);}.cls-21{mask:url(#mask-2);}.cls-22{fill:url(#radial-gradient-2);}.cls-23{fill:#6e6ec7;}.cls-24{fill:url(#linear-gradient-15);}.cls-25{fill:url(#linear-gradient-16);}.cls-26{mask:url(#mask-3);}.cls-27{fill:url(#radial-gradient-3);}.cls-28{fill:url(#linear-gradient-17);}.cls-29{fill:url(#linear-gradient-18);}.cls-30{mask:url(#mask-4);}.cls-31{fill:url(#radial-gradient-4);}.cls-32{fill:url(#linear-gradient-19);}.cls-33{fill:url(#linear-gradient-20);}.cls-34{mask:url(#mask-5);}.cls-35{fill:url(#radial-gradient-5);}.cls-36{fill:url(#radial-gradient-6);}.cls-37{fill:url(#radial-gradient-7);}.cls-38{fill:url(#radial-gradient-8);}.cls-39{fill:url(#radial-gradient-9);}.cls-40{fill:url(#linear-gradient-21);}.cls-41{fill:#0053cc;}.cls-42,.cls-44,.cls-52,.cls-63{fill:#fff;}.cls-43{fill:url(#linear-gradient-22);}.cls-44{font-size:12px;}.cls-44,.cls-63{font-family: Arial;font-weight:700;}.cls-45{opacity:0.5;}.cls-46{fill:#2f9ec2;}.cls-47{fill:#d1eaf2;}.cls-48{fill:#9bd1e2;}.cls-49{fill:#80c4da;}.cls-50{fill:#65b7d2;}.cls-51{fill:#4aabca;}.cls-52,.cls-61{opacity:0;}.cls-53{fill:url(#linear-gradient-23);}.cls-54{fill:#004e00;}.cls-55{fill:url(#linear-gradient-24);}.cls-56{fill:#000079;}.cls-57{fill:url(#linear-gradient-25);}.cls-58{fill:url(#linear-gradient-26);}.cls-59{letter-spacing:-0.074em;}.cls-60{fill:#1281bb;}.cls-62{fill:#c6c5c4;}.cls-63{isolation:isolate;font-size:9px;}.cls-64{letter-spacing:-0.018em;}.cls-65{fill:url(#linear-gradient-27);}.cls-66{fill:#4e5641;}.cls-67{fill:url(#linear-gradient-28);}.cls-68{fill:#2764e0;}.cls-69{fill:url(#linear-gradient-29);}.cls-70{fill:#1c00cd;}.cls-71{fill:url(#linear-gradient-30);}.cls-72{fill:url(#linear-gradient-31);}.cls-73{fill:#a18536;}.cls-74{fill:url(#linear-gradient-32);}.cls-75{letter-spacing:-0.111em;}</style><linearGradient x1="343.859"
                        xmlns:xlink="http://www.w3.org/1999/xlink"
                        gradientUnits="userSpaceOnUse" x2="1025.633"
                        y1="500.029" y2="500.029" xlink:type="simple"
                        xlink:actuate="onLoad" id="linear-gradient"
                        xlink:show="other">
            <stop offset="0.014"/>
            <stop stop-color="#363636" offset="0.032"/>
            <stop stop-color="#bebebe" offset="0.073"/>
            <stop stop-color="#fff" offset="0.093"/>
            <stop stop-color="#fff" offset="0.903"/>
            <stop offset="0.984"/>
        </linearGradient>
        <linearGradient gradientTransform="matrix(-1, 0, 0, 1, 1203.772, 334.576)"
                        x1="710.948" xmlns:xlink="http://www.w3.org/1999/xlink"
                        gradientUnits="userSpaceOnUse" x2="710.948" y1="-12.342"
                        y2="-5.104" xlink:type="simple" xlink:actuate="onLoad"
                        id="linear-gradient-2" xlink:show="other">
            <stop offset="0"/>
            <stop stop-color="#4a4a4a" offset="0.217"/>
            <stop stop-color="#8b8b8b" offset="0.427"/>
            <stop stop-color="#bdbdbd" offset="0.617"/>
            <stop stop-color="#e1e1e1" offset="0.781"/>
            <stop stop-color="#f7f7f7" offset="0.914"/>
            <stop stop-color="#fff" offset="1"/>
        </linearGradient>
        <linearGradient gradientTransform="translate(-980.917 334.576)"
                        x1="1486.987" xmlns:xlink="http://www.w3.org/1999/xlink"
                        xlink:href="#linear-gradient-2" x2="1486.987"
                        y1="-12.342" y2="-5.104" xlink:type="simple"
                        xlink:actuate="onLoad" id="linear-gradient-3"
                        xlink:show="other"/>
        <linearGradient x1="343.426" xmlns:xlink="http://www.w3.org/1999/xlink"
                        xlink:href="#linear-gradient-2" x2="343.426"
                        y1="-12.342" y2="-5.104" xlink:type="simple"
                        xlink:actuate="onLoad" id="linear-gradient-4"
                        xlink:show="other"/>
        <linearGradient gradientTransform="translate(-980.917 334.576)"
                        x1="1854.509" xmlns:xlink="http://www.w3.org/1999/xlink"
                        xlink:href="#linear-gradient-2" x2="1854.509"
                        y1="-12.342" y2="-5.104" xlink:type="simple"
                        xlink:actuate="onLoad" id="linear-gradient-5"
                        xlink:show="other"/>
        <radialGradient gradientTransform="translate(358.688 145.196) scale(0.475 0.325)"
                        xmlns:xlink="http://www.w3.org/1999/xlink"
                        gradientUnits="userSpaceOnUse" xlink:type="simple"
                        r="644.857" xlink:actuate="onLoad" cx="682.68"
                        cy="404.02" id="radial-gradient" xlink:show="other">
            <stop stop-color="#b6d9e3" offset="0"/>
            <stop stop-color="#fff" offset="1"/>
        </radialGradient>
        <mask maskUnits="userSpaceOnUse" width="681.773" x="-8.641"
              height="515.37" id="mask" y="184.949">
            <g transform="translate(-352.5 -57.394)">
                <rect width="681.773" x="343.859" height="515.37" y="242.344"
                      class="cls-1"/>
            </g>
        </mask>
        <linearGradient x1="330.5" xmlns:xlink="http://www.w3.org/1999/xlink"
                        gradientUnits="userSpaceOnUse" x2="330.5" y1="220.504"
                        y2="696.252" xlink:type="simple" xlink:actuate="onLoad"
                        id="linear-gradient-6" xlink:show="other">
            <stop stop-color="#ffeac5" offset="0.72"/>
            <stop stop-color="#fff" offset="1"/>
        </linearGradient>
        <linearGradient gradientTransform="translate(691.823 -356.141) rotate(90)"
                        x1="878.09" xmlns:xlink="http://www.w3.org/1999/xlink"
                        gradientUnits="userSpaceOnUse" x2="947.555" y1="544.876"
                        y2="544.876" xlink:type="simple" xlink:actuate="onLoad"
                        id="linear-gradient-7" xlink:show="other">
            <stop stop-color="#9cdaff" offset="0"/>
            <stop stop-color="#0052af" offset="0.95"/>
        </linearGradient>
        <linearGradient x1="773.25" xmlns:xlink="http://www.w3.org/1999/xlink"
                        xlink:href="#linear-gradient-7" x2="828.896"
                        y1="544.876" y2="544.876" xlink:type="simple"
                        xlink:actuate="onLoad" id="linear-gradient-8"
                        xlink:show="other"/>
        <linearGradient gradientTransform="matrix(-0.866, 0.5, -0.5, -0.866, 1155.04, 502.084)"
                        x1="772.287" xmlns:xlink="http://www.w3.org/1999/xlink"
                        xlink:href="#linear-gradient-7" x2="827.933"
                        y1="508.541" y2="508.541" xlink:type="simple"
                        xlink:actuate="onLoad" id="linear-gradient-9"
                        xlink:show="other"/>
        <linearGradient x1="639.158" xmlns:xlink="http://www.w3.org/1999/xlink"
                        xlink:href="#linear-gradient-7" x2="697.054"
                        y1="544.876" y2="544.876" xlink:type="simple"
                        xlink:actuate="onLoad" id="linear-gradient-10"
                        xlink:show="other"/>
        <linearGradient x1="638.644" xmlns:xlink="http://www.w3.org/1999/xlink"
                        xlink:href="#linear-gradient-7" x2="710.561"
                        y1="177.341" y2="177.341" xlink:type="simple"
                        xlink:actuate="onLoad" id="linear-gradient-11"
                        xlink:show="other"/>
        <linearGradient x1="759.749" xmlns:xlink="http://www.w3.org/1999/xlink"
                        xlink:href="#linear-gradient-7" x2="947.555"
                        y1="177.341" y2="177.341" xlink:type="simple"
                        xlink:actuate="onLoad" id="linear-gradient-12"
                        xlink:show="other"/>
        <linearGradient gradientTransform="matrix(-1, 0, 0, 1, 1203.772, 334.576)"
                        x1="706.837" xmlns:xlink="http://www.w3.org/1999/xlink"
                        gradientUnits="userSpaceOnUse" x2="715.06" y1="-43.299"
                        y2="-43.299" xlink:type="simple" xlink:actuate="onLoad"
                        id="linear-gradient-13" xlink:show="other">
            <stop stop-color="#d2d2d2" offset="0"/>
            <stop stop-color="#5b5b5b" offset="1"/>
        </linearGradient>
        <linearGradient gradientTransform="matrix(0.959, -0.553, -0.512, -0.887, -766.088, 857.497)"
                        x1="1252.876" xmlns:xlink="http://www.w3.org/1999/xlink"
                        gradientUnits="userSpaceOnUse" x2="1261.127"
                        y1="-86.961" y2="-86.961" xlink:type="simple"
                        xlink:actuate="onLoad" id="linear-gradient-14"
                        xlink:show="other">
            <stop stop-color="#5b5b5b" offset="0"/>
            <stop stop-color="#d2d2d2" offset="1"/>
        </linearGradient>
        <mask maskUnits="userSpaceOnUse" width="8.223" x="136.212"
              height="7.181" id="mask-2" y="264.821">
            <g transform="translate(-352.5 -57.394)">
                <path class="cls-2"
                      d="M488.712,322.215v3.172a4.113,4.113,0,0,0,8.223,0v-3.172"/>
            </g>
        </mask>
        <radialGradient gradientTransform="matrix(-1, 0, 0, 2.266, 1203.772, 356.454)"
                        xmlns:xlink="http://www.w3.org/1999/xlink"
                        gradientUnits="userSpaceOnUse" xlink:type="simple"
                        r="5.631" xlink:actuate="onLoad" cx="710.736"
                        cy="-17.274" id="radial-gradient-2" xlink:show="other">
            <stop stop-color="#d2d2d2" offset="0"/>
            <stop stop-color="#939393" offset="0.469"/>
            <stop stop-color="#6a6a6a" offset="0.819"/>
            <stop stop-color="#5b5b5b" offset="1"/>
        </radialGradient>
        <linearGradient gradientTransform="translate(-980.917 334.576)"
                        x1="1482.875" xmlns:xlink="http://www.w3.org/1999/xlink"
                        xlink:href="#linear-gradient-13" x2="1491.099"
                        y1="-43.299" y2="-43.299" xlink:type="simple"
                        xlink:actuate="onLoad" id="linear-gradient-15"
                        xlink:show="other"/>
        <linearGradient gradientTransform="matrix(-0.959, -0.553, 0.512, -0.887, 988.943, 857.497)"
                        x1="645.677" xmlns:xlink="http://www.w3.org/1999/xlink"
                        xlink:href="#linear-gradient-14" x2="653.927"
                        y1="291.82" y2="291.82" xlink:type="simple"
                        xlink:actuate="onLoad" id="linear-gradient-16"
                        xlink:show="other"/>
        <mask maskUnits="userSpaceOnUse" width="8.223" x="149.458"
              height="7.181" id="mask-3" y="264.821">
            <g transform="translate(-352.5 -57.394)">
                <path class="cls-3"
                      d="M510.182,322.215v3.172a4.113,4.113,0,0,1-8.223,0v-3.172"/>
            </g>
        </mask>
        <radialGradient gradientTransform="translate(-980.917 356.454) scale(1 2.266)"
                        xmlns:xlink="http://www.w3.org/1999/xlink"
                        xlink:href="#radial-gradient-2" xlink:type="simple"
                        r="5.631" xlink:actuate="onLoad" cx="1486.774"
                        cy="-17.274" id="radial-gradient-3" xlink:show="other"/>
        <linearGradient x1="339.315" xmlns:xlink="http://www.w3.org/1999/xlink"
                        xlink:href="#linear-gradient-13" x2="347.538"
                        y1="-43.299" y2="-43.299" xlink:type="simple"
                        xlink:actuate="onLoad" id="linear-gradient-17"
                        xlink:show="other"/>
        <linearGradient x1="1540.438" xmlns:xlink="http://www.w3.org/1999/xlink"
                        xlink:href="#linear-gradient-14" x2="1548.689"
                        y1="-266.347" y2="-266.347" xlink:type="simple"
                        xlink:actuate="onLoad" id="linear-gradient-18"
                        xlink:show="other"/>
        <mask maskUnits="userSpaceOnUse" width="8.223" x="503.734"
              height="7.181" id="mask-4" y="264.821">
            <g transform="translate(-352.5 -57.394)">
                <path class="cls-4"
                      d="M856.234,322.215v3.172a4.113,4.113,0,0,0,8.223,0v-3.172"/>
            </g>
        </mask>
        <radialGradient xmlns:xlink="http://www.w3.org/1999/xlink"
                        xlink:href="#radial-gradient-2" xlink:type="simple"
                        r="5.631" xlink:actuate="onLoad" cx="343.213"
                        cy="-17.274" id="radial-gradient-4" xlink:show="other"/>
        <linearGradient gradientTransform="translate(-980.917 334.576)"
                        x1="1850.397" xmlns:xlink="http://www.w3.org/1999/xlink"
                        xlink:href="#linear-gradient-13" x2="1858.621"
                        y1="-43.299" y2="-43.299" xlink:type="simple"
                        xlink:actuate="onLoad" id="linear-gradient-19"
                        xlink:show="other"/>
        <linearGradient gradientTransform="matrix(-0.959, -0.553, 0.512, -0.887, 988.943, 857.497)"
                        x1="358.115" xmlns:xlink="http://www.w3.org/1999/xlink"
                        xlink:href="#linear-gradient-14" x2="366.365"
                        y1="471.206" y2="471.206" xlink:type="simple"
                        xlink:actuate="onLoad" id="linear-gradient-20"
                        xlink:show="other"/>
        <mask maskUnits="userSpaceOnUse" width="8.223" x="516.98" height="7.181"
              id="mask-5" y="264.821">
            <g transform="translate(-352.5 -57.394)">
                <path class="cls-5"
                      d="M877.7,322.215v3.172a4.113,4.113,0,0,1-8.223,0v-3.172"/>
            </g>
        </mask>
        <radialGradient gradientTransform="translate(-980.917 356.454) scale(1 2.266)"
                        xmlns:xlink="http://www.w3.org/1999/xlink"
                        xlink:href="#radial-gradient-2" xlink:type="simple"
                        r="5.631" xlink:actuate="onLoad" cx="1854.296"
                        cy="-17.274" id="radial-gradient-5" xlink:show="other"/>
        <radialGradient xmlns:xlink="http://www.w3.org/1999/xlink"
                        gradientUnits="userSpaceOnUse" xlink:type="simple"
                        r="12.437" xlink:actuate="onLoad" cx="145.474"
                        cy="168.48" id="radial-gradient-6" xlink:show="other">
            <stop stop-color="#e439ad" offset="0"/>
            <stop stop-color="#e138aa" offset="0.298"/>
            <stop stop-color="#d635a2" offset="0.559"/>
            <stop stop-color="#c43195" offset="0.806"/>
            <stop stop-color="#b02c86" offset="1"/>
        </radialGradient>
        <radialGradient xmlns:xlink="http://www.w3.org/1999/xlink"
                        gradientUnits="userSpaceOnUse" xlink:type="simple"
                        r="5.804" xlink:actuate="onLoad" cx="142.839"
                        cy="164.992" id="radial-gradient-7" xlink:show="other">
            <stop stop-color="#e8b1d7" offset="0"/>
            <stop stop-opacity="0.938" stop-color="#e8b1d7" offset="0.041"/>
            <stop stop-opacity="0.657" stop-color="#e8b1d7" offset="0.242"/>
            <stop stop-opacity="0.422" stop-color="#e8b1d7" offset="0.434"/>
            <stop stop-opacity="0.24" stop-color="#e8b1d7" offset="0.611"/>
            <stop stop-opacity="0.108" stop-color="#e8b1d7" offset="0.77"/>
            <stop stop-opacity="0.029" stop-color="#e8b1d7" offset="0.905"/>
            <stop stop-opacity="0" stop-color="#e8b1d7" offset="1"/>
        </radialGradient>
        <radialGradient xmlns:xlink="http://www.w3.org/1999/xlink"
                        xlink:href="#radial-gradient-6" xlink:type="simple"
                        r="12.437" xlink:actuate="onLoad" cx="513.009"
                        cy="168.48" id="radial-gradient-8" xlink:show="other"/>
        <radialGradient xmlns:xlink="http://www.w3.org/1999/xlink"
                        xlink:href="#radial-gradient-7" xlink:type="simple"
                        r="5.804" xlink:actuate="onLoad" cx="510.374"
                        cy="164.992" id="radial-gradient-9" xlink:show="other"/>
        <linearGradient gradientTransform="matrix(1, 0, 0, -1, -314.234, 712.606)"
                        x1="626.067" xmlns:xlink="http://www.w3.org/1999/xlink"
                        gradientUnits="userSpaceOnUse" x2="625.994" y1="276.187"
                        y2="263.076" xlink:type="simple" xlink:actuate="onLoad"
                        id="linear-gradient-21" xlink:show="other">
            <stop stop-color="#8b0068" offset="0"/>
            <stop stop-color="#8f0466" offset="0.02"/>
            <stop stop-color="#aa2357" offset="0.187"/>
            <stop stop-color="#bf3b4c" offset="0.363"/>
            <stop stop-color="#ce4c43" offset="0.548"/>
            <stop stop-color="#d7563f" offset="0.751"/>
            <stop stop-color="#da593d" offset="1"/>
        </linearGradient>
        <linearGradient x1="240.968" xmlns:xlink="http://www.w3.org/1999/xlink"
                        gradientUnits="userSpaceOnUse" x2="296.968" y1="442.778"
                        y2="442.778" xlink:type="simple" xlink:actuate="onLoad"
                        id="linear-gradient-22" xlink:show="other">
            <stop stop-color="#ff8500" offset="0"/>
            <stop stop-color="#0053cc" offset="1"/>
        </linearGradient>
        <linearGradient x1="865.581" xmlns:xlink="http://www.w3.org/1999/xlink"
                        xlink:href="#linear-gradient-21" x2="865.508"
                        y1="335.357" y2="322.247" xlink:type="simple"
                        xlink:actuate="onLoad" id="linear-gradient-23"
                        xlink:show="other"/>
        <linearGradient x1="872.203" xmlns:xlink="http://www.w3.org/1999/xlink"
                        xlink:href="#linear-gradient-21" x2="872.129"
                        y1="98.357" y2="85.247" xlink:type="simple"
                        xlink:actuate="onLoad" id="linear-gradient-24"
                        xlink:show="other"/>
        <linearGradient x1="514.556" xmlns:xlink="http://www.w3.org/1999/xlink"
                        gradientUnits="userSpaceOnUse" x2="514.556" y1="630.608"
                        y2="610.608" xlink:type="simple" xlink:actuate="onLoad"
                        id="linear-gradient-25" xlink:show="other">
            <stop stop-color="#000079" offset="0"/>
            <stop stop-color="#a27297" offset="1"/>
        </linearGradient>
        <linearGradient x1="514.556" xmlns:xlink="http://www.w3.org/1999/xlink"
                        gradientUnits="userSpaceOnUse" x2="514.556" y1="393.608"
                        y2="373.608" xlink:type="simple" xlink:actuate="onLoad"
                        id="linear-gradient-26" xlink:show="other">
            <stop stop-color="#ff93ac" offset="0"/>
            <stop stop-color="#004e00" offset="1"/>
        </linearGradient>
        <linearGradient x1="498.294" xmlns:xlink="http://www.w3.org/1999/xlink"
                        xlink:href="#linear-gradient-21" x2="498.22"
                        y1="335.357" y2="322.247" xlink:type="simple"
                        xlink:actuate="onLoad" id="linear-gradient-27"
                        xlink:show="other"/>
        <linearGradient x1="507.183" xmlns:xlink="http://www.w3.org/1999/xlink"
                        xlink:href="#linear-gradient-21" x2="507.109"
                        y1="216.857" y2="203.747" xlink:type="simple"
                        xlink:actuate="onLoad" id="linear-gradient-28"
                        xlink:show="other"/>
        <linearGradient x1="503.683" xmlns:xlink="http://www.w3.org/1999/xlink"
                        xlink:href="#linear-gradient-21" x2="503.609"
                        y1="98.357" y2="85.247" xlink:type="simple"
                        xlink:actuate="onLoad" id="linear-gradient-29"
                        xlink:show="other"/>
        <linearGradient x1="146.083" xmlns:xlink="http://www.w3.org/1999/xlink"
                        gradientUnits="userSpaceOnUse" x2="146.083" y1="630.608"
                        y2="610.608" xlink:type="simple" xlink:actuate="onLoad"
                        id="linear-gradient-30" xlink:show="other">
            <stop stop-color="#e07236" offset="0"/>
            <stop stop-color="#1c00cd" offset="1"/>
        </linearGradient>
        <linearGradient x1="146.083" xmlns:xlink="http://www.w3.org/1999/xlink"
                        gradientUnits="userSpaceOnUse" x2="146.083" y1="511.949"
                        y2="491.949" xlink:type="simple" xlink:actuate="onLoad"
                        id="linear-gradient-31" xlink:show="other">
            <stop stop-color="#5a910e" offset="0"/>
            <stop stop-color="#2764e0" offset="1"/>
        </linearGradient>
        <linearGradient x1="499.638" xmlns:xlink="http://www.w3.org/1999/xlink"
                        gradientUnits="userSpaceOnUse" x2="499.638" y1="466.003"
                        y2="416.001" xlink:type="simple" xlink:actuate="onLoad"
                        id="linear-gradient-32" xlink:show="other">
            <stop stop-color="#a18536" offset="0"/>
            <stop stop-color="#002b4c" offset="1"/>
        </linearGradient>
        <filter x="-25%" y="-25%" width="150%"
                xmlns:xlink="http://www.w3.org/1999/xlink"
                style="color-interpolation-filters:sRGB" xlink:type="simple"
                xlink:actuate="onLoad" id="selection-filter" height="150%"
                xlink:show="other">
            <feColorMatrix values="0.0 0.0 0.0 0.0 0.0 0.0 0.0 0.0 0.0 0.0 0.0 0.0 0.0 1.0 0.0 0.0 0.0 0.0 1.0 0.0"
                           type="matrix" result="selection1" in="SourceGraphic"/>
            <feMorphology operator="dilate" result="selection2" in="selection1"
                          radius="4.0"/>
            <feMerge result="selectionResult">
                <feMergeNode in="selection2"/>
                <feMergeNode in="SourceGraphic"/>
            </feMerge>
        </filter>
        <filter x="-25%" y="-25%" width="150%"
                xmlns:xlink="http://www.w3.org/1999/xlink"
                style="color-interpolation-filters:sRGB" xlink:type="simple"
                xlink:actuate="onLoad" id="flag-filter" height="150%"
                xlink:show="other">
            <feColorMatrix values="0.0 0.0 0.0 1.0 0.0 0.0 0.0 0.0 0.0 0.0 0.0 0.0 0.0 1.0 0.0 0.0 0.0 0.0 1.0 0.0"
                           type="matrix" result="flag1" in="SourceGraphic"/>
            <feMorphology operator="dilate" result="flag2" in="flag1"
                          radius="7.0"/>
            <feMerge result="flagResult">
                <feMergeNode in="flag2"/>
                <feMergeNode in="SourceGraphic"/>
            </feMerge>
        </filter>
        <filter xlink:actuate="onLoad" xlink:type="simple"
                id="selection-flag-filter" xlink:show="other"
                style="color-interpolation-filters:sRGB"
                xmlns:xlink="http://www.w3.org/1999/xlink">
            <feColorMatrix values="0.0 0.0 0.0 1.0 0.0 0.0 0.0 0.0 0.0 0.0 0.0 0.0 0.0 1.0 0.0 0.0 0.0 0.0 1.0 0.0"
                           type="matrix" result="flag1" in="SourceGraphic"/>
            <feMorphology operator="dilate" result="flag2" in="flag1"
                          radius="7.0"/>
            <feMerge result="flagResult">
                <feMergeNode in="flag2"/>
                <feMergeNode in="SourceGraphic"/>
            </feMerge>
            <feColorMatrix values="0.0 0.0 0.0 0.0 0.0 0.0 0.0 0.0 0.0 0.0 0.0 0.0 0.0 1.0 0.0 0.0 0.0 0.0 1.0 0.0"
                           type="matrix" result="selection1" in="SourceGraphic"/>
            <feMorphology operator="dilate" result="selection2" in="selection1"
                          radius="4.0"/>
            <feMerge result="selectionResult">
                <feMergeNode in="selection2"/>
                <feMergeNode in="SourceGraphic"/>
            </feMerge>
            <feMerge>
                <feMergeNode in="flagResult"/>
                <feMergeNode in="selectionResult"/>
            </feMerge>
        </filter>
    </defs>
    <title>
        R-HSA-5683057
    </title>
    <g transform="translate(15.000000,15.000000)">
        <g id="BG">
            <g id="BG-2" data-name="BG">
                <path class="cls-6"
                      d="M996,276.532c0,121.026-140.292,222.086-313.32,219.138-270.982-4.618-313.32-98.111-313.32-219.138S509.638,57.394,682.68,57.394,996,155.506,996,276.532Z"
                      transform="translate(-352.5 -57.394)"/>
            </g>
            <g class="cls-7">
                <g id="R-ICO-013570">
                    <rect width="658" x="1.5" height="475.748" y="220.504"
                          id="CELL" class="cls-8"/>
                    <path id="MEMBRANE_BG"
                          d="M993.894,273.722c-6.035-.252-12.07-.533-18.106-.971-12.07-.852-24.141-2.143-36.211-2.3-6.035-.105-12.07-.059-18.106.291s-12.07,1-18.106,1.6c-6.035.617-12.07,1.127-18.106,1.472-6.035.377-12.07.706-18.106.914h0c-15.342-.11-30.684-.738-46.026-1.008-15.342-.252-30.684-.533-46.026-.971-30.684-.858-61.368-2.136-92.053-2.293-15.342-.09-30.684-.053-46.026.286s-30.684.992-46.026,1.6-30.684,1.141-46.026,1.458-30.684.739-46.026.928h0c-6.039-.1-12.079-.745-18.118-1.008s-12.079-.533-18.118-.971c-12.079-.852-24.157-2.143-36.236-2.3-6.039-.105-12.079-.059-18.118.291s-12.079,1-18.118,1.6c-6.039.617-12.079,1.127-18.118,1.472-6.039.377-12.079.706-18.118.914v6.338c6.039.208,12.079.537,18.118.914,6.039.345,12.079.855,18.118,1.472,6.039.6,12.079,1.26,18.118,1.6s12.079.4,18.118.291c12.079-.157,24.157-1.447,36.236-2.3,6.039-.438,12.079-.719,18.118-.971s12.079-.908,18.118-1.007h0c15.342.188,30.684.607,46.026.927s30.684.847,46.026,1.458,30.684,1.248,46.026,1.6,30.684.376,46.026.286c30.684-.157,61.368-1.435,92.053-2.293,15.342-.438,30.684-.719,46.026-.971,15.342-.269,30.684-.9,46.026-1.007h0c6.035.208,12.07.537,18.106.914,6.035.345,12.07.855,18.106,1.472,6.035.6,12.07,1.26,18.106,1.6s12.07.4,18.106.291c12.07-.157,24.141-1.447,36.211-2.3,6.035-.438,12.07-.719,18.106-.971s12.07-.455,18.106-.555v-7.244Q1002.947,274.128,993.894,273.722Z"
                          class="cls-9" transform="translate(-352.5 -57.394)"/>
                    <path id="MEMBRANE_LINES"
                          d="M993.894,273.722c-6.035-.252-12.07-.533-18.106-.971-12.07-.852-24.141-2.143-36.211-2.3-6.035-.105-12.07-.059-18.106.291s-12.07,1-18.106,1.6c-6.035.617-12.07,1.127-18.106,1.472-6.035.377-12.07.706-18.106.914h0c-15.342-.11-30.684-.738-46.026-1.008-15.342-.252-30.684-.533-46.026-.971-30.684-.858-61.368-2.136-92.053-2.293-15.342-.09-30.684-.053-46.026.286s-30.684.992-46.026,1.6-30.684,1.141-46.026,1.458-30.684.739-46.026.928h0c-6.039-.1-12.079-.745-18.118-1.008s-12.079-.533-18.118-.971c-12.079-.852-24.157-2.143-36.236-2.3-6.039-.105-12.079-.059-18.118.291s-12.079,1-18.118,1.6c-6.039.617-12.079,1.127-18.118,1.472-6.039.377-12.079.706-18.118.914v6.338c6.039.208,12.079.537,18.118.914,6.039.345,12.079.855,18.118,1.472,6.039.6,12.079,1.26,18.118,1.6s12.079.4,18.118.291c12.079-.157,24.157-1.447,36.236-2.3,6.039-.438,12.079-.719,18.118-.971s12.079-.908,18.118-1.007h0c15.342.188,30.684.607,46.026.927s30.684.847,46.026,1.458,30.684,1.248,46.026,1.6,30.684.376,46.026.286c30.684-.157,61.368-1.435,92.053-2.293,15.342-.438,30.684-.719,46.026-.971,15.342-.269,30.684-.9,46.026-1.007h0c6.035.208,12.07.537,18.106.914,6.035.345,12.07.855,18.106,1.472,6.035.6,12.07,1.26,18.106,1.6s12.07.4,18.106.291c12.07-.157,24.141-1.447,36.211-2.3,6.035-.438,12.07-.719,18.106-.971s12.07-.455,18.106-.555v-7.244Q1002.947,274.128,993.894,273.722Z"
                          class="cls-10" transform="translate(-352.5 -57.394)"/>
                    <path id="MEMBRANE_DOTED"
                          d="M993.894,273.722c-6.035-.252-12.07-.533-18.106-.971-12.07-.852-24.141-2.143-36.211-2.3-6.035-.105-12.07-.059-18.106.291s-12.07,1-18.106,1.6c-6.035.617-12.07,1.127-18.106,1.472-6.035.377-12.07.706-18.106.914h0c-15.342-.11-30.684-.738-46.026-1.008-15.342-.252-30.684-.533-46.026-.971-30.684-.858-61.368-2.136-92.053-2.293-15.342-.09-30.684-.053-46.026.286s-30.684.992-46.026,1.6-30.684,1.141-46.026,1.458-30.684.739-46.026.928h0c-6.039-.1-12.079-.745-18.118-1.008s-12.079-.533-18.118-.971c-12.079-.852-24.157-2.143-36.236-2.3-6.039-.105-12.079-.059-18.118.291s-12.079,1-18.118,1.6c-6.039.617-12.079,1.127-18.118,1.472-6.039.377-12.079.706-18.118.914v6.338c6.039.208,12.079.537,18.118.914,6.039.345,12.079.855,18.118,1.472,6.039.6,12.079,1.26,18.118,1.6s12.079.4,18.118.291c12.079-.157,24.157-1.447,36.236-2.3,6.039-.438,12.079-.719,18.118-.971s12.079-.908,18.118-1.007h0c15.342.188,30.684.607,46.026.927s30.684.847,46.026,1.458,30.684,1.248,46.026,1.6,30.684.376,46.026.286c30.684-.157,61.368-1.435,92.053-2.293,15.342-.438,30.684-.719,46.026-.971,15.342-.269,30.684-.9,46.026-1.007h0c6.035.208,12.07.537,18.106.914,6.035.345,12.07.855,18.106,1.472,6.035.6,12.07,1.26,18.106,1.6s12.07.4,18.106.291c12.07-.157,24.141-1.447,36.211-2.3,6.035-.438,12.07-.719,18.106-.971s12.07-.455,18.106-.555v-7.244Q1002.947,274.128,993.894,273.722Z"
                          class="cls-11" transform="translate(-352.5 -57.394)"/>
                </g>
            </g>
            <g id="ARROWS">
                <g id="R-ICO-012348">
                    <polygon class="cls-12"
                             points="154.638 590.707 146.947 600.607 139.256 590.707 154.638 590.707"/>
                    <line y2="521.95" x1="146.947" x2="146.947" class="cls-13"
                          y1="591.414"/>
                </g>
                <g id="R-ICO-012348-2" data-name="R-ICO-012348">
                    <polygon class="cls-12"
                             points="154.638 472.048 146.947 481.948 139.256 472.048 154.638 472.048"/>
                    <line y2="417.109" x1="146.947" x2="146.947" class="cls-14"
                          y1="472.755"/>
                </g>
                <g id="R-ICO-012348-3" data-name="R-ICO-012348">
                    <polygon class="cls-12"
                             points="188.216 481.948 175.797 480.238 180.525 468.627 188.216 481.948"/>
                    <line y2="447.818" x1="183.758" x2="231.949" class="cls-15"
                          y1="475.641"/>
                </g>
                <g id="R-ICO-012348-4" data-name="R-ICO-012348">
                    <polygon class="cls-12"
                             points="154.638 340.206 146.947 350.106 139.256 340.206 154.638 340.206"/>
                    <line y2="283.017" x1="146.947" x2="146.947" class="cls-16"
                          y1="340.913"/>
                </g>
                <g id="R-ICO-012348-5" data-name="R-ICO-012348">
                    <polygon class="cls-12"
                             points="522.173 353.714 514.482 363.614 506.791 353.714 522.173 353.714"/>
                    <line y2="282.503" x1="514.482" x2="514.482" class="cls-17"
                          y1="354.421"/>
                </g>
                <g id="R-ICO-012348-6" data-name="R-ICO-012348">
                    <polygon class="cls-12"
                             points="522.173 590.707 514.482 600.607 506.791 590.707 522.173 590.707"/>
                    <line y2="403.609" x1="514.482" x2="514.482" class="cls-18"
                          y1="591.414"/>
                </g>
            </g>
            <g id="R-ICO-013284">
                <path class="cls-19"
                      d="M492.824,329.4a4.112,4.112,0,0,1-4.112-4.112V257.1l8.223-3.939v72.126A4.112,4.112,0,0,1,492.824,329.4Z"
                      transform="translate(-352.5 -57.394)"/>
                <path class="cls-20"
                      d="M474.214,222.889a4.391,4.391,0,0,1,6.047,1.372l16.024,27.707.651,1.191-8.223,3.939-16.336-28.287A4.391,4.391,0,0,1,474.214,222.889Z"
                      transform="translate(-352.5 -57.394)"/>
                <g class="cls-21">
                    <path class="cls-22"
                          d="M488.712,322.215v3.172a4.113,4.113,0,0,0,8.223,0v-3.172"
                          transform="translate(-352.5 -57.394)"/>
                </g>
                <path class="cls-23"
                      d="M492.831,329.9c-.152,0-.305-.007-.459-.022a4.744,4.744,0,0,1-4.16-4.767V257.682a1.681,1.681,0,0,0-.225-.839l-16.044-27.782a4.523,4.523,0,0,1-.378-3.643,5.317,5.317,0,0,1,6.163-3.557,4.523,4.523,0,0,1,2.965,2.15l16.008,27.7a4.589,4.589,0,0,1,.733,2.471v71.1a4.624,4.624,0,0,1-1.511,3.414A4.559,4.559,0,0,1,492.831,329.9Zm-16.219-107.16a4.3,4.3,0,0,0-2.147.586,4.213,4.213,0,0,0-1.944,2.392,3.536,3.536,0,0,0,.289,2.847l16.044,27.782a2.686,2.686,0,0,1,.358,1.339v67.426a3.737,3.737,0,0,0,3.255,3.771,3.613,3.613,0,0,0,3.969-3.595v-71.1a3.6,3.6,0,0,0-.582-1.941l-.012-.02-16.014-27.714a3.536,3.536,0,0,0-2.32-1.675A4.047,4.047,0,0,0,476.612,222.737Z"
                      transform="translate(-352.5 -57.394)"/>
                <path class="cls-24"
                      d="M506.07,329.4a4.112,4.112,0,0,0,4.112-4.112V257.1l-8.223-3.939v72.126A4.112,4.112,0,0,0,506.07,329.4Z"
                      transform="translate(-352.5 -57.394)"/>
                <path class="cls-25"
                      d="M524.68,222.889a4.391,4.391,0,0,0-6.047,1.372L502.61,251.968l-.651,1.191,8.223,3.939,16.336-28.287A4.391,4.391,0,0,0,524.68,222.889Z"
                      transform="translate(-352.5 -57.394)"/>
                <g class="cls-26">
                    <path class="cls-27"
                          d="M510.182,322.215v3.172a4.113,4.113,0,0,1-8.223,0v-3.172"
                          transform="translate(-352.5 -57.394)"/>
                </g>
                <path class="cls-23"
                      d="M502.969,328.7a4.624,4.624,0,0,1-1.511-3.414v-71.1a4.589,4.589,0,0,1,.733-2.471l16.008-27.7a4.523,4.523,0,0,1,2.965-2.15,5.317,5.317,0,0,1,6.163,3.557,4.523,4.523,0,0,1-.378,3.643l-16.044,27.782a1.681,1.681,0,0,0-.225.839v67.426a4.744,4.744,0,0,1-4.16,4.767c-.154.015-.307.022-.459.022A4.559,4.559,0,0,1,502.969,328.7Zm18.417-105.862a3.536,3.536,0,0,0-2.32,1.675l-16.014,27.714-.012.02a3.6,3.6,0,0,0-.582,1.941v71.1a3.613,3.613,0,0,0,3.969,3.595,3.737,3.737,0,0,0,3.255-3.771V257.682a2.686,2.686,0,0,1,.358-1.339l16.044-27.782a3.536,3.536,0,0,0,.289-2.847,4.213,4.213,0,0,0-1.944-2.392,4.3,4.3,0,0,0-2.147-.586A4.047,4.047,0,0,0,521.387,222.836Z"
                      transform="translate(-352.5 -57.394)"/>
            </g>
            <g id="R-ICO-013284-2" data-name="R-ICO-013284">
                <path class="cls-28"
                      d="M860.346,329.4a4.112,4.112,0,0,1-4.112-4.112V257.1l8.223-3.939v72.126A4.112,4.112,0,0,1,860.346,329.4Z"
                      transform="translate(-352.5 -57.394)"/>
                <path class="cls-29"
                      d="M841.736,222.889a4.391,4.391,0,0,1,6.047,1.372l16.024,27.707.651,1.191-8.223,3.939L839.9,228.811A4.391,4.391,0,0,1,841.736,222.889Z"
                      transform="translate(-352.5 -57.394)"/>
                <g class="cls-30">
                    <path class="cls-31"
                          d="M856.234,322.215v3.172a4.113,4.113,0,0,0,8.223,0v-3.172"
                          transform="translate(-352.5 -57.394)"/>
                </g>
                <path class="cls-23"
                      d="M860.353,329.9c-.152,0-.305-.007-.459-.022a4.744,4.744,0,0,1-4.16-4.767V257.682a1.681,1.681,0,0,0-.225-.839l-16.044-27.782a4.523,4.523,0,0,1-.378-3.643,5.317,5.317,0,0,1,6.163-3.557,4.523,4.523,0,0,1,2.965,2.15l16.008,27.7a4.589,4.589,0,0,1,.733,2.471v71.1a4.624,4.624,0,0,1-1.511,3.414A4.559,4.559,0,0,1,860.353,329.9Zm-16.219-107.16a4.3,4.3,0,0,0-2.147.586,4.213,4.213,0,0,0-1.944,2.392,3.536,3.536,0,0,0,.289,2.847l16.044,27.782a2.686,2.686,0,0,1,.358,1.339v67.426a3.737,3.737,0,0,0,3.255,3.771,3.613,3.613,0,0,0,3.969-3.595v-71.1a3.6,3.6,0,0,0-.582-1.941l-.012-.02L847.35,224.511a3.536,3.536,0,0,0-2.32-1.675A4.047,4.047,0,0,0,844.134,222.737Z"
                      transform="translate(-352.5 -57.394)"/>
                <path class="cls-32"
                      d="M873.592,329.4a4.112,4.112,0,0,0,4.112-4.112V257.1l-8.223-3.939v72.126A4.112,4.112,0,0,0,873.592,329.4Z"
                      transform="translate(-352.5 -57.394)"/>
                <path class="cls-33"
                      d="M892.2,222.889a4.391,4.391,0,0,0-6.047,1.372l-16.024,27.707-.651,1.191L877.7,257.1l16.336-28.287A4.391,4.391,0,0,0,892.2,222.889Z"
                      transform="translate(-352.5 -57.394)"/>
                <g class="cls-34">
                    <path class="cls-35"
                          d="M877.7,322.215v3.172a4.113,4.113,0,0,1-8.223,0v-3.172"
                          transform="translate(-352.5 -57.394)"/>
                </g>
                <path class="cls-23"
                      d="M870.491,328.7a4.624,4.624,0,0,1-1.511-3.414v-71.1a4.589,4.589,0,0,1,.733-2.471l16.008-27.7a4.523,4.523,0,0,1,2.965-2.15,5.317,5.317,0,0,1,6.163,3.557,4.523,4.523,0,0,1-.378,3.643l-16.044,27.782a1.681,1.681,0,0,0-.225.839v67.426a4.744,4.744,0,0,1-4.16,4.767c-.154.015-.307.022-.459.022A4.559,4.559,0,0,1,870.491,328.7Zm18.417-105.862a3.536,3.536,0,0,0-2.32,1.675l-16.014,27.714-.012.02a3.6,3.6,0,0,0-.582,1.941v71.1a3.613,3.613,0,0,0,3.969,3.595,3.737,3.737,0,0,0,3.255-3.771V257.682a2.686,2.686,0,0,1,.358-1.339l16.044-27.782a3.536,3.536,0,0,0,.289-2.847,4.213,4.213,0,0,0-1.944-2.392,4.3,4.3,0,0,0-2.147-.586A4.047,4.047,0,0,0,888.909,222.836Z"
                      transform="translate(-352.5 -57.394)"/>
            </g>
            <g id="R-ICO-012954">
                <circle r="12.437" class="cls-36" cx="146.947" cy="168.945"/>
                <circle r="12.437" class="cls-37" cx="146.947" cy="168.945"/>
            </g>
            <g id="R-ICO-012954-2" data-name="R-ICO-012954">
                <circle r="12.437" class="cls-38" cx="514.482" cy="168.945"/>
                <circle r="12.437" class="cls-39" cx="514.482" cy="168.945"/>
            </g>
            <g id="R-ICO-013177">
                <circle r="6.849" class="cls-40" cx="311.798" cy="442.778"/>
                <rect width="7.981" x="296.968" height="1.32" y="442.118"
                      class="cls-41"/>
                <path id="P"
                      d="M661.414,504.259V495.67H664.2a10.093,10.093,0,0,1,2.063.129,2.252,2.252,0,0,1,1.236.841,2.666,2.666,0,0,1,.5,1.673,2.8,2.8,0,0,1-.287,1.33,2.355,2.355,0,0,1-.729.847,2.514,2.514,0,0,1-.9.407,9.9,9.9,0,0,1-1.8.123h-1.131v3.24Zm1.734-7.136v2.438h.949a4.485,4.485,0,0,0,1.371-.135,1.139,1.139,0,0,0,.542-.422,1.155,1.155,0,0,0,.2-.668,1.11,1.11,0,0,0-.275-.773,1.2,1.2,0,0,0-.7-.381,8.336,8.336,0,0,0-1.248-.059Z"
                      class="cls-42" transform="translate(-352.5 -57.394)"/>
                <path class="cls-41"
                      d="M664.3,507.682a7.509,7.509,0,1,1,7.51-7.509A7.518,7.518,0,0,1,664.3,507.682Zm0-13.7a6.189,6.189,0,1,0,6.19,6.189A6.2,6.2,0,0,0,664.3,493.983Z"
                      transform="translate(-352.5 -57.394)"/>
            </g>
            <g id="R-ICO-012985">
                <rect x="240.968" y="432.778" width="56" rx="9.742"
                      class="cls-43" ry="9.742" height="20"/>
                <path class="cls-41"
                      d="M639.725,510.323c-5.634-.009-11.268.43-16.9.837-5.634.458-11.268.546-16.9.613-.7.016-1.409,0-2.113,0-.343,0-.7,0-1.131-.027a7.68,7.68,0,0,1-1.223-.126,10.945,10.945,0,0,1-4.53-1.8,11.285,11.285,0,0,1-4.8-8.134c-.038-.4-.036-.806-.052-1.208l.008-.534.038-.6a7.7,7.7,0,0,1,.147-1.195,8.226,8.226,0,0,1,.281-1.169,10.527,10.527,0,0,1,2.321-4.129,10.709,10.709,0,0,1,8.341-3.5c5.634.282,11.268.437,16.9.335,5.634-.084,11.268-.574,16.9-.762l2.113-.058a11.146,11.146,0,0,1,1.118,0,7.44,7.44,0,0,1,1.195.115,10.4,10.4,0,0,1,8.91,9.73c.023.386,0,.775,0,1.158-.016.351-.05.709-.1,1.1a7.169,7.169,0,0,1-.195,1.125,7.966,7.966,0,0,1-.313,1.089,10.528,10.528,0,0,1-2.3,3.778A10.742,10.742,0,0,1,639.725,510.323Zm0-.3a8.985,8.985,0,0,0,7.13-3.557,8.626,8.626,0,0,0,1.62-3.63,6.529,6.529,0,0,0,.135-.973,5.8,5.8,0,0,0,.026-.974c0-.311-.019-.658-.054-1.011-.047-.319-.076-.637-.131-.95a9.255,9.255,0,0,0-4.057-6,9.069,9.069,0,0,0-3.369-1.308c-1.119-.172-2.613-.147-4.011-.2-5.634-.188-11.268-.678-16.9-.762-5.634-.1-11.268.053-16.9.335a8.924,8.924,0,0,0-6.505,3.416,8.628,8.628,0,0,0-1.6,3.28,6.232,6.232,0,0,0-.167.893,5.277,5.277,0,0,0-.074.9l-.013.457.013.522c.029.3.036.6.076.9a8.444,8.444,0,0,0,3.73,5.852,8.662,8.662,0,0,0,3.278,1.245,35.374,35.374,0,0,0,3.97.11c5.634.066,11.268.155,16.9.613C628.457,509.593,634.091,510.032,639.725,510.023Z"
                      transform="translate(-352.5 -57.394)"/>
                <text class="cls-44" transform="translate(244.267 445.664)">
                    MAP3K8
                </text>
            </g>
            <g class="cls-45" id="LOGO">
                <path class="cls-46"
                      d="M882.521,69.1a.5.5,0,0,1-.169.379.487.487,0,0,1-.282.072,2.882,2.882,0,0,1-.379-.032,3.005,3.005,0,0,0-1.828.306,2.493,2.493,0,0,0-.983.934,2.567,2.567,0,0,0-.354,1.337v4.9a.485.485,0,0,1-.129.346.463.463,0,0,1-.354.137.468.468,0,0,1-.483-.483V69.147a.464.464,0,0,1,.137-.354.486.486,0,0,1,.346-.129.446.446,0,0,1,.483.483v1a3.421,3.421,0,0,1,1.192-1.16,3.1,3.1,0,0,1,1.578-.419Q882.521,68.567,882.521,69.1Z"
                      transform="translate(-352.5 -57.394)"/>
                <path class="cls-46"
                      d="M889.407,69.139a3.835,3.835,0,0,1,1.442,1.538,4.75,4.75,0,0,1,.515,2.239.431.431,0,0,1-.129.33.475.475,0,0,1-.338.121h-6.749a3.593,3.593,0,0,0,.5,1.7,3.188,3.188,0,0,0,1.208,1.168,3.431,3.431,0,0,0,1.691.419,3.893,3.893,0,0,0,1.264-.217,2.7,2.7,0,0,0,1.007-.572.535.535,0,0,1,.338-.129.424.424,0,0,1,.322.741,4.086,4.086,0,0,1-1.345.773,4.581,4.581,0,0,1-1.587.306,4.442,4.442,0,0,1-2.263-.572,4.07,4.07,0,0,1-1.554-1.595,4.7,4.7,0,0,1-.564-2.311,5.035,5.035,0,0,1,.524-2.328,3.9,3.9,0,0,1,1.466-1.595,4.064,4.064,0,0,1,2.15-.572A4.007,4.007,0,0,1,889.407,69.139Zm-4.22,1.184a3.544,3.544,0,0,0-1.023,2.207h6.266a3.36,3.36,0,0,0-.967-2.207,2.956,2.956,0,0,0-2.158-.838A2.923,2.923,0,0,0,885.187,70.323Z"
                      transform="translate(-352.5 -57.394)"/>
                <path class="cls-46"
                      d="M899.45,69.155a4.265,4.265,0,0,1,1.619,1.619,4.566,4.566,0,0,1,.588,2.3v3.914a.485.485,0,0,1-.129.346.463.463,0,0,1-.354.137.468.468,0,0,1-.483-.483V75.735a3.746,3.746,0,0,1-1.458,1.345,4.347,4.347,0,0,1-2.07.491,4.563,4.563,0,0,1-2.3-.588,4.257,4.257,0,0,1-1.619-1.619,4.773,4.773,0,0,1,0-4.591,4.262,4.262,0,0,1,1.619-1.619,4.773,4.773,0,0,1,4.591,0Zm-.483,7.047a3.352,3.352,0,0,0,1.264-1.289,3.9,3.9,0,0,0,0-3.673,3.413,3.413,0,0,0-1.264-1.3,3.538,3.538,0,0,0-4.881,1.3,3.844,3.844,0,0,0,0,3.673,3.408,3.408,0,0,0,1.273,1.289,3.718,3.718,0,0,0,3.608,0Z"
                      transform="translate(-352.5 -57.394)"/>
                <path class="cls-46"
                      d="M905.732,76.983a4.208,4.208,0,0,1-1.57-1.619,4.631,4.631,0,0,1-.572-2.287,4.9,4.9,0,0,1,.532-2.3,4.05,4.05,0,0,1,1.482-1.611,3.96,3.96,0,0,1,2.126-.588,4.365,4.365,0,0,1,1.885.4,4.147,4.147,0,0,1,1.482,1.192.514.514,0,0,1,.113.274.394.394,0,0,1-.226.354.385.385,0,0,1-.258.1.444.444,0,0,1-.37-.193,3.282,3.282,0,0,0-2.626-1.224,2.98,2.98,0,0,0-2.779,1.74,4.224,4.224,0,0,0-.395,1.852,3.862,3.862,0,0,0,.435,1.836A3.25,3.25,0,0,0,906.2,76.2a3.357,3.357,0,0,0,1.772.467,3.213,3.213,0,0,0,2.271-.789.464.464,0,0,1,.338-.145.393.393,0,0,1,.29.113.46.46,0,0,1,.161.354.367.367,0,0,1-.129.29,4,4,0,0,1-1.321.8,4.584,4.584,0,0,1-1.611.282A4.326,4.326,0,0,1,905.732,76.983Z"
                      transform="translate(-352.5 -57.394)"/>
                <path class="cls-46"
                      d="M917.966,76.629a.491.491,0,0,1,.137.362.47.47,0,0,1-.137.346.49.49,0,0,1-.362.137h-.37a3.082,3.082,0,0,1-1.578-.4,2.84,2.84,0,0,1-1.079-1.1,3.229,3.229,0,0,1-.387-1.587V69.856h-1.256a.435.435,0,1,1,0-.87h1.256V66.36a.491.491,0,0,1,.137-.362.47.47,0,0,1,.346-.137.471.471,0,0,1,.5.5v2.626H917.3a.435.435,0,1,1,0,.87h-2.126v4.526a2.075,2.075,0,0,0,.58,1.522,2.012,2.012,0,0,0,1.5.588h.354A.491.491,0,0,1,917.966,76.629Z"
                      transform="translate(-352.5 -57.394)"/>
                <path class="cls-46"
                      d="M921.84,76.983a4.257,4.257,0,0,1-1.619-1.619,4.773,4.773,0,0,1,0-4.591,4.262,4.262,0,0,1,1.619-1.619,4.773,4.773,0,0,1,4.591,0,4.265,4.265,0,0,1,1.619,1.619,4.773,4.773,0,0,1,0,4.591,4.26,4.26,0,0,1-1.619,1.619,4.773,4.773,0,0,1-4.591,0Zm4.108-.781a3.352,3.352,0,0,0,1.264-1.289,3.9,3.9,0,0,0,0-3.673,3.413,3.413,0,0,0-1.264-1.3,3.538,3.538,0,0,0-4.881,1.3,3.844,3.844,0,0,0,0,3.673,3.408,3.408,0,0,0,1.273,1.289,3.718,3.718,0,0,0,3.608,0Z"
                      transform="translate(-352.5 -57.394)"/>
                <path class="cls-46"
                      d="M942.071,69.034a3.233,3.233,0,0,1,1.176,1.345,4.425,4.425,0,0,1,.419,1.957v4.655a.484.484,0,0,1-.129.346.462.462,0,0,1-.354.137.468.468,0,0,1-.483-.483V72.336a3.057,3.057,0,0,0-.661-2.03,2.108,2.108,0,0,0-1.691-.789,2.375,2.375,0,0,0-1.82.741,2.653,2.653,0,0,0-.661,1.965v4.768a.484.484,0,0,1-.129.346.462.462,0,0,1-.354.137.468.468,0,0,1-.483-.483V72.336a3.057,3.057,0,0,0-.661-2.03,2.108,2.108,0,0,0-1.691-.789,2.428,2.428,0,0,0-2.529,2.545v4.929a.485.485,0,0,1-.129.346.463.463,0,0,1-.354.137.468.468,0,0,1-.483-.483V69.147a.464.464,0,0,1,.137-.354.486.486,0,0,1,.346-.129.446.446,0,0,1,.483.483v.628a3.125,3.125,0,0,1,1.111-.9,3.191,3.191,0,0,1,1.417-.322,3.116,3.116,0,0,1,1.675.459,3.3,3.3,0,0,1,1.176,1.264,3.22,3.22,0,0,1,1.208-1.264,3.343,3.343,0,0,1,1.74-.459A3.135,3.135,0,0,1,942.071,69.034Z"
                      transform="translate(-352.5 -57.394)"/>
                <path class="cls-46"
                      d="M952.162,69.139a3.835,3.835,0,0,1,1.442,1.538,4.75,4.75,0,0,1,.515,2.239.431.431,0,0,1-.129.33.475.475,0,0,1-.338.121H946.9a3.593,3.593,0,0,0,.5,1.7,3.188,3.188,0,0,0,1.208,1.168,3.431,3.431,0,0,0,1.691.419,3.893,3.893,0,0,0,1.264-.217,2.7,2.7,0,0,0,1.007-.572.535.535,0,0,1,.338-.129.424.424,0,0,1,.322.741,4.086,4.086,0,0,1-1.345.773,4.581,4.581,0,0,1-1.587.306,4.442,4.442,0,0,1-2.263-.572,4.07,4.07,0,0,1-1.554-1.595,4.7,4.7,0,0,1-.564-2.311,5.035,5.035,0,0,1,.524-2.328,3.9,3.9,0,0,1,1.466-1.595,4.064,4.064,0,0,1,2.15-.572A4.007,4.007,0,0,1,952.162,69.139Zm-4.22,1.184a3.544,3.544,0,0,0-1.023,2.207h6.266a3.36,3.36,0,0,0-.967-2.207,2.956,2.956,0,0,0-2.158-.838A2.923,2.923,0,0,0,947.942,70.323Z"
                      transform="translate(-352.5 -57.394)"/>
                <polygon class="cls-47"
                         points="511.665 6.588 511.665 2.721 501.619 8.522 501.619 20.122 504.968 18.188 504.968 10.455 511.665 6.588"/>
                <polygon class="cls-48"
                         points="504.968 18.188 504.968 22.055 508.316 20.122 508.316 16.255 504.968 18.188"/>
                <polygon class="cls-48"
                         points="515.014 8.522 515.014 4.655 511.665 6.588 511.665 10.455 515.014 8.522"/>
                <polygon class="cls-49"
                         points="508.316 12.388 511.665 10.455 511.665 6.588 504.968 10.455 504.968 18.188 508.316 16.255 508.316 12.388"/>
                <polygon class="cls-50"
                         points="515.014 16.255 515.014 16.255 515.014 20.122 518.363 18.188 518.363 14.322 515.014 16.255 515.014 16.255"/>
                <polygon class="cls-50"
                         points="518.363 10.455 518.363 6.588 515.014 8.522 515.014 12.388 518.363 10.455"/>
                <polygon class="cls-50"
                         points="508.316 20.122 508.316 23.989 511.665 22.055 511.665 18.188 508.316 20.122"/>
                <polygon class="cls-51"
                         points="511.665 14.322 515.014 12.388 515.014 8.522 511.665 10.455 511.665 14.322 508.316 16.255 508.316 20.122 511.665 18.188 511.665 14.322"/>
                <polygon class="cls-46"
                         points="508.316 12.388 508.316 16.255 511.665 14.322 511.665 10.455 508.316 12.388"/>
                <polygon class="cls-46"
                         points="518.363 10.455 515.014 12.388 511.665 14.322 511.665 18.188 511.665 22.055 511.665 25.922 515.014 23.988 515.014 20.122 515.014 16.255 515.014 16.255 515.014 16.255 518.363 14.322 521.711 12.388 521.711 8.522 518.363 10.455"/>
            </g>
        </g>
        <g id="REGION-R-HSA-5687128">
            <rect x="427.056" y="68.359" width="175" class="cls-52"
                  height="584.86" id="MASK-6" data-name="MASK"/>
            <g id="R-ICO-013177-2" data-name="R-ICO-013177">
                <circle r="6.849" class="cls-53" cx="551.312" cy="383.608"/>
                <rect width="7.981" x="536.482" height="1.32" y="382.948"
                      class="cls-54"/>
                <path d="M900.928,445.088V436.5h2.783a10.093,10.093,0,0,1,2.063.129,2.252,2.252,0,0,1,1.236.841,2.666,2.666,0,0,1,.5,1.673,2.8,2.8,0,0,1-.287,1.33,2.355,2.355,0,0,1-.729.847,2.514,2.514,0,0,1-.9.407,9.9,9.9,0,0,1-1.8.123h-1.131v3.24Zm1.734-7.136v2.438h.949a4.485,4.485,0,0,0,1.371-.135,1.139,1.139,0,0,0,.542-.422,1.155,1.155,0,0,0,.2-.668,1.11,1.11,0,0,0-.275-.773,1.2,1.2,0,0,0-.7-.381,8.336,8.336,0,0,0-1.248-.059Z"
                      id="P-2" class="cls-42" data-name="P"
                      transform="translate(-352.5 -57.394)"/>
                <path class="cls-54"
                      d="M903.811,448.512a7.509,7.509,0,1,1,7.51-7.509A7.518,7.518,0,0,1,903.811,448.512Zm0-13.7A6.189,6.189,0,1,0,910,441,6.2,6.2,0,0,0,903.811,434.813Z"
                      transform="translate(-352.5 -57.394)"/>
            </g>
            <g id="R-ICO-013177-3" data-name="R-ICO-013177">
                <circle r="6.849" class="cls-55" cx="557.933" cy="620.608"/>
                <rect width="7.981" x="543.103" height="1.32" y="619.948"
                      class="cls-56"/>
                <path d="M907.55,682.088V673.5h2.783a10.093,10.093,0,0,1,2.063.129,2.252,2.252,0,0,1,1.236.841,2.666,2.666,0,0,1,.5,1.673,2.8,2.8,0,0,1-.287,1.33,2.355,2.355,0,0,1-.729.847,2.514,2.514,0,0,1-.9.407,9.9,9.9,0,0,1-1.8.123h-1.131v3.24Zm1.734-7.136v2.438h.949a4.485,4.485,0,0,0,1.371-.135,1.139,1.139,0,0,0,.542-.422,1.155,1.155,0,0,0,.2-.668,1.11,1.11,0,0,0-.275-.773,1.2,1.2,0,0,0-.7-.381,8.336,8.336,0,0,0-1.248-.059Z"
                      id="P-3" class="cls-42" data-name="P"
                      transform="translate(-352.5 -57.394)"/>
                <path class="cls-56"
                      d="M910.433,685.512a7.509,7.509,0,1,1,7.51-7.509A7.518,7.518,0,0,1,910.433,685.512Zm0-13.7a6.189,6.189,0,1,0,6.19,6.189A6.2,6.2,0,0,0,910.433,671.813Z"
                      transform="translate(-352.5 -57.394)"/>
            </g>
            <g id="R-ICO-012988">
                <rect x="486.056" y="610.608" width="57" rx="10" class="cls-57"
                      ry="10" height="20"/>
                <path class="cls-56"
                      d="M885.556,688.152c-5.7-.009-11.4.417-17.1.821-5.7.454-11.4.562-17.1.622-.712.014-1.425.016-2.137.012a14.659,14.659,0,0,1-2.365-.142,11.242,11.242,0,0,1-4.59-1.762,11.464,11.464,0,0,1-5.021-8.1,11.206,11.206,0,0,1,2.819-8.972,10.991,10.991,0,0,1,8.489-3.6,338.6,338.6,0,0,0,34.194.131,34.316,34.316,0,0,1,4.42-.068,10.882,10.882,0,0,1,9.609,9.32,9.691,9.691,0,0,1-3.1,8.644A12.277,12.277,0,0,1,885.556,688.152Zm0-.3a8.178,8.178,0,0,0,4.01-1.05,8.815,8.815,0,0,0,2.933-2.771,10.625,10.625,0,0,0,1.614-7.237,9.151,9.151,0,0,0-7.248-7.645,34.3,34.3,0,0,0-4.115-.308,338.6,338.6,0,0,0-34.194.131,9.111,9.111,0,0,0-6.58,3.318,8.568,8.568,0,0,0,2.014,12.772,8.789,8.789,0,0,0,3.34,1.238c1.085.167,2.629.06,4.033.11,5.7.06,11.4.168,17.1.622C874.158,687.435,879.857,687.861,885.556,687.852Z"
                      transform="translate(-352.5 -57.394)"/>
                <text class="cls-44" transform="translate(488.649 623.497)">
                    MAPK4,6
                </text>
            </g>
            <g id="R-ICO-013149">
                <rect x="492.556" y="373.608" width="44" rx="10" class="cls-58"
                      ry="10" height="20"/>
                <path class="cls-54"
                      d="M879.056,451.152c-4.616-.009-9.231.43-13.847.837-2.308.205-4.616.388-6.924.457-1.17.051-2.272.086-3.5.081a11.083,11.083,0,0,1-3.922-.723,11.314,11.314,0,0,1-7.027-12.9,11.16,11.16,0,0,1,4.066-6.511,10.945,10.945,0,0,1,7.149-2.212c4.616.282,9.231.437,13.847.335,2.308-.059,4.616-.178,6.924-.341,1.165-.074,2.284-.169,3.486-.223a10.183,10.183,0,0,1,3.8.575,10.673,10.673,0,0,1,5.825,4.967,10.4,10.4,0,0,1,.875,7.52,11.014,11.014,0,0,1-4.136,5.967A11.518,11.518,0,0,1,879.056,451.152Zm0-.3a8.968,8.968,0,0,0,6.133-2.462,9.19,9.19,0,0,0,2.75-5.728,9.764,9.764,0,0,0-5.73-9.809,8.867,8.867,0,0,0-2.946-.777c-1.1-.1-2.294-.162-3.437-.246-2.308-.164-4.616-.282-6.924-.341-4.616-.1-9.231.053-13.847.335a9.318,9.318,0,0,0-5.609,2.42,9.109,9.109,0,0,0-2.82,5.184,8.635,8.635,0,0,0,1.069,5.666,8.835,8.835,0,0,0,4.334,3.73,7.947,7.947,0,0,0,2.829.629c1.082.042,2.288.043,3.426.1,2.308.069,4.616.252,6.924.457C869.825,450.422,874.44,450.861,879.056,450.852Z"
                      transform="translate(-352.5 -57.394)"/>
                <text class="cls-44" transform="translate(498.997 386.496)">
                    <tspan class="cls-59">
                        P
                    </tspan>
                    <tspan x="7.113" y="0">
                        AKs
                    </tspan>
                </text>
            </g>
            <g id="OVERLAY-R-HSA-5687128">
                <rect x="427.056" y="88.359" width="175" rx="8" class="cls-60"
                      ry="8" height="30"/>
                <text class="cls-44" transform="translate(435.883 106.248)">
                    MAPK6/MAPK4 SIGNALING
                </text>
            </g>
            <g class="cls-61" id="ANALINFO">
                <rect x="427.056" y="68.359" width="175" rx="8" class="cls-62"
                      ry="8" height="20"/>
                <text class="cls-63" transform="translate(495.291 80.526)">
                    XXX/YY
                    <tspan x="32.515" class="cls-64" y="0">
                        Y
                    </tspan>
                </text>
            </g>
        </g>
        <g id="REGION-R-HSA-5684996">
            <rect x="58.944" y="68.359" width="175" class="cls-52"
                  height="592.246" id="MASK-7" data-name="MASK"/>
            <g id="R-ICO-013177-4" data-name="R-ICO-013177">
                <circle r="6.849" class="cls-65" cx="184.024" cy="383.608"/>
                <rect width="7.981" x="169.194" height="1.32" y="382.948"
                      class="cls-66"/>
                <path d="M533.641,445.088V436.5h2.783a10.093,10.093,0,0,1,2.063.129,2.252,2.252,0,0,1,1.236.841,2.666,2.666,0,0,1,.5,1.673,2.8,2.8,0,0,1-.287,1.33,2.355,2.355,0,0,1-.729.847,2.514,2.514,0,0,1-.9.407,9.9,9.9,0,0,1-1.8.123h-1.131v3.24Zm1.734-7.136v2.438h.949a4.485,4.485,0,0,0,1.371-.135,1.139,1.139,0,0,0,.542-.422,1.155,1.155,0,0,0,.2-.668,1.11,1.11,0,0,0-.275-.773,1.2,1.2,0,0,0-.7-.381,8.336,8.336,0,0,0-1.248-.059Z"
                      id="P-4" class="cls-42" data-name="P"
                      transform="translate(-352.5 -57.394)"/>
                <path class="cls-66"
                      d="M536.524,448.512a7.509,7.509,0,1,1,7.51-7.509A7.518,7.518,0,0,1,536.524,448.512Zm0-13.7a6.189,6.189,0,1,0,6.19,6.189A6.2,6.2,0,0,0,536.524,434.813Z"
                      transform="translate(-352.5 -57.394)"/>
            </g>
            <g id="R-ICO-013177-5" data-name="R-ICO-013177">
                <circle r="6.849" class="cls-67" cx="192.913" cy="502.108"/>
                <rect width="7.981" x="178.083" height="1.32" y="501.448"
                      class="cls-68"/>
                <path d="M542.53,563.588V555h2.783a10.093,10.093,0,0,1,2.063.129,2.252,2.252,0,0,1,1.236.841,2.666,2.666,0,0,1,.5,1.673,2.8,2.8,0,0,1-.287,1.33,2.355,2.355,0,0,1-.729.847,2.514,2.514,0,0,1-.9.407,9.9,9.9,0,0,1-1.8.123h-1.131v3.24Zm1.734-7.136v2.438h.949a4.485,4.485,0,0,0,1.371-.135,1.139,1.139,0,0,0,.542-.422,1.155,1.155,0,0,0,.2-.668,1.11,1.11,0,0,0-.275-.773,1.2,1.2,0,0,0-.7-.381,8.336,8.336,0,0,0-1.248-.059Z"
                      id="P-5" class="cls-42" data-name="P"
                      transform="translate(-352.5 -57.394)"/>
                <path class="cls-68"
                      d="M545.413,567.012a7.509,7.509,0,1,1,7.51-7.509A7.518,7.518,0,0,1,545.413,567.012Zm0-13.7a6.189,6.189,0,1,0,6.19,6.189A6.2,6.2,0,0,0,545.413,553.313Z"
                      transform="translate(-352.5 -57.394)"/>
            </g>
            <g id="R-ICO-013177-6" data-name="R-ICO-013177">
                <circle r="6.849" class="cls-69" cx="189.413" cy="620.608"/>
                <rect width="7.981" x="174.583" height="1.32" y="619.948"
                      class="cls-70"/>
                <path d="M539.03,682.088V673.5h2.783a10.093,10.093,0,0,1,2.063.129,2.252,2.252,0,0,1,1.236.841,2.666,2.666,0,0,1,.5,1.673,2.8,2.8,0,0,1-.287,1.33,2.355,2.355,0,0,1-.729.847,2.514,2.514,0,0,1-.9.407,9.9,9.9,0,0,1-1.8.123h-1.131v3.24Zm1.734-7.136v2.438h.949a4.485,4.485,0,0,0,1.371-.135,1.139,1.139,0,0,0,.542-.422,1.155,1.155,0,0,0,.2-.668,1.11,1.11,0,0,0-.275-.773,1.2,1.2,0,0,0-.7-.381,8.336,8.336,0,0,0-1.248-.059Z"
                      id="P-6" class="cls-42" data-name="P"
                      transform="translate(-352.5 -57.394)"/>
                <path class="cls-70"
                      d="M541.913,685.512a7.509,7.509,0,1,1,7.51-7.509A7.518,7.518,0,0,1,541.913,685.512Zm0-13.7A6.189,6.189,0,1,0,548.1,678,6.2,6.2,0,0,0,541.913,671.813Z"
                      transform="translate(-352.5 -57.394)"/>
            </g>
            <g id="R-ICO-012987">
                <rect x="117.583" y="610.608" width="57" rx="10" class="cls-71"
                      ry="10" height="20"/>
                <path class="cls-70"
                      d="M517.083,688.152c-5.7-.009-11.4.417-17.1.821-5.7.454-11.4.562-17.1.622-.712.014-1.425.016-2.137.012a14.659,14.659,0,0,1-2.365-.142,11.242,11.242,0,0,1-4.59-1.762,11.464,11.464,0,0,1-5.021-8.1,11.206,11.206,0,0,1,2.819-8.972,10.991,10.991,0,0,1,8.489-3.6,338.6,338.6,0,0,0,34.194.131,34.316,34.316,0,0,1,4.42-.068,10.882,10.882,0,0,1,9.609,9.32,9.691,9.691,0,0,1-3.1,8.644A12.277,12.277,0,0,1,517.083,688.152Zm0-.3a8.178,8.178,0,0,0,4.01-1.05,8.816,8.816,0,0,0,2.933-2.771,10.625,10.625,0,0,0,1.614-7.237,9.151,9.151,0,0,0-7.248-7.645,34.3,34.3,0,0,0-4.115-.308,338.6,338.6,0,0,0-34.194.131,9.111,9.111,0,0,0-6.58,3.318,8.568,8.568,0,0,0,2.014,12.772,8.789,8.789,0,0,0,3.34,1.238c1.085.167,2.629.06,4.033.11,5.7.06,11.4.168,17.1.622C505.685,687.435,511.384,687.861,517.083,687.852Z"
                      transform="translate(-352.5 -57.394)"/>
                <text class="cls-44" transform="translate(120.176 623.497)">
                    MAPK1,3
                </text>
            </g>
            <g id="R-ICO-012980">
                <rect x="114.083" y="491.949" width="64" rx="10" class="cls-72"
                      ry="10" height="20"/>
                <path class="cls-68"
                      d="M520.583,569.493c-6.282-.009-12.565.43-18.847.837-6.282.458-12.565.546-18.847.613h-4.712c-.8-.009-1.511.02-2.476-.048a11.1,11.1,0,0,1-2.667-.553,11.524,11.524,0,0,1-7.29-7.458,11.1,11.1,0,0,1,1.8-10.1,10.894,10.894,0,0,1,9.04-4.262c6.282.261,12.565.449,18.847.335,3.141-.049,6.282-.194,9.423-.349l9.424-.413c1.571-.033,3.141-.094,4.712-.087.8,0,1.52-.031,2.457.031a10.6,10.6,0,0,1,2.611.539,10.69,10.69,0,0,1,6.92,7.372,10.684,10.684,0,0,1-2,9.479A10.819,10.819,0,0,1,520.583,569.493Zm0-.3a9.753,9.753,0,0,0,4.441-1.137,9.238,9.238,0,0,0,4.163-11.519,9.43,9.43,0,0,0-5.946-5.451,13.684,13.684,0,0,0-4.253-.407c-1.571.006-3.141-.055-4.712-.087l-9.424-.413c-3.141-.155-6.282-.3-9.423-.349-6.282-.114-12.565.074-18.847.335a9.211,9.211,0,0,0-4.067,1.194,9.384,9.384,0,0,0-3.049,2.827A8.625,8.625,0,0,0,474,567.368a13,13,0,0,0,4.178.376h4.712c6.282.066,12.565.155,18.847.613C508.019,568.764,514.3,569.2,520.583,569.193Z"
                      transform="translate(-352.5 -57.394)"/>
                <text class="cls-44" transform="translate(116.379 504.835)">
                    MAP2K1,2
                </text>
            </g>
            <g id="R-ICO-012447">
                <rect x="125.194" y="360.107" width="44" rx="10" class="cls-73"
                      ry="10" height="47.002"/>
                <path class="cls-74"
                      d="M511.694,464.653c-6.866-.008-13.732.468-20.6.887a44.509,44.509,0,0,1-5.382.167,10.744,10.744,0,0,1-5.391-2.281,10.594,10.594,0,0,1-2.035-2.166,9.921,9.921,0,0,1-1.387-2.629,11.579,11.579,0,0,1-.626-2.9c-.024-.479-.033-1.016-.033-1.445L476.25,453l.1-20.6c.022-1.73.013-3.4.06-5.181a11.074,11.074,0,0,1,1.717-5.457,10.952,10.952,0,0,1,9.562-5.087,145.608,145.608,0,0,0,20.6,0l2.575-.16a12.325,12.325,0,0,1,2.757.063,10.842,10.842,0,0,1,5.238,2.243,10.981,10.981,0,0,1,3.409,4.633,11.4,11.4,0,0,1,.7,2.829c.039.472.055,1,.057,1.43L523.026,429l-.051,10.3-.118,10.3c-.029,1.728-.013,3.407-.1,5.175a10.618,10.618,0,0,1-1.942,5.193A11.311,11.311,0,0,1,511.694,464.653Zm0-.3a9.092,9.092,0,0,0,4.781-1.4,8.874,8.874,0,0,0,3.224-3.65,9.006,9.006,0,0,0,.911-4.575l-.079-5.123-.118-10.3-.051-10.3-.006-1.287c0-.429-.047-.758-.063-1.141a8.711,8.711,0,0,0-.52-2.157,9.1,9.1,0,0,0-6.534-5.67,48.155,48.155,0,0,0-4.948-.422,145.608,145.608,0,0,0-20.6,0,9.2,9.2,0,0,0-4.421,1.366,9.311,9.311,0,0,0-3.138,3.287A8.608,8.608,0,0,0,479,427.288l.035,5.117.1,20.6.006,1.287c.005.429.055.75.087,1.126a8.516,8.516,0,0,0,.6,2.089,9.3,9.3,0,0,0,6.369,5.47,8.922,8.922,0,0,0,2.323.335l2.575.156C497.963,463.885,504.828,464.361,511.694,464.353Z"
                      transform="translate(-352.5 -57.394)"/>
                <text class="cls-44" transform="translate(129.528 372.996)">
                    ARA
                    <tspan x="25.998" class="cls-75" y="0">
                        F
                    </tspan>
                    <tspan x="31.998" y="0">
                        ,
                    </tspan>
                    <tspan x="0" y="14.4">
                        BRA
                    </tspan>
                    <tspan x="25.998" class="cls-75" y="14.4">
                        F
                    </tspan>
                    <tspan x="31.998" y="14.4">
                        ,
                    </tspan>
                    <tspan x="1.998" y="28.8">
                        RAF1
                    </tspan>
                </text>
            </g>
            <g id="OVERLAY-R-HSA-5684996">
                <rect x="58.944" y="88.359" width="175" rx="8" class="cls-60"
                      ry="8" height="30"/>
                <text class="cls-44" transform="translate(67.771 106.248)">
                    MAPK1/MAPK3 SIGNALING
                </text>
            </g>
            <g class="cls-61" id="ANALINFO-2" data-name="ANALINFO">
                <rect x="58.944" y="68.359" width="175" rx="8" class="cls-62"
                      ry="8" height="20"/>
                <text class="cls-63" transform="translate(127.179 80.526)">
                    XXX/YY
                    <tspan x="32.515" class="cls-64" y="0">
                        Y
                    </tspan>
                </text>
            </g>
        </g>
    </g>
</svg>